<svg id="Layer_1" data-name="Layer 1" xmlns="http://www.w3.org/2000/svg" viewBox="0 0 300 100"><path d="M150,34q-4.27,30-25.31,39.36C134,77.53,140.11,83.12,143.13,90A10.51,10.51,0,0,1,150,85.39,10.47,10.47,0,0,1,156.86,90c3-6.88,9.11-12.47,18.45-16.69Q154.31,63.95,150,34Zm4.91,45.54a20.19,20.19,0,0,0-3.22-1l-1.69-.4-1.7.4a20.87,20.87,0,0,0-3.22,1,39.72,39.72,0,0,0-6.62-6.36A47.08,47.08,0,0,0,150,58.64a47.2,47.2,0,0,0,11.54,14.49A40.18,40.18,0,0,0,154.91,79.49Z"/><path d="M45,65.27a41.77,41.77,0,0,1-37.89-.68S20.8,69.48,34.8,63C36,62.42,37,61.88,38,61.33A34.17,34.17,0,0,1,45,65.27Z"/><path d="M48.59,52.37a11.88,11.88,0,0,0,1.88-3.79,56,56,0,0,1-8.17-5.16,37.07,37.07,0,0,1-6-6c-7.25,1.25-11.54,4.19-14.28,8,0,0,14.14-1.09,23,7.19S60.53,66.8,71.55,69.14a57.81,57.81,0,0,0,19.56.91A40.73,40.73,0,0,1,70.3,71.78c-11.78-2-23.29-7.87-32.17-13.3S22.33,52.38,13,53.87C3.41,55.42,0,58.35,0,58.35c6.8-18.2,20.27-29.57,42-32.44,2.35,8.69,8.34,15.25,21.35,19.14,0,0-1.69,6.52-8.4,13A26.51,26.51,0,0,1,48.59,52.37Z"/><path d="M55.74,74.33q2.13-1.42,4.14-3a61.3,61.3,0,0,1-10.47-3.77A57,57,0,0,1,33.07,73C52.64,82.94,70.8,84,88.26,80.2,76.94,81,64.69,79.52,55.74,74.33Z"/><path d="M101.86,23C85.22,30.3,65.93,31.3,51.17,24.83,61.65,34.1,75,39,94.85,34.12l2.29,4.48c-8.09,6.79-17,8.76-29.89,7.33a40.25,40.25,0,0,1-8.74,14.79,34.2,34.2,0,0,0,8.22,4.35,48.88,48.88,0,0,0,7.73-11c12.75.31,25-2.94,35.58-11.88C105.53,37.85,103,32,101.86,23Z"/><path d="M138.32,29.44C131,25.67,125.42,19.83,121.58,10a65.7,65.7,0,0,1-15.77,11.17c.9,6.48,3,13.23,7.71,17.83A65.8,65.8,0,0,0,121,30.05a18,18,0,0,0,8.59,6.11c1.53,15.6-2.7,26.13-14.55,35.22C134.51,64.18,143.11,48.44,138.32,29.44Z"/><path d="M75.92,59.64c17.4,2.24,34.33-5.88,45.55-21.79-2.35,13.85-5.82,22.45-14.42,32.31,2.73,1.39,4.67,3.87,6.1,7q10.55,1.67,16.92,12.49c-7.45-5.12-16.12-6.7-25.79-5.43-2-4.52-5.77-7.94-11.37-10.18,4.54-4.5,8-9.06,9.84-13.71C94.85,64.05,83.35,64.19,75.92,59.64Z"/><path d="M255,65.27a41.77,41.77,0,0,0,37.89-.68S279.2,69.48,265.19,63C264,62.42,263,61.88,262,61.33A33.62,33.62,0,0,0,255,65.27Z"/><path d="M251.4,52.37a12.16,12.16,0,0,1-1.88-3.79,56.2,56.2,0,0,0,8.19-5.16,37.25,37.25,0,0,0,6-6c7.25,1.25,11.54,4.19,14.28,8,0,0-14.15-1.09-23,7.19S239.47,66.8,228.45,69.14a57.81,57.81,0,0,1-19.56.91,40.71,40.71,0,0,0,20.8,1.73c11.79-2,23.3-7.87,32.18-13.3s15.8-6.1,25.09-4.61c9.63,1.55,13,4.48,13,4.48-6.81-18.2-20.27-29.57-42-32.44-2.36,8.69-8.35,15.25-21.36,19.14,0,0,1.7,6.52,8.41,13A26.31,26.31,0,0,0,251.4,52.37Z"/><path d="M244.25,74.33q-2.12-1.42-4.14-3a61,61,0,0,0,10.47-3.77A57,57,0,0,0,266.93,73C247.36,82.94,229.2,84,211.73,80.2,223.06,81,235.31,79.52,244.25,74.33Z"/><path d="M198.14,23c16.64,7.26,35.93,8.26,50.69,1.79C238.35,34.1,225,39,205.15,34.12l-2.29,4.48c8.09,6.79,16.95,8.76,29.89,7.33a40.25,40.25,0,0,0,8.74,14.79,34.2,34.2,0,0,1-8.22,4.35,49.23,49.23,0,0,1-7.74-11c-12.75.31-24.94-2.94-35.57-11.88C194.47,37.85,197,32,198.14,23Z"/><path d="M161.68,29.44c7.28-3.77,12.9-9.61,16.74-19.44a65.7,65.7,0,0,0,15.77,11.17c-.9,6.48-3,13.23-7.71,17.83A65.8,65.8,0,0,1,179,30.05a18,18,0,0,1-8.6,6.11c-1.52,15.6,2.71,26.13,14.56,35.22C165.49,64.18,156.89,48.44,161.68,29.44Z"/><path d="M224.08,59.64c-17.4,2.24-34.33-5.88-45.55-21.79C180.88,51.7,184.35,60.3,193,70.16c-2.74,1.39-4.67,3.87-6.11,7q-10.53,1.67-16.91,12.49c7.45-5.12,16.12-6.7,25.79-5.43,2-4.52,5.77-7.94,11.37-10.18-4.54-4.5-8-9.06-9.85-13.71C205.15,64.05,216.65,64.19,224.08,59.64Z"/></svg>