<svg id="Layer_1" data-name="Layer 1" xmlns="http://www.w3.org/2000/svg" viewBox="0 0 300 100"><path d="M149.36,31.47c3.21,8.24,7.8,15.72,18.51,22,3.59,11.65,1.6,22-6.32,30.84,10.43-5.67,17.46-13.57,20-24.39,10.13,3.84,21.66,5.42,34.79,4.41a12.25,12.25,0,0,0-.29-7.25,43.52,43.52,0,0,1-7.9-1.77c-23.8-.46-43.39-12.15-59.07-42.38-14.75,30.69-34,43-57.75,44.16a42.81,42.81,0,0,1-7.84,2,12.16,12.16,0,0,0-.07,7.26c13.16.62,24.63-1.32,34.63-5.46,2.88,10.73,10.14,18.42,20.74,23.77C130.61,76,128.3,65.75,131.54,54,142.05,47.42,146.42,39.8,149.36,31.47Z"/><path d="M70.6,84.51c-21.26-10.8-33.46-24.41-37-40.73,20.75-5.32,34.84-14,42.4-26.1,15.12-6,31.44-8.45,48.79-7.86-14.36,1.51-27.2,4.66-37.2,10.89C79.72,35.27,67.75,45.28,50,48.81,49.07,61,57,72.87,70.6,84.51Z"/><path d="M68.46,22.69A169,169,0,0,1,49.3,18.37c-10.41,9-23.87,14.12-39.74,16.26,17,1.69,32.15.13,44-7q3.48,1.2,6.95,2.2A32.76,32.76,0,0,0,68.46,22.69Z"/><path d="M137.16,16.52a129.21,129.21,0,0,1-48.71,8.07,29.72,29.72,0,0,1-6.6,9.17,92.52,92.52,0,0,0,26-1.48C99.21,43.57,84,50.16,63.07,52.57,65.92,67.73,76,78.68,92.36,86c-9.66-9.74-14.19-19.33-11.9-28.73C105.92,52.4,124.89,38.89,137.16,16.52Z"/><path d="M70.23,72.78c-3.22-.34-5.94-.82-9.16-1.42a34.07,34.07,0,0,0,7.26,7.48c3.32.36,6.11.6,9.38.71A49.11,49.11,0,0,1,70.23,72.78Z"/><path d="M122.93,86.24a33.83,33.83,0,0,1-17.21-14.88,120.9,120.9,0,0,1-19.92,2.1A31.53,31.53,0,0,0,90,79.37q4.91-.32,9.7-1C107.3,83.16,115,86,122.93,86.24Z"/><path d="M27.79,60.85c-8.21,9.86-9.43,20-5.66,30.37C23.5,84.52,26.73,78,36.1,72c5.31,1.66,11.56,3,16.74,4.17a55.43,55.43,0,0,1-10-9.64A150.86,150.86,0,0,1,27.79,60.85Z"/><path d="M16.23,37.85C1,53.49-3.27,71.9,2.42,90.37c1-15.54,7.1-29.2,21.48-39.79,4,1.72,7.31,3.29,11.07,4.71A31.55,31.55,0,0,1,30.7,43.86C25.63,41.9,21.49,40.11,16.23,37.85Z"/><path d="M60.79,53.57q-4-1-8.18-2.21a19.92,19.92,0,0,0,2.74,10.36c3.11.82,6.14,1.54,9.1,2.14A25.9,25.9,0,0,1,60.79,53.57Z"/><path d="M229.7,82.1c20.93-11.45,32.71-25.43,35.71-41.84q-31.35-7-43.17-24.81c-15.3-5.53-31.69-7.48-49-6.36,14.41,1.07,27.33,3.83,37.51,9.75,8.36,14.31,20.62,24,38.45,26.94C250.51,57.94,243,70,229.7,82.1Z"/><path d="M230,20.24a169.71,169.71,0,0,0,19-4.91C259.66,24,273.27,28.72,289.2,30.38c-17,2.21-32.13,1.11-44.15-5.7q-3.45,1.32-6.88,2.41A32.33,32.33,0,0,1,230,20.24Z"/><path d="M161.11,16.15A129.15,129.15,0,0,0,210,22.75c1.79,3.16,3.67,6.3,6.88,9a91.9,91.9,0,0,1-26-.7c9,11,24.35,17.15,45.38,18.93C233.87,65.17,224.1,76.43,208,84.26c9.36-10,13.6-19.75,11-29.07C193.42,51.07,174.06,38.14,161.11,16.15Z"/><path d="M229.72,70.36c3.21-.45,5.91-1,9.12-1.7a34.23,34.23,0,0,1-7,7.69c-3.31.46-6.1.79-9.36,1A49.13,49.13,0,0,0,229.72,70.36Z"/><path d="M177.45,85.41A33.82,33.82,0,0,0,194.2,70a122,122,0,0,0,20,1.48,31.06,31.06,0,0,1-4.05,6q-4.89-.17-9.72-.73C193,81.85,185.35,84.92,177.45,85.41Z"/><path d="M271.78,57.14c8.5,9.6,10,19.71,6.57,30.18-1.57-6.65-5-13.09-14.55-18.82-5.25,1.81-11.46,3.38-16.6,4.67a55.11,55.11,0,0,0,9.67-9.93A150.84,150.84,0,0,0,271.78,57.14Z"/><path d="M282.64,33.8C298.3,49,303.15,67.24,298,85.87c-1.5-15.5-8-29-22.67-39.11-3.91,1.83-7.21,3.5-10.93,5a31.48,31.48,0,0,0,3.92-11.56C273.35,38.13,277.44,36.22,282.64,33.8Z"/><path d="M238.57,50.87c2.66-.74,5.37-1.56,8.11-2.46a19.84,19.84,0,0,1-2.43,10.44c-3.07.92-6.09,1.72-9,2.42A25.93,25.93,0,0,0,238.57,50.87Z"/></svg>