<svg id="Layer_1" data-name="Layer 1" xmlns="http://www.w3.org/2000/svg" viewBox="0 0 300 100"><path d="M150,74.48,159,88.42s4.34-21.78,16.16-38.09c8.08-11.15,12.8-13.7,12.8-13.7l1.91,3.25a32.15,32.15,0,0,1,9.12-5.34,20.36,20.36,0,0,0-3.52-8.13S184.33,26,170,42.43c-10.91,12.48-14.24,21.83-14.24,21.83L150,55.9h0l-5.76,8.36S140.92,54.91,130,42.43c-14.34-16.41-25.44-16-25.44-16a20.2,20.2,0,0,0-3.51,8.13,32.1,32.1,0,0,1,9.11,5.34l1.92-3.25s4.72,2.55,12.8,13.7C136.7,66.64,141,88.42,141,88.42l9-13.94Z"/><path d="M150,43.32s6.17,7.2,8.56,10.68a44.49,44.49,0,0,1,7-10.21A108.5,108.5,0,0,0,150,16a108.53,108.53,0,0,0-15.6,27.75,44.52,44.52,0,0,1,7,10.21C143.82,50.52,150,43.32,150,43.32Z"/><path d="M161.75,90s4.8-23.69,21.6-40.87c14.1-14.44,26.39-16.73,44.14-11.61,20.16,5.8,28.64,1.85,28.64,1.85s-9.6,8.37-28.64,7S193.9,55.87,184.78,68.4,161.75,90,161.75,90Z"/><path d="M138.25,90s-4.8-23.69-21.6-40.87C102.54,34.69,90.25,32.4,72.5,37.52c-20.15,5.8-28.63,1.85-28.63,1.85s9.6,8.37,28.63,7,33.59,9.53,42.71,22.06S138.25,90,138.25,90Z"/><path d="M196.27,60.32a25.45,25.45,0,0,1,7.83-6l2.24,5.57a30.48,30.48,0,0,1,20.48-9.6c12.9-.62,27-1.86,35.51-4.8a35.82,35.82,0,0,0,13.54-8.36,34.3,34.3,0,0,0,9.57,9.52c6.32,4.18,14.56,5.92,14.56,5.92a41.93,41.93,0,0,1-17.68.58c-9-1.85-10.48-5.22-10.48-5.22S268,52.5,258.33,54.82a247.69,247.69,0,0,1-30.15,5.81c-16.72,2.08-23.84,20.78-23.84,20.78Z"/><path d="M103.73,60.32a25.48,25.48,0,0,0-7.84-6l-2.24,5.57a30.47,30.47,0,0,0-20.47-9.6c-12.91-.62-27-1.86-35.51-4.8a35.82,35.82,0,0,1-13.54-8.36,34.3,34.3,0,0,1-9.57,9.52C8.24,50.87,0,52.61,0,52.61a41.89,41.89,0,0,0,17.67.58c9-1.85,10.48-5.22,10.48-5.22S32,52.5,41.67,54.82a246.94,246.94,0,0,0,30.15,5.81c16.72,2.08,23.83,20.78,23.83,20.78Z"/><path d="M145.43,10s-6.31,2.13-13.11,8.83a51.55,51.55,0,0,0-9.75,12.92,36,36,0,0,1,6.26,6.16,71.1,71.1,0,0,1,6.93-14.52A101.83,101.83,0,0,1,145.43,10Z"/><path d="M154.56,10s6.32,2.13,13.12,8.83a51.85,51.85,0,0,1,9.75,12.92,36,36,0,0,0-6.26,6.16,71.1,71.1,0,0,0-6.93-14.52A101.29,101.29,0,0,0,154.56,10Z"/></svg>