<svg id="Layer_1" data-name="Layer 1" xmlns="http://www.w3.org/2000/svg" viewBox="0 0 300 100"><path d="M152.52,19s1.69,7.59,6,11.86,9.05,6.93,7.67,11.46-9.36,13.07-9.36,13.07c6.29.13,14.7-4.42,21.18-11.73-2.3,8-10.31,15-18.88,18,3.52,6.3,9.56,11.14,17.19,15.07-9.44-2.22-17.65-5.47-23.79-12.13-6.14,6.66-14.35,9.91-23.79,12.13,7.63-3.93,13.67-8.77,17.19-15.07-8.57-3-16.58-10-18.88-18,6.48,7.31,14.89,11.86,21.18,11.73,0,0-8-8.53-9.36-13.07s3.38-7.19,7.67-11.46S152.52,19,152.52,19Z"/><path d="M5.18,25.09C11.06,34.68,21.24,40.72,31.94,45,29.33,52.15,26,56.69,18.69,62.77,32.24,75.21,51.34,79,67,78.94c-19.39,4.93-43.73,2-64.46-13.86C10.76,59.61,17.89,54,21.66,45.75,14.58,41.5,6.92,32.82,5.18,25.09Z"/><path d="M78.21,63.08C63,69.74,43.83,69.14,27,61A38.9,38.9,0,0,0,42.22,40.55a51.23,51.23,0,0,0,21.64,4c.42,6.55,2.36,12.28,6.29,16.93a30.17,30.17,0,0,1-9.2,0,21.72,21.72,0,0,1-5.53-11.2,18.91,18.91,0,0,1-7.52-1.8,26.12,26.12,0,0,1-7.83,10.73C51,65,63.79,65.74,78.21,63.08Z"/><path d="M66.06,69.34a21.12,21.12,0,0,0,7.16-1.64c3.15,5.15,7,8.93,14.23,13.37C79.18,79,71.88,75.38,66.06,69.34Z"/><path d="M105.61,23C95.16,32.44,82.49,39.31,67.85,43.88,74.29,59,84.76,68.85,99,73.74,90,66.36,84.08,57.81,81.51,48c8.59-1.75,16.13-4.79,22.1-9.74a47.73,47.73,0,0,0,3.46,6.61,25.24,25.24,0,0,0,6.08-6.31A79,79,0,0,1,105.61,23Z"/><path d="M118.37,45.91a22.64,22.64,0,0,1-5.4,6.6,63.8,63.8,0,0,0,11.82,9.77A12.22,12.22,0,0,1,118,68.54a25.19,25.19,0,0,1-12.12-13.19,39,39,0,0,0,5.45-4.63,28.52,28.52,0,0,0,5.17-7.17,25.44,25.44,0,0,0,2.27-6.87,43.8,43.8,0,0,1-3.68,4.9,41.71,41.71,0,0,1-6.32,5.88A48.94,48.94,0,0,1,96.4,54.15a42.94,42.94,0,0,0,19.8,21.19A37.29,37.29,0,0,0,134.31,61,82.94,82.94,0,0,1,118.37,45.91Z"/><path d="M150.73,74.41c-6.6,5.69-12.43,8.71-22.56,10.8a12.71,12.71,0,0,1-6.6-3.6,25.73,25.73,0,0,1-10,3.6,19.84,19.84,0,0,1-8.75-5.33c-11.2,7.06-29.6,8.91-44.2,6.39,18,8.85,32.56,3.94,31.77,5.34q-2.3,4.06-8.9,5.59c22.61.14,31.93-6.62,31.52-5.55-.86,2.23-5.37,5.37-11.1,7.29,17.13.53,28.77-10.16,29.31-8.53.41,1.24-1.17,3.82-2.92,5.73C137.75,92.22,145.48,85.42,150.73,74.41Z"/><path d="M299.86,25.09C294,34.68,283.8,40.72,273.1,45c2.61,7.2,5.91,11.74,13.25,17.82C272.8,75.21,253.71,79,238.06,78.94c19.39,4.93,43.73,2,64.46-13.86-8.24-5.47-15.37-11.07-19.13-19.33C290.46,41.5,298.12,32.82,299.86,25.09Z"/><path d="M226.83,63.08C242,69.74,261.21,69.14,278.09,61a39,39,0,0,1-15.27-20.46,51.23,51.23,0,0,1-21.64,4c-.42,6.55-2.36,12.28-6.29,16.93a30.17,30.17,0,0,0,9.2,0,21.72,21.72,0,0,0,5.53-11.2,18.91,18.91,0,0,0,7.52-1.8A26.3,26.3,0,0,0,265,59.21C254.08,65,241.26,65.74,226.83,63.08Z"/><path d="M239,69.34a21.12,21.12,0,0,1-7.16-1.64c-3.15,5.15-7,8.93-14.22,13.37C225.86,79,233.17,75.38,239,69.34Z"/><path d="M199.43,23c10.45,9.49,23.12,16.36,37.76,20.93C230.75,59,220.28,68.85,206,73.74c9-7.38,14.93-15.93,17.5-25.72-8.59-1.75-16.13-4.79-22.1-9.74A47.73,47.73,0,0,1,198,44.89a25.24,25.24,0,0,1-6.08-6.31A79,79,0,0,0,199.43,23Z"/><path d="M186.67,45.91a22.64,22.64,0,0,0,5.4,6.6,63.8,63.8,0,0,1-11.82,9.77A12.22,12.22,0,0,0,187,68.54a25.21,25.21,0,0,0,12.13-13.19,39.07,39.07,0,0,1-5.46-4.63,28.52,28.52,0,0,1-5.17-7.17,25.44,25.44,0,0,1-2.27-6.87,43.8,43.8,0,0,0,3.68,4.9,41.77,41.77,0,0,0,6.33,5.88,48.71,48.71,0,0,0,12.4,6.69,42.9,42.9,0,0,1-19.8,21.19A37.29,37.29,0,0,1,170.73,61,82.94,82.94,0,0,0,186.67,45.91Z"/><path d="M154.31,74.41c6.6,5.69,12.43,8.71,22.56,10.8a12.71,12.71,0,0,0,6.6-3.6,25.79,25.79,0,0,0,10,3.6,19.84,19.84,0,0,0,8.75-5.33c11.2,7.06,29.61,8.91,44.2,6.39-18,8.85-32.56,3.94-31.77,5.34q2.3,4.06,8.9,5.59c-22.61.14-31.93-6.62-31.51-5.55.85,2.23,5.36,5.37,11.1,7.29-17.14.53-28.78-10.16-29.32-8.53-.41,1.24,1.17,3.82,2.92,5.73C167.29,92.22,159.56,85.42,154.31,74.41Z"/></svg>