<svg id="Layer_1" data-name="Layer 1" xmlns="http://www.w3.org/2000/svg" viewBox="0 0 300 100"><path d="M150,65a6.58,6.58,0,0,1-1.9-.28,26.21,26.21,0,0,0-1.59,7.75c-4.59.12-8.37,1-10.71,3.08-1-2.41-.54-5.81.79-9.8-4.82,5.48-7,11-5.66,16.44a12.71,12.71,0,0,1,5.66-3.48,17.62,17.62,0,0,1,10.52-.08c2.78,1,2.89,4.5,2.89,4.5s.11-3.55,2.89-4.5a17.62,17.62,0,0,1,10.52.08,12.71,12.71,0,0,1,5.66,3.48c1.36-5.49-.84-11-5.66-16.44,1.33,4,1.8,7.39.79,9.8-2.34-2.11-6.12-3-10.71-3.08a26.21,26.21,0,0,0-1.59-7.75A6.58,6.58,0,0,1,150,65Z"/><path d="M150,56.88a9.73,9.73,0,0,1-9-6.05c-3.19-7.91,3.27-15.64,3.27-15.64-8,6.76-15.78,11.62-23.52,3.32,0,0-.3,4.27,6.55,9.84,5.46,4.44,6,12.92,6,12.92s2.31-3.14,4.84-1.49,3.65,6.76,3.65,6.76a10.37,10.37,0,0,1,3.79-5.81,7.85,7.85,0,0,0,8.86,0,10.44,10.44,0,0,1,3.8,5.81s1.11-5.1,3.64-6.76,4.84,1.49,4.84,1.49.57-8.48,6-12.92c6.85-5.57,6.55-9.84,6.55-9.84-7.74,8.3-15.48,3.44-23.52-3.32,0,0,6.46,7.73,3.27,15.64A9.73,9.73,0,0,1,150,56.88Z"/><path d="M150,29.56s.07,3.91-4.32,10.43c-2.74,4.06-2.31,9.42.45,11.56a6.41,6.41,0,0,0,7.74,0c2.76-2.14,3.19-7.5.45-11.56C149.93,33.47,150,29.56,150,29.56Z"/><path d="M274.39,68.08c5.94-12.47,14.92-19.17,25.61-22.64-16-2.4-30.47,2.71-43.77,13.87q-22-4.73-41.09,3.55a40,40,0,0,0-18.31-3.08,28.55,28.55,0,0,0,8.78-17c5.61.41,9.78,1.65,12.8,3.56-.79,4.77-3.53,8.83-8.78,12,9.44-2.41,15.13-7,18.31-13-7.31-5.39-17.6-8.5-30.07-10a25.1,25.1,0,0,1-6.4,15.8c-6.65,7.66-6.16,17.62-6.16,17.62,11-2.2,21.05-1,30,3.79,13.37-7.37,28.74-9.55,46.15-6.4,3.7-6.77,11.5-11.7,21-15.88C276.92,56,274.59,62,274.39,68.08Z"/><path d="M229.28,88c1.13-6.31,6-12.82,13-19.44-8.39.08-17.2,2.13-28.74,8.66-8.55-4.7-18.6-5.89-29.92-4.27a16.37,16.37,0,0,0-3.87-10.43s-.53-3.2,3.62-8.42c4.86-6.12,7.15-10,7.44-14.93a19.61,19.61,0,0,0-1.69-8.06s2.09,8.65-8.93,18.61C171,58,170.63,64.88,170.63,64.88a22.56,22.56,0,0,1,6,16c13.47-3.92,25.54-3.11,36,3.08,5.47-5.38,12.31-8.77,20.2-10.59C228.94,77.39,228.81,82.55,229.28,88Z"/><path d="M284.57,37.58s-8.39-9.8-30.28-11.46-29.18,5.57-29.18,5.57c14,1.15,23.45,5.14,32.16,11.42a25.26,25.26,0,0,0-5.85,4,35,35,0,0,0-18.76-.71C229.94,50.59,225.72,54.5,219,58A54.63,54.63,0,0,1,253.8,55.2a50.31,50.31,0,0,1,16.08-10.43s-.8-2.69-6.85-5.3c-5.32-2.29-5.28-6.22.89-7.11C273.75,30.94,284.57,37.58,284.57,37.58Z"/><path d="M230.18,41.05c-7.75-9.33-22.63-18.6-49.58-21.45,1.08,7.31-1.14,13.53-7.89,18.25,7.56-2.69,12.67-6.1,14.59-10.43C204.62,28.59,218.8,33.26,230.18,41.05Z"/><path d="M152.31,19a22.47,22.47,0,0,0,1.79,9.84C158,32.63,163,35.29,169,37.14c5.19-5.21,7.1-11.16,6.1-17.78,0,0-2.88-1.5-11.71-1.46S151,10,151,10c1.35,7.08,6.47,12,17.77,13.35a10.58,10.58,0,0,1-2.58,7.35,26.62,26.62,0,0,1-9.83-4.42C154.58,24.74,153.36,22.05,152.31,19Z"/><path d="M158.56,85.09s3.8-2.91,12.29-.83,12.58.29,12.58.29a5,5,0,0,0-2.83-2.48c10.09-1.51,18-1.15,23.6,1.3a17.14,17.14,0,0,0-9.61,5.51s-10.92,2.78-18.83-.41C164.45,83.9,158.56,85.09,158.56,85.09Z"/><path d="M25.61,68.08C19.67,55.61,10.69,48.91,0,45.44,16,43,30.47,48.15,43.77,59.31q22-4.73,41.09,3.55a40,40,0,0,1,18.31-3.08,28.55,28.55,0,0,1-8.78-17c-5.61.41-9.78,1.65-12.8,3.56.79,4.77,3.53,8.83,8.78,12-9.44-2.41-15.13-7-18.31-13,7.31-5.39,17.6-8.5,30.07-10a25.1,25.1,0,0,0,6.4,15.8c6.65,7.66,6.16,17.62,6.16,17.62-11-2.2-21-1-30,3.79C71.34,65.21,56,63,38.56,66.18c-3.7-6.77-11.5-11.7-21-15.88C23.08,56,25.41,62,25.61,68.08Z"/><path d="M70.72,88c-1.13-6.31-6-12.82-12.95-19.44,8.38.08,17.19,2.13,28.73,8.66,8.55-4.7,18.6-5.89,29.92-4.27a16.37,16.37,0,0,1,3.87-10.43s.53-3.2-3.62-8.42c-4.86-6.12-7.15-10-7.44-14.93a19.68,19.68,0,0,1,1.68-8.06s-2.08,8.65,8.94,18.61c9.12,8.24,9.53,15.17,9.53,15.17a22.53,22.53,0,0,0-6,16C110,77,97.88,77.77,87.39,84c-5.47-5.38-12.31-8.77-20.2-10.59C71.06,77.39,71.2,82.55,70.72,88Z"/><path d="M15.43,37.58s8.39-9.8,30.28-11.46,29.18,5.57,29.18,5.57c-14,1.15-23.45,5.14-32.16,11.42a25.26,25.26,0,0,1,5.85,4,35,35,0,0,1,18.76-.71C70.06,50.59,74.28,54.5,81,58A54.63,54.63,0,0,0,46.2,55.2,50.31,50.31,0,0,0,30.12,44.77s.8-2.69,6.85-5.3c5.32-2.29,5.27-6.22-.89-7.11C26.25,30.94,15.43,37.58,15.43,37.58Z"/><path d="M69.82,41.05c7.75-9.33,22.63-18.6,49.58-21.45-1.08,7.31,1.14,13.53,7.89,18.25-7.56-2.69-12.66-6.1-14.59-10.43C95.38,28.59,81.2,33.26,69.82,41.05Z"/><path d="M147.69,19a22.47,22.47,0,0,1-1.79,9.84c-3.85,3.78-8.93,6.44-14.89,8.29-5.19-5.21-7.1-11.16-6.1-17.78,0,0,2.88-1.5,11.71-1.46S149,10,149,10c-1.35,7.08-6.47,12-17.77,13.35a10.58,10.58,0,0,0,2.58,7.35,26.7,26.7,0,0,0,9.83-4.42C145.42,24.74,146.64,22.05,147.69,19Z"/><path d="M141.43,85.09s-3.79-2.91-12.28-.83-12.58.29-12.58.29a5,5,0,0,1,2.83-2.48c-10.09-1.51-18-1.15-23.6,1.3a17.14,17.14,0,0,1,9.61,5.51s10.92,2.78,18.83-.41C135.55,83.9,141.43,85.09,141.43,85.09Z"/></svg>