<svg id="Layer_1" data-name="Layer 1" xmlns="http://www.w3.org/2000/svg" viewBox="0 0 300 100"><path d="M150,83.6c13,0,27.89,5.87,40,2,0,0-9.29.41-16.09-1s-13.71-3.9-15.53-6.9,4.31-7.22,5-12.58-2.49-10.38-2.49-10.38C160,61.55,156,66.87,150,70.79c-6-3.92-10-9.24-10.89-16.15,0,0-3.17,5-2.49,10.38s6.8,9.58,5,12.58-8.73,5.44-15.53,6.9-16.09,1-16.09,1C122.1,89.47,137,83.6,150,83.6Z"/><path d="M297.21,40.7c-9.45,19.54-29.39,28.92-58.14,29.77C248.85,65,251.8,58,249.15,49.62a11.12,11.12,0,0,1-5.89,6.73c1.9-9.23-3.11-14.87-13.71-17.6,2.52,2.72,3.4,5.14,2.89,7.3-5.67-4.54-12.85-5.58-21.08-4.26,2.95.44,5.07,1.37,6.12,2.92,0,0-13.43,4.26-24.31,1.58s-15-10-15-10a49.9,49.9,0,0,0-18.7,4.26s7.28-4.2,14.11-7.18c7.82-3.4,9.2-10,8-14.23S174.81,10.39,167,10c-13.32-.62-17,8.76-17,8.76S146.33,9.41,133,10c-7.82.36-13.43,5-14.62,9.13s.17,10.83,8,14.23c6.83,3,14.11,7.18,14.11,7.18a49.9,49.9,0,0,0-18.7-4.26s-4.08,7.31-15,10-24.31-1.58-24.31-1.58c1-1.55,3.17-2.48,6.12-2.92-8.23-1.32-15.42-.28-21.08,4.26-.51-2.16.37-4.58,2.89-7.3-10.6,2.73-15.61,8.37-13.71,17.6a11.09,11.09,0,0,1-5.89-6.73C48.2,58,51.15,65,60.93,70.47,32.18,69.62,12.24,60.24,2.79,40.7-6,62.25,6.37,77.22,34.07,87.43c-10.16-5.56-16.54-12-17-19.72C33.42,85.21,53.66,91,76.23,89.86c-16.32-2.29-27.44-7.35-32.64-15.58,17.76,8.88,37.21,11.32,58.14,8,0,0-12.75-2.55-21.25-7.91S68.94,60.91,74.36,56.64c4.48-3.53,11.16-3.53,14.11,0C90.56,59.21,97,64.67,105,68a79.22,79.22,0,0,0,15.64,4.5c-9.73-3.66-15.14-9.6-16.83-17.53A43.54,43.54,0,0,0,121.28,51c-.6,7.38,3.18,13.17,10.88,17.52-5.38-7.93-5.21-16.28,2.21-25.19,10.09.66,13.35,4.45,15.63,11.08,2.28-6.63,5.54-10.42,15.63-11.08,7.41,8.91,7.59,17.26,2.21,25.19,7.7-4.35,11.48-10.14,10.88-17.52a43.54,43.54,0,0,0,17.51,3.89c-1.69,7.93-7.11,13.87-16.83,17.53A79.22,79.22,0,0,0,195,68c8-3.29,14.4-8.75,16.49-11.28,2.95-3.57,9.63-3.57,14.11,0,5.42,4.27,2.38,12.41-6.12,17.76s-21.25,7.91-21.25,7.91c20.93,3.29,40.38.85,58.14-8-5.2,8.23-16.32,13.29-32.64,15.58,22.56,1.15,42.81-4.65,59.16-22.15-.46,7.75-6.85,14.16-17,19.72C293.63,77.22,306,62.25,297.21,40.7ZM150,45.24s-3-5.84-13.61-11.36c-8.27-4.3-9.64-9.12-8.5-12.1,1.81-4.77,9.06-5.32,13.43-3.72,7.14,2.62,8.68,7.79,8.68,7.79s1.54-5.17,8.68-7.79c4.36-1.6,11.62-1,13.43,3.72,1.14,3-.23,7.8-8.5,12.1C153,39.4,150,45.24,150,45.24Z"/><path d="M104.1,23.78s2.29,2.88-1.45,5-12.62.3-11.81-5.9c.93-7.18,13.09-7.85,18.87-4.56s8.75,9.49,5.18,14.84S102.5,42,90.41,39.78a24,24,0,0,1-16-11c-1.92-3.16-7.59-6.25-13.77-4.32-8.89,2.78-3.57,11.14-3.57,11.14s-7.07-2.06-6.2-8.58c.76-5.78,10.45-7.85,10.45-7.85s-14.79.12-20.4,9,3.23,16.43,3.23,16.43-6.63-2.86-9.35-7.48a13.55,13.55,0,0,1-1.61-9.25s-8.08,6.83-4,16.81S45.76,58,45.76,58,26.38,57.15,20,44.89s.23-19.63.23-19.63a34.3,34.3,0,0,0-12.8,8s5.77-11.13,21-17.74C45.61,8,62.42,10,70.35,13.58a24.58,24.58,0,0,1,13.15,13c2.32,5.31,7.7,7.79,15.67,7.44,10-.43,12-6.39,10.62-9.91s-7.25-5.74-11.67-4.59S93.34,25.38,96.7,27a6.37,6.37,0,0,0,6.69-.47A3.32,3.32,0,0,0,104.1,23.78Z"/><path d="M195.9,23.78s-2.3,2.88,1.45,5,12.62.3,11.81-5.9c-.93-7.18-13.09-7.85-18.87-4.56s-8.75,9.49-5.18,14.84S197.5,42,209.59,39.78a24.06,24.06,0,0,0,16-11c1.92-3.16,7.59-6.25,13.77-4.32,8.89,2.78,3.57,11.14,3.57,11.14s7.06-2.06,6.2-8.58c-.76-5.78-10.45-7.85-10.45-7.85s14.79.12,20.4,9-3.23,16.43-3.23,16.43,6.62-2.86,9.35-7.48a13.55,13.55,0,0,0,1.61-9.25s8.08,6.83,4,16.81S254.24,58,254.24,58s19.38-.89,25.72-13.15-.22-19.63-.22-19.63a34.46,34.46,0,0,1,12.8,8s-5.77-11.13-21-17.74c-17.19-7.49-34-5.52-41.93-1.95a24.54,24.54,0,0,0-13.15,13c-2.32,5.31-7.71,7.79-15.67,7.44-10-.43-12-6.39-10.62-9.91s7.25-5.74,11.67-4.59,4.78,5.88,1.42,7.45a6.37,6.37,0,0,1-6.69-.47A3.32,3.32,0,0,1,195.9,23.78Z"/></svg>