<svg id="Layer_1" data-name="Layer 1" xmlns="http://www.w3.org/2000/svg" viewBox="0 0 300 100"><path d="M62.45,88.36S83.67,67.28,97.58,46.24c14.81-22.42,20.55-36,20.55-36L143,10s2.15,17.21-4.06,38.5-15.54,35.1-15.54,35.1A146.08,146.08,0,0,0,133,47.14c1.45-12.15-.48-19.93-.48-19.93L120,27.89S116,36,102.36,52.13,62.45,88.36,62.45,88.36Z"/><path d="M113.43,21.7l-24.86.15a176.4,176.4,0,0,1-17,31.41C55,77.71,43.09,89,43.09,89S60.78,76.81,74.16,60.73A228.91,228.91,0,0,0,92.32,35.14l13.38-.23Z"/><path d="M84.43,33.55H59.58a248.53,248.53,0,0,1-13.86,26.5A165.52,165.52,0,0,1,22.78,89.26S36.48,80.58,46,69.34A145.82,145.82,0,0,0,62.21,45.56h16Z"/><path d="M48.27,26.23S43.49,38,37.43,46.77a117.52,117.52,0,0,1-12.1,14.79S45.72,68.2,72.8,66.69s37-5.73,37-5.73A30.23,30.23,0,0,1,108.33,73a43.62,43.62,0,0,1-7.64,13.74,56.85,56.85,0,0,0,12.42-13.43A46.05,46.05,0,0,0,119.17,59a86.45,86.45,0,0,0,9.39-2.42,49.39,49.39,0,0,0,8.93-3.78A25.7,25.7,0,0,1,141,64.13c.6,6.68-1,18-1,18a81.21,81.21,0,0,0,5.73-23.25c1.11-12.83-1.11-19.32-1.11-19.32S123.31,53.26,84.59,58.09c-31.47,3.93-44.92-2-44.92-2a87.3,87.3,0,0,0,5.57-14.34A103.84,103.84,0,0,0,48.27,26.23Z"/><path d="M21.51,67.9a52.22,52.22,0,0,1-8.45,10.27A129,129,0,0,1,0,88.13s8.44-1.66,14-4.53a109.31,109.31,0,0,0,10-5.89S45.24,81.64,62.13,81A272.11,272.11,0,0,0,90,78.77s-.16,2-2.35,5.17A40.88,40.88,0,0,1,82.05,90s8.6-4.25,13.5-9.91,4.54-10.19,4.54-10.19a154.4,154.4,0,0,1-41.31,3.74A189.61,189.61,0,0,1,21.51,67.9Z"/><path d="M232.75,88.36s-21.22-21.08-35.13-42.12c-14.82-22.42-20.55-36-20.55-36L152.21,10s-2.15,17.21,4.07,38.5,15.53,35.1,15.53,35.1a146.32,146.32,0,0,1-9.56-36.46c-1.45-12.15.48-19.93.48-19.93l12.43.68s4.06,8.15,17.68,24.24S232.75,88.36,232.75,88.36Z"/><path d="M181.77,21.7l24.85.15a176.9,176.9,0,0,0,17,31.41C240.16,77.71,252.1,89,252.1,89S234.42,76.81,221,60.73a228.91,228.91,0,0,1-18.16-25.59l-13.39-.23Z"/><path d="M210.76,33.55h24.86a248.53,248.53,0,0,0,13.86,26.5,165.52,165.52,0,0,0,22.94,29.21s-13.71-8.68-23.18-19.92A145.82,145.82,0,0,1,233,45.56H217Z"/><path d="M246.93,26.23S251.71,38,257.76,46.77a117,117,0,0,0,12.11,14.79s-20.4,6.64-47.48,5.13-37-5.73-37-5.73A30.33,30.33,0,0,0,186.86,73a43.53,43.53,0,0,0,7.65,13.74,57,57,0,0,1-12.43-13.43A45.9,45.9,0,0,1,176,59a86.91,86.91,0,0,1-9.4-2.42,49.47,49.47,0,0,1-8.92-3.78,25.7,25.7,0,0,0-3.5,11.33c-.61,6.68.95,18,.95,18a81.21,81.21,0,0,1-5.73-23.25c-1.12-12.83,1.11-19.32,1.11-19.32s21.35,13.74,60.06,18.57c31.47,3.93,44.93-2,44.93-2A87.84,87.84,0,0,1,250,41.78,103.06,103.06,0,0,1,246.93,26.23Z"/><path d="M273.69,67.9a52.39,52.39,0,0,0,8.44,10.27c5.1,4.68,17.87,10,17.87,10s-13.25-1.66-18.82-4.53a108.71,108.71,0,0,1-10-5.89S250,81.64,233.07,81a272.11,272.11,0,0,1-27.88-2.27s.16,2,2.35,5.17A40.88,40.88,0,0,0,213.15,90s-8.6-4.25-13.5-9.91-4.54-10.19-4.54-10.19a154.35,154.35,0,0,0,41.3,3.74A189.63,189.63,0,0,0,273.69,67.9Z"/></svg>