<svg id="Layer_1" data-name="Layer 1" xmlns="http://www.w3.org/2000/svg" viewBox="0 0 300 100"><path d="M150,72.26s5-14.63,11.88-25.39c7.07-11.08,15.83-19.31,24.31-20.2s11,2,9.62,5.9a15.81,15.81,0,0,1-4.24,6.26s12.15,3.21,34.78,1.42S258,30.78,258,30.78l-14.7-2.68s-6.5,4.83-19.51,6.25-20.64,0-20.64,0,6-7.57-1.7-11.26c-10.46-5-21.77.36-21.77.36s1.13-4.11,9.61-8.58S203.16,10,203.16,10s-7.07-.71-19.23,3.76a71.29,71.29,0,0,0-24.6,14.84A60.41,60.41,0,0,0,150,40.43h0a60.41,60.41,0,0,0-9.33-11.79,71.2,71.2,0,0,0-24.6-14.84C103.91,9.33,96.84,10,96.84,10s5.37.36,13.86,4.83,9.61,8.58,9.61,8.58S109,18.09,98.54,23.09c-7.71,3.69-1.7,11.26-1.7,11.26s-7.63,1.44-20.64,0S56.69,28.1,56.69,28.1L42,30.78s9,7.69,31.67,9.47,34.77-1.42,34.77-1.42a15.81,15.81,0,0,1-4.24-6.26c-1.41-3.93,1.14-6.8,9.62-5.9s17.25,9.12,24.31,20.2C145,57.63,150,72.26,150,72.26Z"/><path d="M109.38,40.69a57.46,57.46,0,0,0,7.35,7.68l8.86,7.27s-19.13,2.75-48,.24-49.39-11.2-49.39-11.2S41.61,49,67.44,50,99.11,49,99.11,49c-3.06-2.07-6-4.15-6.7-6.38A84.87,84.87,0,0,0,109.38,40.69Z"/><path d="M190.62,40.69a57.46,57.46,0,0,1-7.35,7.68l-8.86,7.27s19.13,2.75,48,.24,49.38-11.2,49.38-11.2S258.39,49,232.56,50,200.89,49,200.89,49c3.06-2.07,6-4.15,6.7-6.38A84.87,84.87,0,0,1,190.62,40.69Z"/><path d="M143.53,90s2.54-26.46-11.88-45.41c-14-18.38-28.42-15-18.38-6.26,11.88,10.37,17.82,16.45,23.47,27.89A76.39,76.39,0,0,1,143.53,90Z"/><path d="M156.47,90s-2.54-26.46,11.88-45.41c14-18.38,28.42-15,18.38-6.26-11.88,10.37-17.82,16.45-23.47,27.89A76.39,76.39,0,0,0,156.47,90Z"/><path d="M29.19,18s8.2-2.5,26.86-2.41c26.76.13,38.32,6,38.32,6-4.53,1.71-6.51,5.28-3.54,9,0,0-5.65-6-27.43-10.28A130.12,130.12,0,0,0,29.19,18Z"/><path d="M270.81,18s-8.2-2.5-26.86-2.41c-26.76.13-38.31,6-38.31,6,4.52,1.71,6.5,5.28,3.53,9,0,0,5.65-6,27.43-10.28A130.12,130.12,0,0,1,270.81,18Z"/><path d="M245.72,39.8a68.39,68.39,0,0,0,11.11-4.21,26.3,26.3,0,0,0,5.53-3.74s4.42.68,15.9-.84A93.65,93.65,0,0,0,300,25.09S295,31.31,277.46,36A113.92,113.92,0,0,1,245.72,39.8Z"/><path d="M54.28,39.8a68.39,68.39,0,0,1-11.11-4.21,26.3,26.3,0,0,1-5.53-3.74s-4.42.68-15.9-.84A93.65,93.65,0,0,1,0,25.09S5,31.31,22.54,36A113.92,113.92,0,0,0,54.28,39.8Z"/></svg>