<svg id="Layer_1" data-name="Layer 1" xmlns="http://www.w3.org/2000/svg" viewBox="0 0 300 100"><path d="M.71,61.05S18.65,37.43,48.15,26.78s59-1.56,73.16,12.72S138,67.67,138,67.67a19,19,0,0,0,2.16-5.55,51.69,51.69,0,0,0-6.64-22.68A56.92,56.92,0,0,0,118.25,22.5a31,31,0,0,0-22,15.44C89.37,50.3,83.78,60.53,78.83,67A63.86,63.86,0,0,1,67,78.44s-7.55.78-19.35-4.92S26.9,66.51,17,67.8A40.46,40.46,0,0,0,0,74.29a34.27,34.27,0,0,1,17.23-9.08c11.09-2.34,21.54-.26,31.15,3.63a51.45,51.45,0,0,0,17.23,3.64,54.58,54.58,0,0,0,12.75-13c6.37-8.82,10.85-20.65,16.76-28.56,9.49-12.72,24.54-13.76,24.54-13.76s10.48,7.56,16.52,17.92a53.8,53.8,0,0,1,7.32,28.56,43.23,43.23,0,0,1-6.85,14A57.94,57.94,0,0,0,122,48.33c-12.75-13.76-34.46-23.89-64.2-18.69S.71,61.05.71,61.05Z"/><path d="M12.75,60.47S37,39.24,62.49,36.52s41.83,5.74,54.34,18.11a40,40,0,0,1,12,28.81,25.53,25.53,0,0,1-10,5.14A58.91,58.91,0,0,1,105.62,90s-5.07-13.56-22.78-24.27-43.19-9.94-43.19-9.94S62.9,50.41,84,62.09s24.14,22.42,24.14,22.42a44.15,44.15,0,0,0,9.14-.94,23.32,23.32,0,0,0,6.61-2.66A38.65,38.65,0,0,0,112,57.55C100.9,47,86.38,39.63,62.3,41.38S12.75,60.47,12.75,60.47Z"/><path d="M77,84.61S97.71,63,115.76,60.08,146.39,62,146.39,62a89.62,89.62,0,0,0,2.42-17.46,102.39,102.39,0,0,0-1.18-17.39s-.44,10.37-1.42,15.83c-1.68,9.38-3.31,12.6-3.31,12.6s-10.48-5-31.21,1.36C91.46,63.13,77,84.61,77,84.61Z"/><path d="M114.7,79.84s-.35-7.3-4.51-12.75-7.7-6.09-7.7-6.09,1.83-18.64,12.45-29.16,29.15-12.53,29.15-12.53a7.68,7.68,0,0,1,2.06,2.41,19.13,19.13,0,0,1,1.3,3.4,28.48,28.48,0,0,0,0-7.88,18.78,18.78,0,0,0-1.32-4.67s-2.52-1.67-8.15-2.34a39.93,39.93,0,0,0-12.57.68A64.07,64.07,0,0,1,133.76,12a14.11,14.11,0,0,1,5.78,2.66S123.91,16,111.87,27.56s-13.69,36.1-13.69,36.1,4-.4,9.32,4.4A27.36,27.36,0,0,1,114.7,79.84Z"/><path d="M80.72,18.47a152.21,152.21,0,0,1,20.53-5.06,133.87,133.87,0,0,1,19.83-1.82s-7.22,2.35-12.4,4.54a27.58,27.58,0,0,0-9,5.85,65,65,0,0,0-8.14-2.6A55,55,0,0,0,80.72,18.47Z"/><path d="M143.29,23.37a39.93,39.93,0,0,1,.8,8c0,4.47-.71,11.68-.71,11.68a46,46,0,0,0-4.25-10.13,31.93,31.93,0,0,0-5.66-7.11,19.68,19.68,0,0,1,5.31-2A15.93,15.93,0,0,1,143.29,23.37Z"/><path d="M97.4,58A54.79,54.79,0,0,0,75.94,48.3C61.09,45.23,50.63,49,50.63,49s8.85-2.14,24.51,2.44A65,65,0,0,1,96.76,62.61Z"/><path d="M31.39,60.92s18.35-5.32,44.37,7.66C93.5,77.43,100.9,89.35,100.9,89.35A144.85,144.85,0,0,1,84,78.71,110.45,110.45,0,0,0,50.51,63.13,62.46,62.46,0,0,0,31.39,60.92Z"/><path d="M299.29,61.05s-17.94-23.62-47.44-34.27-59-1.56-73.17,12.72-16.63,28.17-16.63,28.17a18.74,18.74,0,0,1-2.16-5.55,51.53,51.53,0,0,1,6.64-22.68A56.92,56.92,0,0,1,181.75,22.5,31,31,0,0,1,203.7,37.94C210.63,50.3,216.21,60.53,221.17,67A63.52,63.52,0,0,0,233,78.44s7.55.78,19.35-4.92,20.77-7,30.68-5.72a40.46,40.46,0,0,1,17,6.49,34.33,34.33,0,0,0-17.23-9.08c-11.09-2.34-21.54-.26-31.16,3.63a51.41,51.41,0,0,1-17.22,3.64,54.58,54.58,0,0,1-12.75-13c-6.37-8.82-10.85-20.65-16.76-28.56-9.5-12.72-24.54-13.76-24.54-13.76s-10.48,7.56-16.52,17.92a53.8,53.8,0,0,0-7.32,28.56,43.41,43.41,0,0,0,6.84,14A57.91,57.91,0,0,1,178,48.33c12.74-13.76,34.46-23.89,64.19-18.69S299.29,61.05,299.29,61.05Z"/><path d="M287.25,60.47S263,39.24,237.51,36.52s-41.83,5.74-54.34,18.11a40,40,0,0,0-12,28.81,25.53,25.53,0,0,0,10,5.14A59,59,0,0,0,194.38,90s5.07-13.56,22.78-24.27,43.19-9.94,43.19-9.94S237.1,50.41,216,62.09s-24.14,22.42-24.14,22.42a44.09,44.09,0,0,1-9.14-.94,23.14,23.14,0,0,1-6.61-2.66A38.65,38.65,0,0,1,188,57.55C199.1,47,213.62,39.63,237.69,41.38S287.25,60.47,287.25,60.47Z"/><path d="M223,84.61S202.29,63,184.23,60.08,153.61,62,153.61,62a88.74,88.74,0,0,1-2.42-17.46,102.39,102.39,0,0,1,1.18-17.39A157.62,157.62,0,0,0,153.79,43c1.68,9.38,3.3,12.6,3.3,12.6s10.48-5,31.22,1.36C208.54,63.13,223,84.61,223,84.61Z"/><path d="M185.29,79.84s.36-7.3,4.52-12.75,7.7-6.09,7.7-6.09-1.83-18.64-12.45-29.16-29.15-12.53-29.15-12.53a7.78,7.78,0,0,0-2.07,2.41,19.6,19.6,0,0,0-1.29,3.4,28,28,0,0,1,0-7.88,18.52,18.52,0,0,1,1.33-4.67s2.51-1.67,8.14-2.34a39.85,39.85,0,0,1,12.56.68A64.27,64.27,0,0,0,166.23,12a14.21,14.21,0,0,0-5.78,2.66S176.09,16,188.13,27.56s13.69,36.1,13.69,36.1-4-.4-9.33,4.4A27.48,27.48,0,0,0,185.29,79.84Z"/><path d="M219.28,18.47a152.69,152.69,0,0,0-20.53-5.06,133.87,133.87,0,0,0-19.83-1.82s7.22,2.35,12.39,4.54a27.44,27.44,0,0,1,9,5.85,65.45,65.45,0,0,1,8.15-2.6A55,55,0,0,1,219.28,18.47Z"/><path d="M156.71,23.37a39.93,39.93,0,0,0-.8,8c0,4.47.71,11.68.71,11.68a46,46,0,0,1,4.25-10.13,31.93,31.93,0,0,1,5.66-7.11,19.68,19.68,0,0,0-5.31-2A15.93,15.93,0,0,0,156.71,23.37Z"/><path d="M202.6,58a54.7,54.7,0,0,1,21.46-9.73c14.84-3.07,25.31.68,25.31.68s-8.85-2.14-24.52,2.44a65,65,0,0,0-21.61,11.19Z"/><path d="M268.61,60.92s-18.35-5.32-44.37,7.66C206.5,77.43,199.1,89.35,199.1,89.35A145.91,145.91,0,0,0,216,78.71a110.45,110.45,0,0,1,33.51-15.58A62.46,62.46,0,0,1,268.61,60.92Z"/></svg>