<svg id="Layer_1" data-name="Layer 1" xmlns="http://www.w3.org/2000/svg" viewBox="0 0 300 100"><path d="M150,32c-.61,4.34-1.58,8.09-3.28,10.67a20.09,20.09,0,0,1-7.39-5.13c4.39-5.36,5.42-15,4.06-27.56-2.2,11.53-7.24,20.23-14.49,26.72a49.26,49.26,0,0,0,14.85,15.21,21.17,21.17,0,0,1-3.62,5.72c-9.2-3.92-16.23-11.11-21.36-18.91,6.94-5.51,11.16-13.15,13.61-22.18-8.76,9.63-19.9,12.61-32.73,10.92,8,14.7,19.87,27,36.3,36.41A43.22,43.22,0,0,0,125.14,90s4.65-14.4,15.64-17.82C149,69.64,150,86.3,150,86.3s1.05-16.66,9.22-14.12C170.21,75.6,174.86,90,174.86,90a43.22,43.22,0,0,0-10.81-26.11c16.43-9.43,28.31-21.71,36.3-36.41-12.83,1.69-24-1.29-32.73-10.92,2.45,9,6.67,16.67,13.61,22.18-5.12,7.8-12.16,15-21.36,18.91a21.17,21.17,0,0,1-3.62-5.72A49.26,49.26,0,0,0,171.1,36.72c-7.25-6.49-12.29-15.19-14.48-26.72-1.37,12.6-.34,22.2,4,27.56a20.09,20.09,0,0,1-7.39,5.13C151.58,40.11,150.61,36.36,150,32Z"/><path d="M248.54,72.83s24.69-3.45,40.91-37.29C270.65,38,255.23,34.35,244.08,23c5.09,9.48,13.94,17.16,32,20.39A29.64,29.64,0,0,1,258.4,61.82,46.75,46.75,0,0,1,248.54,72.83Z"/><path d="M236.22,66.52a26.74,26.74,0,0,0,6.41-7.44C231.38,52,226.12,34.4,231.14,17.39,221.9,31.52,222.61,54.34,236.22,66.52Z"/><path d="M210.09,84c19.62.52,36.76-7.53,49.43-30.92-12.7-7-20.93-17.59-22.2-33.62-3.83,13.39-1.62,26.14,10.43,37.87C240.91,70.21,227.21,78.29,210.09,84Z"/><path d="M220.67,21c-3.55,15.3-1.82,29.89,6.8,43.53-12.75,14.27-28.22,22.55-46.63,24.37-1.48-10.6-4-15.78-10.86-23,18-7.66,30.54-20.93,39.82-37.64-2.43,8.81-3,16.18-1.73,22.18-5.77,8.4-14.32,14.19-25.34,17.65a32.32,32.32,0,0,1,4.77,9.24,50.83,50.83,0,0,0,29.11-15.46C210.57,48,212.38,34.37,220.67,21Z"/><path d="M51.46,72.83S26.77,69.38,10.55,35.54C29.35,38,44.77,34.35,55.92,23c-5.09,9.48-13.94,17.16-32,20.39A29.64,29.64,0,0,0,41.6,61.82,46.75,46.75,0,0,0,51.46,72.83Z"/><path d="M63.78,66.52a26.74,26.74,0,0,1-6.41-7.44C68.62,52,73.88,34.4,68.86,17.39,78.1,31.52,77.39,54.34,63.78,66.52Z"/><path d="M89.9,84C70.28,84.47,53.16,76.42,40.48,53c12.7-7,20.93-17.59,22.2-33.62C66.51,32.8,64.3,45.55,52.25,57.28,59.09,70.21,72.79,78.29,89.9,84Z"/><path d="M79.33,21c3.55,15.3,1.82,29.89-6.8,43.53,12.75,14.27,28.22,22.55,46.63,24.37,1.48-10.6,4-15.78,10.86-23-18-7.66-30.54-20.93-39.82-37.64,2.44,8.81,3,16.18,1.73,22.18,5.77,8.4,14.32,14.19,25.34,17.65a32.32,32.32,0,0,0-4.77,9.24A50.86,50.86,0,0,1,83.39,61.82C89.44,48,87.62,34.37,79.33,21Z"/></svg>