<svg id="Layer_1" data-name="Layer 1" xmlns="http://www.w3.org/2000/svg" viewBox="0 0 300 100"><path d="M150,78.91a50.09,50.09,0,0,1,7.27-23.41,14.06,14.06,0,0,1,8.61,3,121.49,121.49,0,0,0-2.08,28.81c11.32-9,26.66-13,46.37-11.6a80.29,80.29,0,0,0-34.35-4c.15-20,6.57-39.44,19.6-58.4C187.32,10.16,179.07,9,170.55,11a55.65,55.65,0,0,0-8.64,29.09c3.32-10.26,7.6-17.94,12.85-23a20.33,20.33,0,0,1,7.59,1.48c-6.11,8.6-11.56,18-13.86,29.72-3-2.37-5.71-3.13-10.38-3.37-4.2-5.62-7.86-14.41-8.11-26.56-.25,12.15-3.91,20.94-8.11,26.56-4.67.24-7.42,1-10.38,3.37-2.3-11.77-7.75-21.12-13.86-29.72a20.29,20.29,0,0,1,7.59-1.48c5.24,5,9.53,12.72,12.85,23A55.65,55.65,0,0,0,129.45,11c-8.52-2-16.77-.86-24.87,2.32,13,19,19.45,38.44,19.6,58.4a80.29,80.29,0,0,0-34.35,4c19.71-1.44,35,2.57,46.37,11.6a121.49,121.49,0,0,0-2.08-28.81,14.06,14.06,0,0,1,8.61-3A50.09,50.09,0,0,1,150,78.91Z"/><path d="M59.91,46.85A88.34,88.34,0,0,1,86.3,42.56c.41-11.62-4.13-21.52-12.64-30-17.36.27-30,5.53-38.89,14.86C44.68,38.17,50,48.64,49,58.69a64.08,64.08,0,0,0-25.29,15.5c-4-10-11-16.88-20.23-21.51C15.08,63.21,20.94,75.6,20.55,90c8.59-12.71,20.71-21.57,37-25.93C57.92,50.49,55,38.26,47.1,28a38.36,38.36,0,0,1,22.76-7.28,25.75,25.75,0,0,1,7,12,127,127,0,0,0-19.89,4.52A26,26,0,0,1,59.91,46.85Z"/><path d="M42.1,43.7a53.18,53.18,0,0,0-11.44,6.14q-6.42-11.28-15.8-17.08C19.88,24.44,31,18,46.15,12.84,26.72,15.87,10.85,22.45,0,34,13.85,41.8,22.94,52.17,27.5,65A102.52,102.52,0,0,1,45.38,53.18,28.66,28.66,0,0,0,42.1,43.7Z"/><path d="M36.35,85.36c5-6.37,12.52-11.75,24-15.6,1.51-4.07,2-9,1.48-15q11.9-6.49,31.61-7a53.11,53.11,0,0,0-9.91-34.78C95,22.23,102.31,35.79,103.79,55.42c-12-.68-23.1.79-32.87,5.7a27.51,27.51,0,0,1-3.16,14.12A59.07,59.07,0,0,0,36.35,85.36Z"/><path d="M108.59,86.36a74.66,74.66,0,0,0-42.36,2.69c5.4-7.32,9.08-15.31,9.32-24.67,9.67-4,20.66-5.47,33.2-3.95,1.66-12.38-.16-23.82-5.54-34.31,8.86,9.5,13.43,22.76,13.28,40.16-14.41-.13-26.23.86-33.19,4a25,25,0,0,1-3.48,10.6C89.42,79,99,81.56,108.59,86.36Z"/><path d="M240.09,46.85a88.34,88.34,0,0,0-26.39-4.29c-.41-11.62,4.13-21.52,12.64-30,17.36.27,30,5.53,38.89,14.86C255.32,38.17,250.05,48.64,251,58.69a64.08,64.08,0,0,1,25.29,15.5c4-10,11-16.88,20.23-21.51C284.92,63.21,279.06,75.6,279.45,90c-8.59-12.71-20.72-21.57-37-25.93-.38-13.58,2.57-25.81,10.44-36a38.36,38.36,0,0,0-22.76-7.28,25.67,25.67,0,0,0-7,12,127,127,0,0,1,19.89,4.52A25.78,25.78,0,0,0,240.09,46.85Z"/><path d="M257.9,43.7a53.18,53.18,0,0,1,11.44,6.14q6.42-11.28,15.8-17.08c-5-8.32-16.18-14.73-31.29-19.92,19.42,3,35.3,9.61,46.15,21.18-13.85,7.78-22.94,18.15-27.5,31a102.52,102.52,0,0,0-17.88-11.84A28.66,28.66,0,0,1,257.9,43.7Z"/><path d="M263.64,85.36c-5-6.37-12.51-11.75-24-15.6-1.51-4.07-2.05-9-1.48-15q-11.89-6.49-31.61-7a53.11,53.11,0,0,1,9.91-34.78C205,22.23,197.69,35.79,196.21,55.42c12-.68,23.09.79,32.87,5.7a27.51,27.51,0,0,0,3.16,14.12A59,59,0,0,1,263.64,85.36Z"/><path d="M191.41,86.36a74.66,74.66,0,0,1,42.36,2.69c-5.4-7.32-9.08-15.31-9.32-24.67-9.67-4-20.66-5.47-33.2-3.95-1.66-12.38.15-23.82,5.54-34.31-8.86,9.5-13.43,22.76-13.28,40.16,14.41-.13,26.23.86,33.19,4a25,25,0,0,0,3.48,10.6C210.58,79,201,81.56,191.41,86.36Z"/></svg>