<svg id="Layer_1" data-name="Layer 1" xmlns="http://www.w3.org/2000/svg" viewBox="0 0 300 100"><path d="M150,44.21s.4-1.76,3-2.35,8.32,2.15,14.13,5.38,17.75,3.95,22-3.91c3.91-7.22-2.13-14.12-8.21-14.18-6.54-.07-8.44,3.32-8.44,3.32s9.69-1.66,9.24,5.58c-.27,4.22-8.67,7.24-18.36-.3C154.3,30.69,150,17.61,150,17.61h0s-4.3,13.08-13.39,20.14c-9.69,7.54-18.09,4.52-18.36.3-.45-7.24,9.24-5.58,9.24-5.58s-1.9-3.39-8.44-3.32c-6.08.06-12.12,7-8.21,14.18,4.26,7.86,16.19,7.14,22,3.91s11.52-6,14.14-5.38,3,2.35,3,2.35Z"/><path d="M71.44,57.86S55,56.16,32.38,65C8.07,74.54,0,84.59,0,84.59s12-9.13,34.05-15.65,37.62-5.35,37.62-5.35A24.46,24.46,0,0,1,71.44,57.86ZM191.77,19.19c-16.87-.78-23.48,9.19-23.48,9.19s18.31-10.3,26.45,4.5c5.48,10-3.75,22.11-20.3,23.67-16.11,1.52-24-7.69-24.43-8.19v0h0v0c-.42.5-8.32,9.71-24.44,8.19C109,55,99.78,42.86,105.26,32.88c8.13-14.8,26.45-4.5,26.45-4.5s-6.61-10-23.48-9.19S76.3,34.25,73.57,49.7,75.46,74.8,81,81.2C86.79,87.85,91.81,90,91.81,90l10.26-17.6a31.78,31.78,0,0,0-7.87-7.14,52.33,52.33,0,0,0-8-4.41,20.75,20.75,0,0,0,1.83,6.26l7.29,5.19-2.62,3.81s-6.73-4-8.21-16.43c-1.37-11.48,6.16-19.46,6.16-19.46A31.72,31.72,0,0,0,106.4,60.36a48.26,48.26,0,0,0,19.28,6.07,34.52,34.52,0,0,0,9.83,11,53.92,53.92,0,0,0,12.39,6.65s-7.07-4.69-10.56-10.3c-2.22-3.56-2.67-6.09-2.69-7.47,1.46-.14,2.84-.34,4.13-.55,7.46-1.23,11-4.75,11.22-5,.19.2,3.76,3.72,11.22,5,1.29.21,2.67.41,4.13.55,0,1.38-.47,3.91-2.69,7.47-3.49,5.61-10.56,10.3-10.56,10.3a53.92,53.92,0,0,0,12.39-6.65,34.65,34.65,0,0,0,9.83-11,48.3,48.3,0,0,0,19.28-6.07,31.76,31.76,0,0,0,15.73-20.14s7.52,8,6.15,19.46c-1.47,12.38-8.2,16.43-8.2,16.43l-2.62-3.81L212,67.11a20.46,20.46,0,0,0,1.82-6.26,52.6,52.6,0,0,0-8,4.41,31.78,31.78,0,0,0-7.87,7.14L208.19,90s5-2.15,10.79-8.8c5.56-6.4,10.19-16,7.45-31.5S208.65,20,191.77,19.19ZM267.62,65c-22.65-8.87-39.06-7.17-39.06-7.17a24.46,24.46,0,0,1-.23,5.73s15.58-1.17,37.62,5.35S300,84.59,300,84.59,291.93,74.54,267.62,65Z"/><path d="M107.84,89.71s.46-6.06,3.31-10.07a17.44,17.44,0,0,1,5.59-5.38s-5.25-11.05-24.63-19.47c-14.75-6.4-31-6.25-47.65-3.12s-24.63,8.41-24.63,8.41S19.37,47.54,34.2,30.93C48.59,14.81,60,10,60,10S39.35,16.87,22.34,38C9.68,53.68,13.45,68.29,13.45,68.29s15.43-8.2,31.46-11.54,33.52-3.33,45.38,2.54a67.27,67.27,0,0,1,19.15,14.28s-1.6,1.37-2.62,5.87S107.84,89.71,107.84,89.71Z"/><path d="M192.15,89.71s-.45-6.06-3.3-10.07a17.44,17.44,0,0,0-5.59-5.38s5.25-11.05,24.62-19.47c14.76-6.4,31-6.25,47.66-3.12s24.62,8.41,24.62,8.41.47-12.54-14.36-29.15C251.41,14.81,240,10,240,10s20.61,6.87,37.63,28c12.66,15.71,8.89,30.32,8.89,30.32s-15.43-8.2-31.47-11.54-33.51-3.33-45.37,2.54a67.09,67.09,0,0,0-19.15,14.28s1.59,1.37,2.62,5.87S192.15,89.71,192.15,89.71Z"/></svg>