<svg id="Layer_1" data-name="Layer 1" xmlns="http://www.w3.org/2000/svg" viewBox="0 0 300 100"><path d="M158.48,60.91c-11.33-6.25-11.93-16.47-11.93-16.47s-.6,10.22-11.93,16.47c-19.3,10.64-9.31,22.56-9.31,22.56s-1.33-9.88,11.13-9.36C145.6,74.49,146.55,90,146.55,90s.95-15.51,10.11-15.89c12.47-.52,11.13,9.36,11.13,9.36S177.78,71.55,158.48,60.91Zm-.9,8.92-1.37,0a15.72,15.72,0,0,0-9.66,3.57,15.72,15.72,0,0,0-9.66-3.57l-1.37,0a28.24,28.24,0,0,0-3.86.25,23.24,23.24,0,0,1,7.47-6,30.78,30.78,0,0,0,7.42-5.62A30.78,30.78,0,0,0,154,64.1a23.13,23.13,0,0,1,7.47,6A28,28,0,0,0,157.58,69.83Z"/><path d="M146.55,27s6.24-.14,10.1,4.26c5,5.66-3.18,22.57-3.18,22.57,13.21-9.61,20.27-18.34,16.13-26.12-11.06-2.62-18.59-8.69-23-17.74-4.46,9.05-12,15.12-23.05,17.74-4.14,7.78,2.92,16.51,16.13,26.12,0,0-8.15-16.91-3.18-22.57C140.31,26.89,146.55,27,146.55,27Z"/><path d="M80,48.64c5.42-7.72,14.76-13.33,25.34-12.36-.18,6.69,5.19,13,14.77,17.74-14.31,10.08-12.45,21.28-.68,30.23-7.5-11.38-7.4-21.62,13.17-28.81-11.75-7.56-19.49-15.92-17.49-26.26-20.32-2.56-35.62,2.13-43.91,14.1C74,45.4,76.74,47.59,80,48.64Z"/><path d="M65.76,55.54a47.73,47.73,0,0,0-1.34,8,50.5,50.5,0,0,0-25.89,2.84c-2.81-7.62-10-13-20.21-16.89,0,0,6.81-7.24,22-6.53s26.8,11.49,38.38,14.9,16.35,4,16.35,4C89,70.1,94.21,78.26,104.4,86.38,99.34,77.1,97.58,68,108,59.41c0,0-18.85,0-35-10.78S39.44,30.88,18.77,38C3.46,43.24-.08,52.31-.08,52.31,22.23,56,31.21,66,30.35,80.56,44.3,70.83,59.85,68,76.91,71.62a19.37,19.37,0,0,1-1.57-12.1A50.07,50.07,0,0,1,65.76,55.54Z"/><path d="M87.27,62.32c-1.94,7.28.9,14.8,8,22.49C76.57,76.57,57.72,77.18,38.76,86,51.7,75.87,66.65,72.51,82.82,75A21.86,21.86,0,0,1,80,60.83,36,36,0,0,0,87.27,62.32Z"/><path d="M83.31,51.12A24.59,24.59,0,0,1,99.4,39.68c.09,6.15,4.07,11.36,15,14.91-7.43.28-14.45-.15-19.31-4.26a35.89,35.89,0,0,0-3.51,3.8A28,28,0,0,1,83.31,51.12Z"/><path d="M62,38.07A44.34,44.34,0,0,1,94.17,25.49c-18-2.82-34.32,1-43.23,8.8A38.89,38.89,0,0,1,62,38.07Z"/><path d="M40.13,60.85a43.41,43.41,0,0,1,16.34-.16A14.31,14.31,0,0,1,54.81,50,34,34,0,0,0,44.12,46.4,17.71,17.71,0,0,0,44,52.31a88.13,88.13,0,0,0-9.8,2.07A18.64,18.64,0,0,1,40.13,60.85Z"/><path d="M17.47,61.83a41.82,41.82,0,0,0-8,7.09,18.6,18.6,0,0,1-12-13.2C-5.69,65.62-.53,73.83,14,80.13a28.38,28.38,0,0,1,9-11.66A12.56,12.56,0,0,0,17.47,61.83Z"/><path d="M-2.81,47.91c-1.39-10.43,4.08-19.3,19.31-26-6.77,5.24-8.34,10.44-5.45,15.61C5.17,39.82.39,43.13-2.81,47.91Z"/><path d="M23.54,34C31.66,23.92,43.2,17.75,59.42,15.84,46.86,20.77,42.2,26.65,42.39,33,35.24,31.88,27.85,32.3,23.54,34Z"/><path d="M213.14,48.64c-5.42-7.72-14.76-13.33-25.34-12.36C188,43,182.61,49.24,173,54c14.31,10.08,12.44,21.28.68,30.23,7.5-11.38,7.4-21.62-13.18-28.81C172.3,47.88,180,39.52,178,29.18c20.33-2.56,35.63,2.13,43.91,14.1C219.14,45.4,216.37,47.59,213.14,48.64Z"/><path d="M227.34,55.54a47.73,47.73,0,0,1,1.34,8,50.47,50.47,0,0,1,25.89,2.84c2.81-7.62,10-13,20.22-16.89,0,0-6.82-7.24-22-6.53S226,54.44,214.37,57.85s-16.35,4-16.35,4c6.07,8.28.87,16.44-9.31,24.56,5-9.28,6.82-18.41-3.64-27,0,0,18.86,0,35-10.78S253.66,30.88,274.33,38c15.31,5.26,18.86,14.33,18.86,14.33C270.87,56,261.89,66,262.75,80.56c-13.94-9.73-29.5-12.56-46.56-8.94a19.37,19.37,0,0,0,1.57-12.1A49.8,49.8,0,0,0,227.34,55.54Z"/><path d="M205.84,62.32c1.93,7.28-.91,14.8-8.05,22.49,18.74-8.24,37.59-7.63,56.56,1.14C241.4,75.87,226.46,72.51,210.29,75a21.91,21.91,0,0,0,2.86-14.19A36,36,0,0,1,205.84,62.32Z"/><path d="M209.79,51.12a24.59,24.59,0,0,0-16.08-11.44c-.09,6.15-4.08,11.36-15,14.91,7.44.28,14.45-.15,19.31-4.26a36,36,0,0,1,3.52,3.8A28.11,28.11,0,0,0,209.79,51.12Z"/><path d="M231.1,38.07a44.34,44.34,0,0,0-32.17-12.58c18-2.82,34.32,1,43.23,8.8A38.89,38.89,0,0,0,231.1,38.07Z"/><path d="M253,60.85a43.41,43.41,0,0,0-16.34-.16A14.36,14.36,0,0,0,238.3,50,33.79,33.79,0,0,1,249,46.4a18,18,0,0,1,.13,5.91,87.65,87.65,0,0,1,9.8,2.07A18.74,18.74,0,0,0,253,60.85Z"/><path d="M275.63,61.83a41.52,41.52,0,0,1,8,7.09,18.6,18.6,0,0,0,12-13.2c3.11,9.9-2.05,18.11-16.58,24.41a28.29,28.29,0,0,0-9-11.66A12.6,12.6,0,0,1,275.63,61.83Z"/><path d="M295.91,47.91c1.39-10.43-4.08-19.3-19.31-26,6.78,5.24,8.35,10.44,5.45,15.61C287.94,39.82,292.71,43.13,295.91,47.91Z"/><path d="M269.56,34c-8.11-10.09-19.66-16.26-35.88-18.17,12.57,4.93,17.22,10.81,17,17.17C257.87,31.88,265.25,32.3,269.56,34Z"/></svg>