<svg id="Layer_1" data-name="Layer 1" xmlns="http://www.w3.org/2000/svg" viewBox="0 0 300 100"><path d="M143.68,12a99.85,99.85,0,0,0-22,8.49C111.27,26.26,109,31.35,109,31.35a97.33,97.33,0,0,1,24.92,7.93C144.87,44.35,148,50,148,50s-.51-7.11-10.28-13.49a65.05,65.05,0,0,0-16.36-7.63s1.18-3.84,7.32-8.49A77.24,77.24,0,0,1,143.68,12Z"/><path d="M156.32,12a99.85,99.85,0,0,1,22,8.49C188.73,26.26,191,31.35,191,31.35a97.33,97.33,0,0,0-24.92,7.93C155.13,44.35,152,50,152,50s.51-7.11,10.28-13.49a65.05,65.05,0,0,1,16.36-7.63s-1.18-3.84-7.32-8.49A77.24,77.24,0,0,0,156.32,12Z"/><path d="M31.25,78s.35-8.49,10.8-20.75c7.25-8.51,20.56-14,20.56-14s19.45,1.43,45,11.7c24.58,9.9,31.36,19.81,31.36,19.81s-9.83-8.44-36.48-17.35a152.45,152.45,0,0,0-38.09-7.74,60.43,60.43,0,0,0-16.73,9.81C39.2,66.45,31.25,78,31.25,78Z"/><path d="M268.75,78s-.35-8.49-10.8-20.75c-7.25-8.51-20.56-14-20.56-14s-19.45,1.43-45,11.7c-24.58,9.9-31.37,19.81-31.37,19.81s9.84-8.44,36.49-17.35a152.45,152.45,0,0,1,38.09-7.74,60.43,60.43,0,0,1,16.73,9.81C260.79,66.45,268.75,78,268.75,78Z"/><path d="M89,54.62c-1.12,1-2.23,2-3.32,3.11A115.59,115.59,0,0,0,66.62,82.21s1.82-12,13.06-25.89c.89-1.09,1.78-2.14,2.68-3.15A61.29,61.29,0,0,1,89,54.62Z"/><path d="M88,47.4A92.75,92.75,0,0,1,104.25,35,97.63,97.63,0,0,1,129.87,43c12.14,5.9,17.77,14.43,17.77,14.43s-5.85-5.71-16.73-9.91c-13.59-5.23-22.48-6.36-22.48-6.36A102.37,102.37,0,0,0,95.35,49.5C93,48.73,90.51,48,88,47.4Z"/><path d="M211,54.62c1.12,1,2.23,2,3.31,3.11a115.45,115.45,0,0,1,19.08,24.48s-1.83-12-13.06-25.89c-.89-1.09-1.78-2.14-2.68-3.15A61.29,61.29,0,0,0,211,54.62Z"/><path d="M212,47.4A92.75,92.75,0,0,0,195.75,35,97.63,97.63,0,0,0,170.13,43c-12.15,5.9-17.77,14.43-17.77,14.43s5.85-5.71,16.73-9.91c13.59-5.23,22.48-6.36,22.48-6.36a102.37,102.37,0,0,1,13.08,8.32C207,48.73,209.49,48,212,47.4Z"/><path d="M108.92,41.89C130.69,53,139.46,62.75,139.46,62.75s-10.82-8.46-34.92-18.36A38.87,38.87,0,0,1,108.92,41.89Z"/><path d="M94.57,40.52l-1.11-.41C69.7,31.46,56.61,29.92,56.61,29.92a52.84,52.84,0,0,0-13.33,6.65A90,90,0,0,0,30,48.18s.59-5.11,8.62-13.31c6.31-6.43,17.52-11,17.52-11s17.52,2.5,40.51,12.31L99,37.2A43.6,43.6,0,0,0,94.57,40.52Z"/><path d="M191.07,41.89C169.31,53,160.54,62.75,160.54,62.75s10.82-8.46,34.91-18.36A37.18,37.18,0,0,0,191.07,41.89Z"/><path d="M205.54,40.49l1-.38c23.76-8.65,36.85-10.19,36.85-10.19a52.84,52.84,0,0,1,13.33,6.65,90,90,0,0,1,13.33,11.61s-.59-5.11-8.63-13.31c-6.3-6.43-17.51-11-17.51-11s-17.52,2.5-40.51,12.31L201,37.2A48.15,48.15,0,0,1,205.54,40.49Z"/><path d="M263.81,43a111.47,111.47,0,0,0-18.29,3.46A47.67,47.67,0,0,0,238.9,43s10.42-1.55,22.53-2A13.34,13.34,0,0,1,263.81,43Z"/><path d="M267.24,40.87h1.39A227.17,227.17,0,0,1,300,43.7s-19.33-1.85-31.72-1.08A7.55,7.55,0,0,0,267.24,40.87Z"/><path d="M36.18,43a111.46,111.46,0,0,1,18.3,3.46A47.67,47.67,0,0,1,61.1,43s-10.42-1.55-22.53-2A13.79,13.79,0,0,0,36.18,43Z"/><path d="M32.76,40.87H31.37A227.17,227.17,0,0,0,0,43.7s19.32-1.85,31.72-1.08A7.55,7.55,0,0,1,32.76,40.87Z"/><path d="M192.37,31s15.18-5.88,39.48-8a313.33,313.33,0,0,1,42.34-1s-14.88-2.84-43.64-1.13a251.32,251.32,0,0,0-41.82,5.81A26,26,0,0,1,192.37,31Z"/><path d="M107.63,31s-15.18-5.88-39.48-8a313.33,313.33,0,0,0-42.34-1s14.87-2.84,43.64-1.13a251.32,251.32,0,0,1,41.82,5.81A26,26,0,0,0,107.63,31Z"/><path d="M105,59.17A65.76,65.76,0,0,0,93.75,69.42c-6.85,7.8-8.87,14.73-8.87,14.73a74.8,74.8,0,0,1,13.4-13.41,70,70,0,0,1,14.9-8.44A55.94,55.94,0,0,0,105,59.17Z"/><path d="M195,59.17a65.76,65.76,0,0,1,11.27,10.25c6.85,7.8,8.87,14.73,8.87,14.73a74.8,74.8,0,0,0-13.4-13.41,70,70,0,0,0-14.9-8.44A55.94,55.94,0,0,1,195,59.17Z"/><path d="M132.25,71.06a105.82,105.82,0,0,0-13.52,3.87c-12,4.28-17.23,10.31-17.23,10.31s1.78-5.09,12-10.9a57.48,57.48,0,0,1,14.8-5.5A36.64,36.64,0,0,1,132.25,71.06Z"/><path d="M132.5,67.87c1.68-.33,3.89-.73,5.59-1,9.48-1.66,9.93-6.79,9.93-6.79s1.81,5.6-6,8.49a52.92,52.92,0,0,1-6.35,1.81A35,35,0,0,0,132.5,67.87Z"/><path d="M167.75,71.06a105.82,105.82,0,0,1,13.52,3.87c12,4.28,17.23,10.31,17.23,10.31s-1.78-5.09-12-10.9a57.48,57.48,0,0,0-14.8-5.5A36.64,36.64,0,0,0,167.75,71.06Z"/><path d="M167.5,67.87c-1.68-.33-3.89-.73-5.59-1-9.48-1.66-9.93-6.79-9.93-6.79s-1.81,5.6,6,8.49a52.92,52.92,0,0,0,6.35,1.81A33.63,33.63,0,0,1,167.5,67.87Z"/><path d="M150,82.58a21.08,21.08,0,0,1,6.18-3.78,12.36,12.36,0,0,0,4.39-3.33,10.79,10.79,0,0,1-3.19,5.28c-2.39,2.35-4.91,3.1-6.18,5.29a8.29,8.29,0,0,0-1.2,4h0a8.29,8.29,0,0,0-1.2-4c-1.27-2.19-3.79-2.94-6.18-5.29a10.79,10.79,0,0,1-3.19-5.28,12.36,12.36,0,0,0,4.39,3.33A21.08,21.08,0,0,1,150,82.58Z"/><path d="M159.64,19.6A48.18,48.18,0,0,0,150,10h0a48.27,48.27,0,0,0-9.63,9.6c-4.1,5.64-4.27,9.52-4.27,9.52A41,41,0,0,1,145,33.88a19.68,19.68,0,0,1,5,6.88h0a19.63,19.63,0,0,1,5-6.88,41,41,0,0,1,8.87-4.76S163.74,25.24,159.64,19.6Zm-6.9,9.47A10.75,10.75,0,0,0,150,32.81h0a10.69,10.69,0,0,0-2.75-3.74,22.45,22.45,0,0,0-4.83-2.6s.09-2.11,2.33-5.18A26.44,26.44,0,0,1,150,16.05h0a26.44,26.44,0,0,1,5.25,5.24c2.24,3.07,2.33,5.18,2.33,5.18A22.67,22.67,0,0,0,152.74,29.07Z"/><path d="M154.05,70.08A8.22,8.22,0,0,1,150,67.44h0A8.28,8.28,0,0,1,146,70.08c-2.53.66-3.87,2.23-2.44,4.58,1.74,2.88,6.49,4.39,6.49,4.39h0s4.75-1.51,6.49-4.39C157.91,72.31,156.58,70.74,154.05,70.08Zm-1.11,4.18A6.25,6.25,0,0,1,150,76.92a6.25,6.25,0,0,1-2.94-2.66,1.84,1.84,0,0,1,1.11-2.78,4,4,0,0,0,1.83-1.6,4,4,0,0,0,1.83,1.6A1.84,1.84,0,0,1,152.94,74.26Z"/></svg>