<svg id="Layer_1" data-name="Layer 1" xmlns="http://www.w3.org/2000/svg" viewBox="0 0 300 100"><path d="M168.3,39.74c-2-6.36.1-9.33.1-9.33s-4.16,4.33-9.83,4.6A10.06,10.06,0,0,1,150,30.68,10.07,10.07,0,0,1,141.42,35c-5.66-.27-9.82-4.6-9.82-4.6s2.08,3,.1,9.33c-2.5,8-4.26,15.15-2.36,22.32,1.69,6.46,5.54,9.81,10.95,11.63,7.4,2.51,9.71,11.1,9.71,11.1s2.3-8.59,9.71-11.1c5.4-1.82,9.25-5.17,10.95-11.63C172.55,54.89,170.79,47.72,168.3,39.74Zm-2.87,20.6c-1,4-3.15,6.13-7.3,7.53A18.8,18.8,0,0,0,150,73.45a18.92,18.92,0,0,0-8.13-5.58c-4.15-1.4-6.27-3.58-7.31-7.53-1.35-5.12-.18-10.7,2.28-18.59.14-.45.27-.89.38-1.32a17.71,17.71,0,0,0,4,.66h.71a14.36,14.36,0,0,0,8.1-2.47,14.33,14.33,0,0,0,8.09,2.47h.72a17.9,17.9,0,0,0,4-.66c.11.43.24.87.38,1.32C165.62,49.64,166.78,55.22,165.43,60.34Z"/><path d="M152.87,84.72a28.52,28.52,0,0,0,9.63-2C169,80,177,71.53,177,62s-7.82-27.62,8.17-36.52c14.84-8.25,42.69,1.62,58.85,18.06,15.61,15.87,22.83,27.26,22.83,27.26a163.18,163.18,0,0,0-25.73-25.23c-12.5-9.93-40.39-22.12-52.86-14.81-12.63,7.39-5.09,21.61-5.45,31.65s-5.36,18.16-17.07,21.51C156.67,86.5,152.87,84.72,152.87,84.72Z"/><path d="M152.57,88.23s12.47.75,20.1-1.48,14.53-6.49,18.89-11.57,10.54-9.94,19.07-9.94,15.08,5.88,15.08,5.88-7.09-4.46-14.72-3.45-11.81,4.27-18.52,11.16a36.39,36.39,0,0,1-24,11A59.6,59.6,0,0,1,152.57,88.23Z"/><path d="M229.58,71.33a25.39,25.39,0,0,1,22.52-3.25c10.71,3.52,15.33,11.49,22.17,14.74,6.54,3.12,12.1,2.84,17.19,2a18,18,0,0,0,8.54-4s-5.28,7.65-17.26,6.7c-10.17-.81-14.17-5.07-21.43-11.16-7.58-6.35-14.17-7.1-19.43-7.51S229.58,71.33,229.58,71.33Z"/><path d="M171.25,36.66s.93-25.46,23.25-26.58c24.85-1.25,47.4,12.58,59.93,27.8s16.81,26.95,23.35,33.72a28.61,28.61,0,0,0,15.5,7.84s-8.23.82-17-6.22S263.13,54,251,40.21,213.9,13.3,194.1,14.92C174.9,16.49,171.25,36.66,171.25,36.66Z"/><path d="M175,83s9.69-5.55,11.14-16.1-4.36-25.29,2.66-30.16,20.94.32,29.07,11.77c8.35,11.76,8.35,21.1,8.35,21.1s-1.45-9.88-10.78-20.83c-6.59-7.75-19.49-13-24.33-8.53-5.69,5.25-.26,17.17-2.19,27.33C186.63,79.51,175,83,175,83Z"/><path d="M199.07,31.83s18.46.74,38.26,16c17.49,13.44,24,22.18,24,22.18s-8.72-7.17-20.53-6c-9.31,1-11.92,5.14-11.92,5.14s.12-12-9.57-24.48C211.31,34.42,199.07,31.83,199.07,31.83Z"/><path d="M191.38,69.7s2.72-4.06.72-14.4,1.69-13.61,7.45-12.38c5.09,1.08,10.67,4.55,16,11.77,5.08,6.9,6.71,11.57,6.71,11.57s-9-5.69-17.89-3.66S191.38,69.7,191.38,69.7Z"/><path d="M205.12,74s7.14-2.91,14.32-.78a23.77,23.77,0,0,1,8.72,4.67,22.61,22.61,0,0,1,10.26-4.57c6.54-1.21,15.08,1.83,15.08,1.83s-9.81-1.32-16.17,2a19.69,19.69,0,0,0-8.44,9.23,20.88,20.88,0,0,0-9.36-9.64A27.12,27.12,0,0,0,205.12,74Z"/><path d="M180.84,89.59s6.91-.82,15.8-6.9c7.21-4.93,13.16-4.91,20.11-2.84,5.45,1.62,10.05,6.29,4.05,6.29s-10.62-2.44-16.25-2-8.42,1.65-13.35,3.65A28.33,28.33,0,0,1,180.84,89.59Z"/><path d="M276.66,90s-6.89-.81-15.8-6.9c-7.2-4.92-13.15-4.9-20.1-2.83-5.45,1.62-10,6.28-4,6.28s10.62-2.43,16.25-2,8.42,1.65,13.35,3.66A28.16,28.16,0,0,0,276.66,90Z"/><path d="M147.13,84.72a28.48,28.48,0,0,1-9.63-2C131,80,123,71.53,123,62s7.82-27.62-8.17-36.52C100,17.22,72.11,27.09,55.94,43.53,40.34,59.4,33.12,70.79,33.12,70.79A162.63,162.63,0,0,1,58.85,45.56c12.49-9.93,40.38-22.12,52.85-14.81,12.64,7.39,5.09,21.61,5.45,31.65s5.36,18.16,17.08,21.51C143.32,86.5,147.13,84.72,147.13,84.72Z"/><path d="M147.43,88.23S135,89,127.33,86.75s-14.53-6.49-18.89-11.57S97.9,65.24,89.37,65.24s-15.08,5.88-15.08,5.88S81.37,66.66,89,67.67s11.81,4.27,18.53,11.16a36.39,36.39,0,0,0,24,11A59.6,59.6,0,0,0,147.43,88.23Z"/><path d="M70.41,71.33a25.38,25.38,0,0,0-22.52-3.25C37.18,71.6,32.56,79.57,25.73,82.82c-6.54,3.12-12.11,2.84-17.2,2a18,18,0,0,1-8.53-4s5.27,7.65,17.25,6.7c10.18-.81,14.17-5.07,21.44-11.16,7.58-6.35,14.17-7.1,19.43-7.51S70.41,71.33,70.41,71.33Z"/><path d="M128.74,36.66s-.92-25.46-23.24-26.58C80.65,8.83,58.09,22.66,45.56,37.88S28.76,64.83,22.22,71.6a28.61,28.61,0,0,1-15.5,7.84s8.23.82,17-6.22S36.87,54,49,40.21,86.09,13.3,105.89,14.92C125.1,16.49,128.74,36.66,128.74,36.66Z"/><path d="M125,83s-9.68-5.55-11.14-16.1,4.36-25.29-2.66-30.16S90.29,37,82.16,48.47c-8.36,11.76-8.36,21.1-8.36,21.1s1.46-9.88,10.78-20.83c6.6-7.75,19.5-13,24.34-8.53,5.69,5.25.25,17.17,2.18,27.33C113.37,79.51,125,83,125,83Z"/><path d="M100.93,31.83s-18.47.74-38.27,16C45.18,61.23,38.69,70,38.69,70s8.72-7.17,20.52-6c9.32,1,11.93,5.14,11.93,5.14s-.12-12,9.57-24.48C88.69,34.42,100.93,31.83,100.93,31.83Z"/><path d="M108.62,69.7s-2.73-4.06-.73-14.4-1.69-13.61-7.45-12.38c-5.08,1.08-10.66,4.55-16,11.77-5.09,6.9-6.72,11.57-6.72,11.57s9-5.69,17.89-3.66S108.62,69.7,108.62,69.7Z"/><path d="M94.88,74s-7.15-2.91-14.33-.78a23.89,23.89,0,0,0-8.72,4.67,22.53,22.53,0,0,0-10.26-4.57C55,72.14,46.5,75.18,46.5,75.18s9.81-1.32,16.16,2a19.68,19.68,0,0,1,8.45,9.23,20.82,20.82,0,0,1,9.35-9.64A27.15,27.15,0,0,1,94.88,74Z"/><path d="M119.15,89.59s-6.9-.82-15.8-6.9c-7.21-4.93-13.16-4.91-20.1-2.84-5.45,1.62-10,6.29-4.06,6.29s10.63-2.44,16.26-2,8.42,1.65,13.35,3.65A28.26,28.26,0,0,0,119.15,89.59Z"/><path d="M23.33,90s6.9-.81,15.8-6.9c7.21-4.92,13.16-4.9,20.1-2.83,5.45,1.62,10.06,6.28,4.06,6.28s-10.62-2.43-16.26-2-8.41,1.65-13.34,3.66A28.2,28.2,0,0,1,23.33,90Z"/></svg>