<svg id="Layer_1" data-name="Layer 1" xmlns="http://www.w3.org/2000/svg" viewBox="0 0 300 100"><path d="M123.2,70.94c0-28.54,12-51.67,26.8-51.67s26.8,23.13,26.8,51.67q0,3-.18,6a64.94,64.94,0,0,0,3.49-21.31C180.11,30.42,166.63,10,150,10s-30.11,20.42-30.11,45.62a64.68,64.68,0,0,0,3.49,21.31Q123.2,74,123.2,70.94Z"/><path d="M82.29,21.7c2.47-1,5-1.95,7.67-2.77,22-6.81,38-6.31,38-6.31S103,9.69,77.51,18.43Z"/><path d="M69.42,21.62l-1.35.62C38,36.35,31,43.39,23.17,45.14,13.63,47.28,7.49,45,7.49,45s10,8.15,28.94,1.29c11.72-4.24,23.44-13.58,37.75-20.88Z"/><path d="M83.06,54.19c-1.92,2.77-3.82,5.73-5.73,8.89-10.6,17.58-29.7,14.25-29.7,14.25s9.25-1.18,20.07-17.1c1.83-2.68,3.75-5.23,5.73-7.65A31.85,31.85,0,0,0,83.06,54.19Z"/><path d="M80.53,44.53a75.69,75.69,0,0,1,22.42-16,140.24,140.24,0,0,1,17.63-6,84.5,84.5,0,0,0-19.26,11.41A81.68,81.68,0,0,0,89.07,46,32.4,32.4,0,0,1,80.53,44.53Z"/><path d="M99.35,36.91c.28.06.57.1.86.15,18.35,3.09,23.25-14.49,23.25-14.49s-7.37,11.29-19.54,10.57Z"/><path d="M95.91,31.15c-9.62-4-17.4-12.66-27-16.18a38.63,38.63,0,0,0-30.36,1.42s18.56-4.55,29.13,2.85c9.73,6.82,15.57,12,23.27,15.22Z"/><path d="M46.66,31.73a59.9,59.9,0,0,0-18.76-5.1C9.91,25.21,0,33.4,0,33.4s12.58-6.31,27-3c3.84.89,7.7,2.82,12.32,5.35Z"/><path d="M49.54,41.43c8.54,4.72,17.65,9.16,29.13,11.08C101.43,56.31,116,40.15,116,40.15a44.41,44.41,0,0,1-35.57,5.71C71.7,43.52,64.31,40,57.09,36.56Z"/><path d="M71.69,71.39c29.76,3.14,42.14-19.83,42.14-19.83s-10.74,15.83-38,15.52A17.59,17.59,0,0,1,71.69,71.39Z"/><path d="M62.5,65c-10.19-3.11-16.2-9.17-28-11.53a27,27,0,0,0-21,4.27S21.26,53,33.71,56.62c9.77,2.87,15.4,8.36,25.61,11.9A18.34,18.34,0,0,0,62.5,65Z"/><path d="M217.71,21.7c-2.47-1-5-1.95-7.67-2.77-22-6.81-38-6.31-38-6.31S197,9.69,222.49,18.43Z"/><path d="M230.57,21.62l1.36.62C262,36.35,269,43.39,276.82,45.14c9.55,2.14,15.69-.1,15.69-.1s-10,8.15-28.95,1.29c-11.72-4.24-23.44-13.58-37.74-20.88Z"/><path d="M216.94,54.19q2.88,4.16,5.72,8.89c10.61,17.58,29.7,14.25,29.7,14.25s-9.25-1.18-20.07-17.1c-1.82-2.68-3.74-5.23-5.72-7.65A31.91,31.91,0,0,1,216.94,54.19Z"/><path d="M219.47,44.53a75.59,75.59,0,0,0-22.43-16,139.78,139.78,0,0,0-17.62-6,84.5,84.5,0,0,1,19.26,11.41A82.63,82.63,0,0,1,210.93,46,32.48,32.48,0,0,0,219.47,44.53Z"/><path d="M200.65,36.91c-.28.06-.57.1-.86.15-18.36,3.09-23.25-14.49-23.25-14.49s7.37,11.29,19.54,10.57Z"/><path d="M204.08,31.15c9.62-4,17.41-12.66,27-16.18a38.63,38.63,0,0,1,30.36,1.42s-18.57-4.55-29.13,2.85c-9.73,6.82-15.57,12-23.27,15.22Z"/><path d="M253.34,31.73a59.77,59.77,0,0,1,18.75-5.1c18-1.42,27.91,6.77,27.91,6.77s-12.58-6.31-27-3c-3.84.89-7.7,2.82-12.32,5.35Z"/><path d="M250.46,41.43c-8.54,4.72-17.65,9.16-29.13,11.08C198.57,56.31,184,40.15,184,40.15a44.44,44.44,0,0,0,35.58,5.71c8.68-2.34,16.07-5.85,23.28-9.3Z"/><path d="M228.31,71.39c-29.77,3.14-42.14-19.83-42.14-19.83s10.73,15.83,38,15.52A17.59,17.59,0,0,0,228.31,71.39Z"/><path d="M237.5,65c10.18-3.11,16.2-9.17,28-11.53a27,27,0,0,1,21,4.27s-7.71-4.75-20.15-1.11c-9.77,2.87-15.4,8.36-25.61,11.9A18.34,18.34,0,0,1,237.5,65Z"/><path d="M172.74,57c0,14.56-10.59,26.36-22.74,26.36S127.26,71.57,127.26,57c0-1-.76,3.89-.76,7.82C126.5,77.68,136.35,90,150,90s23.5-12.32,23.5-25.17C173.5,60.9,172.74,56,172.74,57Z"/><path d="M112.9,64.82s.49,7.13-9.14,11.09c-7.46,3.07-18.6,1.42-18.6,1.42s15.19,9.16,24.15,5.23C119.43,78.13,112.9,64.82,112.9,64.82Z"/><path d="M187.1,64.82s-.49,7.13,9.14,11.09c7.46,3.07,18.6,1.42,18.6,1.42s-15.2,9.16-24.15,5.23C180.57,78.13,187.1,64.82,187.1,64.82Z"/><path d="M150,66.89c-1.47,5.36-4.42,9-7.83,9a5.46,5.46,0,0,1-3.46-1.33c3.1,4,7,6.32,11.29,6.32s8.19-2.36,11.29-6.32a5.46,5.46,0,0,1-3.46,1.33C154.42,75.91,151.46,72.25,150,66.89Zm18.11-15c0-16-8.11-29-18.11-29s-18.11,13-18.11,29A43.39,43.39,0,0,0,134,65.48a29.72,29.72,0,0,1-.64-6.2c0-9.19,4-16.63,8.82-16.63,3.41,0,6.36,3.66,7.83,9,1.46-5.35,4.42-9,7.83-9,4.87,0,8.81,7.44,8.81,16.63a29.74,29.74,0,0,1-.63,6.2A43.39,43.39,0,0,0,168.11,51.91Z"/></svg>