<svg id="Layer_1" data-name="Layer 1" xmlns="http://www.w3.org/2000/svg" viewBox="0 0 300 100"><path d="M241.42,39.9c-16-1.79-28.88,2.26-39.5,7.54a19.1,19.1,0,0,1,5.93,6c8.73-4.24,19-7.39,31.31-6.45,39.17,3,52,34.1,52,34.1S278.9,44.1,241.42,39.9ZM158.65,56.3c-.63,5,0,9.65,2.26,13.2,0,0,4.62,2.7,17.05.2,5.73-1.15,12.14-5.85,20.41-10.87a21.29,21.29,0,0,0-6-6c-4.13,2.49-7.59,4.63-11,6.63C167.38,67.64,158.65,56.3,158.65,56.3ZM37.71,38.47c30.5-15.74,41.52-11.24,41.52-11.24S81.79,36.62,89,39.38c9.43,3.62,36.45-4.18,46.81,4.42S145.21,67,137.86,74c-6.73,6.41-24.1,8-36.91,4-.93-.29-1.8-.6-2.64-.91A29,29,0,0,1,98,63.55c2.11-9.15,10.31-15.3,18.92-16.5a33.21,33.21,0,0,1,15,1.2s-5.5-3.9-14.83-4.35-19.2,3.3-24.57,11.7c-3.25,5.08-4,11.3-4.11,15.44A15.33,15.33,0,0,1,84,62.4c-.75-5,2.08-7.4,2.08-7.4A110.57,110.57,0,0,0,49,59.5C28.45,65.5,17.9,82.2,17.9,82.2S35.61,68.4,55.38,68s26.55,8.4,29.94,13a18,18,0,0,1,3.58,9,33.62,33.62,0,0,1,9.51-2.75c5.09-.6,11.78,1.31,20,1.2,11.73-.15,20.72-2.3,26-6.9a31.14,31.14,0,0,0,5.55-6,31.41,31.41,0,0,0,5.54,6c5.28,4.6,14.27,6.75,26,6.9,8.28.11,15-1.8,20.06-1.2A33.62,33.62,0,0,1,211.1,90a18,18,0,0,1,3.57-9c3.4-4.6,10.18-13.4,30-13S282.1,82.2,282.1,82.2,271.55,65.5,251,59.5a110.57,110.57,0,0,0-37.1-4.5s2.83,2.4,2.07,7.4A15.25,15.25,0,0,1,211.63,71c-.1-4.14-.86-10.36-4.11-15.44-5.37-8.4-15.25-12.15-24.57-11.7s-14.84,4.35-14.84,4.35a33.27,33.27,0,0,1,15-1.2c8.61,1.2,16.81,7.35,18.92,16.5a29,29,0,0,1-.32,13.54c-.84.31-1.71.62-2.64.91-12.81,4-30.18,2.41-36.91-4-7.35-7-8.29-21.6,2.07-30.2S201.59,43,211,39.38c7.19-2.76,9.75-12.15,9.75-12.15s11-4.5,41.52,11.24S300,82.57,300,82.57,299.05,54.2,268.54,33s-60.83-23-60.83-23,4.14,8.4,1.69,14.4c-5.26,12.9-27.3,1.2-44.53,7.65-7,2.6-11.8,6.49-14.87,11.24-3.07-4.75-7.91-8.64-14.87-11.24C117.9,25.6,95.86,37.3,90.6,24.4c-2.45-6,1.69-14.4,1.69-14.4S62,11.8,31.46,33,0,82.57,0,82.57,7.2,54.22,37.71,38.47Zm69.92,14.4a21.32,21.32,0,0,0-6,6c8.28,5,14.69,9.72,20.42,10.87,12.43,2.5,17-.2,17-.2,2.26-3.55,2.89-8.2,2.26-13.2,0,0-8.73,11.34-22.7,3.2C115.22,57.5,111.76,55.36,107.63,52.87ZM60.84,47c12.31-.94,22.57,2.21,31.3,6.45a19.13,19.13,0,0,1,5.94-6c-10.63-5.28-23.5-9.33-39.5-7.54C21.1,44.1,8.86,81.1,8.86,81.1S21.67,50,60.84,47Z"/></svg>