<svg id="Layer_1" data-name="Layer 1" xmlns="http://www.w3.org/2000/svg" viewBox="0 0 300 100"><path d="M154.56,67.8C151.48,59.52,147,52,136.39,45.55c-3.42-11.7-1.27-22,6.79-30.74-10.52,5.51-17.66,13.31-20.37,24.09-10.07-4-21.57-5.75-34.72-4.94a12.26,12.26,0,0,0,.18,7.26,42.54,42.54,0,0,1,7.87,1.88c23.8.83,43.21,12.81,58.42,43.28C169.77,55.91,189.18,43.93,213,43.1a42.63,42.63,0,0,1,7.86-1.88A12.18,12.18,0,0,0,221,34c-13.15-.81-24.65.95-34.72,4.94-2.71-10.78-9.85-18.58-20.37-24.09,8.05,8.76,10.21,19,6.79,30.74C162.11,52,157.63,59.52,154.56,67.8Z"/><path d="M234.12,16c21.1,11.13,33.09,24.93,36.34,41.29-20.84,5-35,13.52-42.79,25.46-15.22,5.77-31.57,8-48.9,7.11,14.38-1.29,27.26-4.24,37.35-10.32,8.14-14.44,20.25-24.27,38-27.53C255.29,39.8,247.56,27.82,234.12,16Z"/><path d="M235.32,77.81a169.9,169.9,0,0,1,19.09,4.62c10.55-8.8,24.08-13.76,40-15.66-17-2-32.15-.62-44.06,6.36q-3.47-1.25-6.92-2.3A32.68,32.68,0,0,0,235.32,77.81Z"/><path d="M166.54,82.94a129.07,129.07,0,0,1,48.83-7.33,29.76,29.76,0,0,1,6.73-9.07,92.15,92.15,0,0,0-26,1.09C204.9,56.47,220.18,50.11,241.17,48c-2.63-15.2-12.57-26.3-28.78-33.89,9.5,9.88,13.89,19.54,11.46,28.9C198.31,47.53,179.15,60.76,166.54,82.94Z"/><path d="M234.32,27.7c3.21.39,5.92.91,9.13,1.56a34.24,34.24,0,0,0-7.14-7.59c-3.32-.4-6.11-.69-9.37-.85A49.13,49.13,0,0,1,234.32,27.7Z"/><path d="M181.82,13.44a33.9,33.9,0,0,1,17,15.14,121.1,121.1,0,0,1,20-1.79,31.27,31.27,0,0,0-4.14-6q-4.89.22-9.71.88C197.4,16.76,189.73,13.82,181.82,13.44Z"/><path d="M276.57,40.28c8.36-9.74,9.73-19.87,6.11-30.28-1.47,6.68-4.8,13.17-14.26,19-5.28-1.74-11.51-3.21-16.67-4.42a55.37,55.37,0,0,1,9.81,9.78A153.59,153.59,0,0,1,276.57,40.28Z"/><path d="M287.78,63.44c15.43-15.4,20-33.74,14.6-52.29-1.26,15.52-7.54,29.09-22.08,39.45-3.92-1.77-7.26-3.39-11-4.87a31.75,31.75,0,0,1,4.09,11.49C278.44,59.26,282.55,61.11,287.78,63.44Z"/><path d="M243.45,47.05q4,1.05,8.15,2.33A19.76,19.76,0,0,0,249,39c-3.09-.87-6.11-1.64-9.06-2.28A25.7,25.7,0,0,1,243.45,47.05Z"/><path d="M75,16C53.9,27.09,41.91,40.89,38.66,57.25c20.83,5,35.05,13.52,42.79,25.46,15.21,5.77,31.57,8,48.91,7.11C116,88.53,103.09,85.58,93,79.5,84.86,65.06,72.75,55.23,55,52,53.83,39.8,61.56,27.82,75,16Z"/><path d="M73.8,77.81a170.58,170.58,0,0,0-19.1,4.62c-10.54-8.8-24.07-13.76-40-15.66,17-2,32.15-.62,44.06,6.36,2.32-.83,4.62-1.6,6.92-2.3A32.86,32.86,0,0,1,73.8,77.81Z"/><path d="M142.58,82.94a129.05,129.05,0,0,0-48.82-7.33C92,72.41,90.19,69.25,87,66.54a92.15,92.15,0,0,1,26,1.09C104.22,56.47,89,50.11,68,48c2.63-15.2,12.57-26.3,28.78-33.89C87.22,24,82.84,33.67,85.27,43,110.81,47.53,130,60.76,142.58,82.94Z"/><path d="M74.8,27.7c-3.21.39-5.92.91-9.14,1.56a34.3,34.3,0,0,1,7.15-7.59c3.32-.4,6.11-.69,9.37-.85A49.13,49.13,0,0,0,74.8,27.7Z"/><path d="M127.29,13.44a33.88,33.88,0,0,0-17,15.14,121,121,0,0,0-20-1.79,31.27,31.27,0,0,1,4.14-6q4.89.22,9.71.88C111.71,16.76,119.39,13.82,127.29,13.44Z"/><path d="M32.55,40.28C24.19,30.54,22.82,20.41,26.43,10c1.47,6.68,4.8,13.17,14.27,19C46,27.3,52.21,25.83,57.37,24.62a55.77,55.77,0,0,0-9.82,9.78A154.42,154.42,0,0,0,32.55,40.28Z"/><path d="M21.34,63.44C5.9,48,1.33,29.7,6.74,11.15,8,26.67,14.28,40.24,28.81,50.6c3.93-1.77,7.26-3.39,11-4.87a31.57,31.57,0,0,0-4.09,11.49C30.69,59.26,26.57,61.11,21.34,63.44Z"/><path d="M65.66,47.05c-2.67.7-5.39,1.48-8.14,2.33A19.67,19.67,0,0,1,60.1,39c3.09-.87,6.11-1.64,9.06-2.28A26,26,0,0,0,65.66,47.05Z"/></svg>