<svg id="Layer_1" data-name="Layer 1" xmlns="http://www.w3.org/2000/svg" viewBox="0 0 300 100"><path d="M150,42.32s8.6-1.85,14.69-12.76C169.1,21.66,169,10,169,10a30.49,30.49,0,0,1-7.4,12.76C155.77,28.94,150,30.59,150,30.59s-5.77-1.65-11.64-7.83A30.49,30.49,0,0,1,131,10s-.07,11.66,4.35,19.56C141.4,40.47,150,42.32,150,42.32Z"/><path d="M152,75.57s8.27-5.76,12.84-14a40.11,40.11,0,0,0,5-15.44,19.12,19.12,0,0,1-7.07,2.57,23.83,23.83,0,0,1-8.49.11s2.51,3.5,2.62,11.42S152,75.57,152,75.57Z"/><path d="M148,75.57s-8.27-5.76-12.84-14a40.24,40.24,0,0,1-5-15.44,19.23,19.23,0,0,0,7.08,2.57,23.83,23.83,0,0,0,8.49.11s-2.51,3.5-2.62,11.42S148,75.57,148,75.57Z"/><path d="M255.47,61.61a52,52,0,0,0,12.32,22.08A48.13,48.13,0,0,1,251.25,66.6a27.82,27.82,0,0,1-1.71-3.14A31.55,31.55,0,0,0,255.47,61.61Z"/><path d="M247,54.18a25.55,25.55,0,0,1-.34-6.31,64.36,64.36,0,0,1-39.18-.21c-20.67-7-27.64-16.88-27.64-16.88a25.11,25.11,0,0,1-9.57,9.68,38.34,38.34,0,0,1-16.83,5.08S166.08,40.87,172,30.71s5.51-19.07,5.51-19.07,10.59,21,33.44,28.2,45.27-4.12,45.27-4.12-2.82,6.19-2.14,16.54A43.51,43.51,0,0,1,247,54.18Z"/><path d="M261.19,72.5c8.8-.55,16.49-.56,23.14,1.93C297.22,79.25,300,86.78,300,86.78a32.32,32.32,0,0,0-16.76-10.09c-6-1.29-12.52-1-19.91-.23A17.23,17.23,0,0,1,261.19,72.5Z"/><path d="M257.26,77.06c-4,.53-7.41,1.14-11.45,1.69-14.15,1.92-31.34,0-48.54-5.76S177,62.28,177,62.28s-1.3,5.15-8.7,10.91a43.17,43.17,0,0,1-15.89,7.62s10-7,15.45-15.85a45.6,45.6,0,0,0,6.31-17.3,70.88,70.88,0,0,0,23.07,16.47c13.93,6,33.3,10.3,47.88,9.47,3.16-.17,5.63-.42,8.71-.65A19.28,19.28,0,0,0,257.26,77.06Z"/><path d="M187,70.43a42.2,42.2,0,0,1-19.11,9.26,54.67,54.67,0,0,0,13.41-11.93A25.6,25.6,0,0,0,187,70.43Z"/><path d="M188.07,57.31a52.1,52.1,0,0,0,3.67-8.8q.84-2.73,1.47-5.27a47.28,47.28,0,0,0,7.63,3.66c-.55,1.84-1.18,3.82-1.92,5.93a40.33,40.33,0,0,1-4.13,8.43A40.8,40.8,0,0,1,188.07,57.31Z"/><path d="M195.6,29.9c1-10-.27-15.67-.27-15.67a59,59,0,0,0,21.22,9c12.41,2.46,20.87,2.65,34.93.3a40.77,40.77,0,0,1,35.58,11.12s-18.28-12.35-35.25-5.87c-14.67,5.61-23.18,4.63-33,3.09a49.92,49.92,0,0,1-14.58-4.53,36.75,36.75,0,0,1-.61,7.47A45.29,45.29,0,0,1,195.6,29.9Z"/><path d="M189.75,49.94a49,49,0,0,1-9.11-10.7,48.48,48.48,0,0,0,10.11,8A19.1,19.1,0,0,1,189.75,49.94Z"/><path d="M200.7,52.24a72.1,72.1,0,0,0,13.57,4c17.53,3.36,30,.9,43.09-3.4,24.48-8,39.82,7.1,39.82,7.1S283.47,48.81,259,58.7c-16.56,6.68-30.36,7.72-47.66,3.08A50.83,50.83,0,0,1,199,56.68,20.19,20.19,0,0,0,200.7,52.24Z"/><path d="M151.13,83.28a32.57,32.57,0,0,0,22,3.09c12.4-2.68,18.82-8.85,18.82-8.85s9.24,6.25,24.27,9.06c17.63,3.29,28.29-.42,28.29-.42s-10.66,5.56-29.82,3.3c-15.45-1.83-22.74-6-22.74-6s-7.07,5.35-18.61,5.76C158.76,89.77,151.13,83.28,151.13,83.28Z"/><path d="M44.53,61.61A52,52,0,0,1,32.21,83.69,48.13,48.13,0,0,0,48.75,66.6a27.82,27.82,0,0,0,1.71-3.14A31.55,31.55,0,0,1,44.53,61.61Z"/><path d="M53,54.18a25.55,25.55,0,0,0,.34-6.31,64.36,64.36,0,0,0,39.18-.21c20.67-7,27.64-16.88,27.64-16.88a25.11,25.11,0,0,0,9.57,9.68,38.34,38.34,0,0,0,16.83,5.08S133.92,40.87,128,30.71s-5.51-19.07-5.51-19.07-10.59,21-33.45,28.2-45.26-4.12-45.26-4.12,2.82,6.19,2.14,16.54A43.24,43.24,0,0,0,53,54.18Z"/><path d="M38.81,72.5C30,72,22.32,71.94,15.67,74.43,2.78,79.26,0,86.78,0,86.78A32.32,32.32,0,0,1,16.76,76.69c6-1.29,12.52-1,19.91-.23A17.23,17.23,0,0,0,38.81,72.5Z"/><path d="M42.74,77.06c4,.53,7.41,1.14,11.45,1.69,14.15,1.92,31.34,0,48.54-5.76S123,62.28,123,62.28s1.3,5.15,8.7,10.91a43.17,43.17,0,0,0,15.89,7.62s-10-7-15.45-15.85a45.73,45.73,0,0,1-6.32-17.3,70.77,70.77,0,0,1-23.06,16.47c-13.93,6-33.3,10.3-47.89,9.47-3.15-.17-5.63-.42-8.69-.65A19.63,19.63,0,0,1,42.74,77.06Z"/><path d="M113,70.43a42.15,42.15,0,0,0,19.11,9.26,54.67,54.67,0,0,1-13.41-11.93A25.81,25.81,0,0,1,113,70.43Z"/><path d="M111.92,57.31a52.93,52.93,0,0,1-3.66-8.8q-.84-2.73-1.47-5.27a47.28,47.28,0,0,1-7.63,3.66c.55,1.84,1.18,3.82,1.92,5.93a39.85,39.85,0,0,0,4.13,8.43A40.29,40.29,0,0,0,111.92,57.31Z"/><path d="M104.4,29.9c-1-10,.27-15.67.27-15.67a59,59,0,0,1-21.22,9c-12.41,2.46-20.87,2.65-34.93.3A40.77,40.77,0,0,0,12.94,34.61s18.28-12.35,35.25-5.87c14.67,5.61,23.18,4.63,33,3.09A49.92,49.92,0,0,0,95.74,27.3a37.74,37.74,0,0,0,.61,7.47A45.29,45.29,0,0,0,104.4,29.9Z"/><path d="M110.25,49.94a49,49,0,0,0,9.11-10.7,48.48,48.48,0,0,1-10.11,8A19.1,19.1,0,0,0,110.25,49.94Z"/><path d="M99.3,52.24a72.1,72.1,0,0,1-13.57,4c-17.53,3.36-30,.9-43.09-3.4-24.48-8-39.82,7.1-39.82,7.1S16.53,48.81,41,58.7c16.56,6.68,30.36,7.72,47.66,3.08A50.83,50.83,0,0,0,101,56.68,20.19,20.19,0,0,1,99.3,52.24Z"/><path d="M148.87,83.28a32.57,32.57,0,0,1-22,3.09c-12.4-2.68-18.82-8.85-18.82-8.85s-9.24,6.25-24.27,9.06c-17.63,3.29-28.29-.42-28.29-.42s10.66,5.56,29.81,3.3c15.46-1.83,22.75-6,22.75-6s7.07,5.35,18.61,5.76C141.24,89.77,148.87,83.28,148.87,83.28Z"/><path d="M153.48,61.06c0,5.68-1.56,10.29-3.48,10.29s-3.48-4.61-3.48-10.29,1.56-10.3,3.48-10.3S153.48,55.37,153.48,61.06Z"/></svg>