<svg id="Layer_1" data-name="Layer 1" xmlns="http://www.w3.org/2000/svg" viewBox="0 0 300 100"><path d="M150,25.1Zm27,5.77a27.15,27.15,0,0,1-13.72,2.26c-10.22-1.13-13.31-8-13.31-8s-3.09,6.9-13.32,8A27.15,27.15,0,0,1,123,30.87s-.46,15.15,3.8,26.91C134.58,79.34,150,83.9,150,83.9s15.42-4.56,23.23-26.12C177.5,46,177,30.87,177,30.87ZM168.41,57.1C162.22,74.18,150,77.79,150,77.8s-12.22-3.62-18.41-20.7c-3.38-9.32-3-20.19-3-20.19a32.52,32.52,0,0,0,10.87.66c8.1-.9,10.54-6.35,10.55-6.36h0s2.45,5.46,10.54,6.36a32.6,32.6,0,0,0,10.88-.66S171.79,47.78,168.41,57.1Z"/><path d="M167.4,43.22a.1.1,0,0,0,0,0Zm-34.81,0,0,0Zm19.22,6.87A102,102,0,0,0,150,35.56a101,101,0,0,0-1.82,14.53c-13.07-.1-15.38-6.23-15.59-6.87.24.77,3.27,9.67,15.45,10.79,0,.55,0,1.11,0,1.67a104.48,104.48,0,0,0,2,20.13,105,105,0,0,0,2-20.13c0-.56,0-1.12,0-1.67,12.17-1.12,15.2-10,15.44-10.79C167.2,43.86,164.89,50,151.81,50.09Z"/><path d="M180,31.15s7,6.56,26.74,3.62,34.89-12.44,58.14-7.47C290.68,32.82,300,50.37,300,50.37s-13.72-16.73-35.81-19-39.31,9.05-57,11.54-27.91.68-27.91.68A115.69,115.69,0,0,0,180,31.15Z"/><path d="M178,51.5a106.23,106.23,0,0,0,31.44-.75c17-3,27.8-8.07,45.89-3.55A37.14,37.14,0,0,1,278.6,64.62s-7.51-10.58-24-14.25c-15.89-3.54-24.88,2.41-43,6.79-20.92,5.05-36.27,3.39-36.27,3.39A45,45,0,0,0,178,51.5Z"/><path d="M151.51,85.88a38.14,38.14,0,0,0,12.21-8c6.51-6.11,8.6-10.52,8.6-10.52s8.22,1.36,21.55.61a135.05,135.05,0,0,0,20.9-2.53s4.3-9.16,5.23-23.63A235.37,235.37,0,0,0,220,14s8.14-4.75,26.74-3.85,30,8.6,30,8.6-14.42-6.56-30.23-5.43-21,4.75-21,4.75A177.58,177.58,0,0,1,225,44.72c-1.4,12.44-6.32,25.89-6.32,25.89a198.07,198.07,0,0,1-24.65,2.49,168.88,168.88,0,0,1-19.89-.79,34.66,34.66,0,0,1-6,6.22C158.14,85.88,151.51,85.88,151.51,85.88Z"/><path d="M189.49,33.13a40.35,40.35,0,0,1,10.16-10.91c11.51-7.92,19-8.19,19-8.19a53.38,53.38,0,0,0-22.87,5.43c-6,2.89-11.74,7.28-14.26,10.33A19.83,19.83,0,0,0,189.49,33.13Z"/><path d="M182.84,50.94c.27-1,.53-2.14.76-3.28.18-.85.37-1.67.57-2.47l-5-.59c-.17,1.19-.31,2.4-.54,3.74-.13.74-.26,1.47-.4,2.17Z"/><path d="M175,61.65A28.86,28.86,0,0,1,173,66l3.6.23A32.88,32.88,0,0,0,179,61.84Z"/><path d="M195.89,74.7A42.57,42.57,0,0,1,187.67,82c-13.33,9.2-31,8-31,8s20.44-2.12,31.25-15.08l.11-.13Q191.88,74.91,195.89,74.7Z"/><path d="M205,60.18c-.91,1.9-1.93,3.61-3.07,5.54a77.51,77.51,0,0,1-8.32.67c1.15-1.78,2.18-3.32,3.1-5A68.34,68.34,0,0,0,205,60.18Z"/><path d="M210.7,43.54c-.2.79-.38,1.53-.55,2.23-.28,1.18-.63,2.23-1.05,3.58a58.17,58.17,0,0,1-7.87.91c.7-2.09,1.26-3.83,1.71-5.66C205.52,44.37,208.11,44,210.7,43.54Z"/><path d="M206.14,33.3c4.78-12.29,11.53-16.17,11.53-16.17s-2.15,7.24-4.18,14.91A60.72,60.72,0,0,1,206.14,33.3Z"/><path d="M220.7,70.35s9.73-1.53,16.9-2.11c18.44-1.51,20.77,4.9,20.77,4.9s-.35-9.09-19.54-8.67c-10.69.23-16.66.75-16.66.75Z"/><path d="M227.92,42.25a54.77,54.77,0,0,1,39.68-2.36c17.63,5.84,21.93,17,21.93,17s-7-10.63-27.44-16.06C244.18,36.12,227.92,42.25,227.92,42.25Z"/><path d="M224.26,59.64s15.42-5.83,29.61-2.26c13.92,3.51,16.44,12.51,16.44,12.51S266.86,63,253.37,59.53,224.26,59.64,224.26,59.64Z"/><path d="M120,31.15s-7,6.56-26.75,3.62S58.37,22.33,35.11,27.3C9.32,32.82,0,50.37,0,50.37s13.72-16.73,35.81-19,39.3,9.05,57,11.54,27.91.68,27.91.68A110.75,110.75,0,0,1,120,31.15Z"/><path d="M122,51.5a106.17,106.17,0,0,1-31.43-.75c-17.05-3-27.8-8.07-45.89-3.55A37.18,37.18,0,0,0,21.39,64.62s7.52-10.58,24-14.25c15.89-3.54,24.88,2.41,43,6.79,20.93,5.05,36.28,3.39,36.28,3.39A45.73,45.73,0,0,1,122,51.5Z"/><path d="M148.48,85.88a38,38,0,0,1-12.2-8c-6.52-6.11-8.61-10.52-8.61-10.52s-8.22,1.36-21.55.61a135,135,0,0,1-20.89-2.53S80.93,56.25,80,41.78A235.37,235.37,0,0,1,80,14s-8.14-4.75-26.75-3.85-30,8.6-30,8.6,14.42-6.56,30.24-5.43,21,4.75,21,4.75A176.78,176.78,0,0,0,75,44.72c1.4,12.44,6.32,25.89,6.32,25.89a198.07,198.07,0,0,0,24.65,2.49,168.79,168.79,0,0,0,19.88-.79,34.89,34.89,0,0,0,6.05,6.22C141.86,85.88,148.48,85.88,148.48,85.88Z"/><path d="M110.51,33.13a40.35,40.35,0,0,0-10.16-10.91c-11.51-7.92-19-8.19-19-8.19a53.33,53.33,0,0,1,22.86,5.43c6,2.89,11.75,7.28,14.27,10.33A19.83,19.83,0,0,1,110.51,33.13Z"/><path d="M117.16,50.94c-.27-1-.53-2.14-.77-3.28-.17-.85-.36-1.67-.57-2.47l5-.59c.17,1.19.31,2.4.54,3.74.13.74.27,1.47.41,2.17Z"/><path d="M125,61.65A28.38,28.38,0,0,0,127,66l-3.6.23A32.88,32.88,0,0,1,121,61.84Z"/><path d="M104.1,74.7A42.87,42.87,0,0,0,112.32,82c13.34,9.2,31,8,31,8s-20.44-2.12-31.24-15.08l-.11-.13C109.41,74.85,106.79,74.84,104.1,74.7Z"/><path d="M95,60.18c.91,1.9,1.93,3.61,3.07,5.54a77.93,77.93,0,0,0,8.32.67c-1.15-1.78-2.17-3.32-3.1-5A68.34,68.34,0,0,1,95,60.18Z"/><path d="M89.3,43.54l.54,2.23c.29,1.18.64,2.23,1.06,3.58a58,58,0,0,0,7.87.91c-.7-2.09-1.26-3.83-1.71-5.66C94.47,44.37,91.89,44,89.3,43.54Z"/><path d="M93.86,33.3C89.08,21,82.32,17.13,82.32,17.13S84.47,24.37,86.5,32A60.88,60.88,0,0,0,93.86,33.3Z"/><path d="M79.3,70.35s-9.73-1.53-16.9-2.11c-18.45-1.51-20.77,4.9-20.77,4.9s.34-9.09,19.53-8.67c10.7.23,16.67.75,16.67.75Z"/><path d="M72.07,42.25A54.75,54.75,0,0,0,32.4,39.89c-17.63,5.84-21.94,17-21.94,17s7-10.63,27.45-16.06C55.82,36.12,72.07,42.25,72.07,42.25Z"/><path d="M75.73,59.64s-15.42-5.83-29.61-2.26C32.21,60.89,29.69,69.89,29.69,69.89S33.14,63,46.63,59.53,75.73,59.64,75.73,59.64Z"/><path d="M153.25,15.5s3.18,8.6,11.86,10.11,14.58-2,18.61-4.68a33.54,33.54,0,0,1,9.69-4,31.7,31.7,0,0,0-10.31,2c-4.65,2-10.54,4.23-17.83,3.32S153.25,15.5,153.25,15.5Z"/><path d="M146.74,15.5s-3.18,8.6-11.86,10.11-14.57-2-18.6-4.68a33.54,33.54,0,0,0-9.69-4,31.7,31.7,0,0,1,10.31,2c4.65,2,10.54,4.23,17.83,3.32S146.74,15.5,146.74,15.5Z"/></svg>