<svg id="Layer_1" data-name="Layer 1" xmlns="http://www.w3.org/2000/svg" viewBox="0 0 300 100"><path d="M150.06,13.66s-15.63-.1-26.6,7.84a46.31,46.31,0,0,0-16.09,21.3,59.2,59.2,0,0,1,19.76-13.47,69.49,69.49,0,0,1,22.93-4.67h-.12a69.49,69.49,0,0,1,22.93,4.67A59.2,59.2,0,0,1,192.63,42.8a46.31,46.31,0,0,0-16.09-21.3c-11-7.94-26.6-7.84-26.6-7.84Z"/><path d="M100.89,68.37a59.77,59.77,0,0,0,4.94,7.42,35.46,35.46,0,0,0,7.86-10A44.71,44.71,0,0,0,124.2,76.89a43.76,43.76,0,0,0,16.85,8,77.21,77.21,0,0,1-14.57-14.29,66.12,66.12,0,0,1-9.12-16.63h6.44a62.74,62.74,0,0,0,9.14,15.94c7.77,9.71,15,12.92,15,12.92a50.52,50.52,0,0,1-10.73-16.22,49.32,49.32,0,0,1-3.31-12.64h32.12a49.32,49.32,0,0,1-3.31,12.64A50.52,50.52,0,0,1,152,82.8s7.27-3.21,15-12.92a62.42,62.42,0,0,0,9.14-15.94h6.45a66.12,66.12,0,0,1-9.12,16.63A77.21,77.21,0,0,1,159,84.86a43.76,43.76,0,0,0,16.85-8,45,45,0,0,0,10.51-11.13,38,38,0,0,0,7.6,10,63.71,63.71,0,0,0,5.2-7.42c-3.29-4.2-4.68-8.23-6.08-13.34A35.84,35.84,0,0,0,195.94,46H165.41L172.8,31a28.49,28.49,0,0,0-7.7-2.44L157.26,46H142.74L134.9,28.59A28.49,28.49,0,0,0,127.2,31L134.58,46H104.06A35.84,35.84,0,0,0,107,55C105.57,60.14,104,64.52,100.89,68.37Z"/><path d="M101.26,79.68S93.72,86.93,79,89.3c-17.86,2.89-28.76-4.12-28.76-4.12S61.85,88,77.38,83.94c13.3-3.43,18-9.34,18-9.34A40,40,0,0,0,101.26,79.68Z"/><path d="M198.74,79.68s7.54,7.25,22.24,9.62c17.85,2.89,28.75-4.12,28.75-4.12S238.15,88,222.62,83.94c-13.3-3.43-18-9.34-18-9.34A41,41,0,0,1,198.74,79.68Z"/><path d="M127.2,11.51H98.31S82.68,36,60.47,42.85a47.25,47.25,0,0,1-6.27,1.48,54.15,54.15,0,0,1,8-19.49C69.44,14.23,76.94,10,76.94,10S62.08,13.48,50.42,30.34a44.37,44.37,0,0,0-6.56,14.43C17.07,42.7,0,16.09,0,16.09S11.28,50.6,42.29,54.42C42,57.89,41.94,61.4,42,65c.16,16.86-9.46,23.09-9.46,23.09A31.6,31.6,0,0,0,50.76,64.43c.61-3.42,1.1-6.7,1.6-9.86A58.51,58.51,0,0,0,62.5,52.74a64.51,64.51,0,0,0,15.4-6.39A85.72,85.72,0,0,0,90.71,67.4a81.43,81.43,0,0,0,23.43,19s-9.39-7.26-17.86-22.27c-6.67-11.81-7.77-21.63-8-25a80.51,80.51,0,0,0,17.08-19.34h16.21l.48.42a22.26,22.26,0,0,1,7.41-3.83Z"/><path d="M300,16.09S282.93,42.7,256.14,44.78a44.35,44.35,0,0,0-6.57-14.44C237.92,13.48,223.05,10,223.05,10s7.51,4.23,14.7,14.84a54.33,54.33,0,0,1,8.05,19.49,47.75,47.75,0,0,1-6.28-1.48c-22.2-6.87-37.83-31.34-37.83-31.34H172.8l-2.31,4.84a22.21,22.21,0,0,1,7.4,3.83l.49-.42h16.21A80.32,80.32,0,0,0,211.66,39.1c-.17,3.37-1.28,13.19-7.95,25-8.47,15-17.86,22.26-17.86,22.26a81.47,81.47,0,0,0,23.44-19A85.71,85.71,0,0,0,222.1,46.35a64.51,64.51,0,0,0,15.4,6.39,58.18,58.18,0,0,0,10.14,1.83c.49,3.16,1,6.44,1.6,9.86a31.6,31.6,0,0,0,18.24,23.64S257.85,81.84,258,65c0-3.58,0-7.09-.31-10.56C288.72,50.6,300,16.09,300,16.09Z"/><path d="M91.4,48.54a52.85,52.85,0,0,0,14-24.23s.7,18-10.87,33C93.09,55,92.24,51.79,91.4,48.54Z"/><path d="M51.84,65.18a55.93,55.93,0,0,0,9.35-1.1,61.61,61.61,0,0,0,20.34-7.77,48.76,48.76,0,0,0,5.6,8.61c-6,4.9-14.08,8.88-24.76,10.89a52.73,52.73,0,0,1-15.1.77A28.38,28.38,0,0,0,51.84,65.18Z"/><path d="M39.48,75C13.39,67.38,6.12,37,6.12,37S16.41,59.54,40.84,64.28A38.25,38.25,0,0,1,39.48,75Z"/><path d="M208.6,48.54a52.85,52.85,0,0,1-14-24.23s-.7,18,10.87,33C206.91,55,207.76,51.79,208.6,48.54Z"/><path d="M248.16,65.18a55.93,55.93,0,0,1-9.35-1.1,61.53,61.53,0,0,1-20.34-7.77,49.33,49.33,0,0,1-5.6,8.61c6,4.9,14.08,8.88,24.75,10.89a52.8,52.8,0,0,0,15.11.77A28.38,28.38,0,0,1,248.16,65.18Z"/><path d="M260.51,75C286.6,67.38,293.88,37,293.88,37s-10.29,22.58-34.73,27.32A39,39,0,0,0,260.51,75Z"/></svg>