<svg id="Layer_1" data-name="Layer 1" xmlns="http://www.w3.org/2000/svg" viewBox="0 0 300 100"><defs><style>.cls-1{fill:#010101;}</style></defs><path class="cls-1" d="M150,50.45A18.49,18.49,0,0,0,145.11,60c-1.26,6.14-4.33,6.3-5.67,4-2.39-4.12,1.42-10.77-3.15-18.57s-8.06-9.24-11.18-14.75c-3-5.19-2.43-9.21-2.43-9.21a18.09,18.09,0,0,0,1.52,15.14c4.57,7.79,11,17.42,5.88,30.49S112.55,79.68,106.67,75s-3.16-16.62-3.16-16.62S96.43,72.92,106,81.74s20.14,3.33,24,.12,6.75-8.71,6.75-8.71,2.74,4.29,6.43,1.6c1.78-1.3,2.64-4.07,3.85-7.54a22.21,22.21,0,0,1,3-5.76,22.21,22.21,0,0,1,3,5.76c1.21,3.47,2.08,6.24,3.85,7.54,3.69,2.69,6.43-1.6,6.43-1.6s2.94,5.5,6.75,8.71,14.37,8.71,24-.12,2.5-23.38,2.5-23.38,2.72,11.92-3.16,16.62S175,80.14,169.92,67.07s1.31-22.7,5.88-30.49a18,18,0,0,0,1.52-15.14s.52,4-2.43,9.21c-3.12,5.51-6.6,7-11.18,14.75S163,59.85,160.56,64c-1.33,2.29-4.41,2.13-5.67-4A18.49,18.49,0,0,0,150,50.45Z"/><path class="cls-1" d="M266.25,83.52c23.09-6.42,35.54-26.1,33.54-51.82a30.56,30.56,0,0,1-14.37,3,19.1,19.1,0,0,1,1.52,8.25l3.27-.23C291.13,62,282.31,75.1,266.25,83.52Z"/><path class="cls-1" d="M298.63,18.1c-2.26,6.17-6.8,10.73-13.94,13.45a24.38,24.38,0,0,0-5.37-8.41C286.52,22.89,292.88,21.41,298.63,18.1Z"/><path class="cls-1" d="M286.87,10a31.86,31.86,0,0,1-10.11,10.58,26.5,26.5,0,0,0-9.49-7.22C275.68,16.05,281.89,14.27,286.87,10Z"/><path class="cls-1" d="M236.85,66.32a43.35,43.35,0,0,0,13.9,7.24A14.17,14.17,0,0,0,255,68.33C242.89,69.68,236.85,66.32,236.85,66.32Z"/><path class="cls-1" d="M206,40.26c11.47,3.82,20.84-3,27.59-8.33s16.72-17.14,33-5c11.77,8.84,11.22,25.43,3.58,34.51-.38,4.1-1,8.18-2.95,11.68a22.74,22.74,0,0,0,4-2.16c18.1-12.24,15.24-40.36,0-51.21s-29.47-8.71-39.78,2.45-18.87,14.67-27,13.45-13.21-10.55-13.21-10.55S194.53,36.44,206,40.26Z"/><path class="cls-1" d="M223.28,71.75s11,18,30.63,10.39c21.09-8.22,14.38-42.43.87-42.64-10-.15-12.86,17.16-34.7,18.34-17,.92-28-15.44-28-15.44s6.83,20,29.33,20.79c23,.78,27.44-14.06,34.12-10.24,5,2.89,5.08,19-5.37,23.39C232.57,83.67,223.28,71.75,223.28,71.75Z"/><path class="cls-1" d="M269.59,57.69s7-12.25-.87-23.24c-6.82-9.47-17.87-8.52-21.92-5.8-4.79,3.21-7.84,11-13.21,16.05a64.59,64.59,0,0,1-10,7.79,46.59,46.59,0,0,0,17.28-8.71c5.59-4.76,9.39-11.35,16.4-9.17C271.05,38.89,269.59,57.69,269.59,57.69Z"/><path class="cls-1" d="M217.36,55.81a32,32,0,0,1,4.25-7.6c3.92-5.5,11-9.17,11-9.17S217.47,42,210.5,52.64c-.22.35-.43.7-.62,1A13.84,13.84,0,0,0,217.36,55.81Z"/><path class="cls-1" d="M215.08,88.11c8.82-5,2.32-14.62,1.31-22.86a28.08,28.08,0,0,1-8.34-2.87c.38,7.63,4.7,14.55,2,16.86-2.51,2.17-6.11,2.09-10.42-.84a9.62,9.62,0,0,1-4.7,6.54C201.73,90.05,208.82,91.63,215.08,88.11Z"/><path class="cls-1" d="M182.34,37.05c-3.05,11.24-8,23.09,2.46,37.3l.48.64c2.8-.19,5.67-.95,7.55-3l-.86-1c-11.19-14.08-5.36-25.62-5-33.68.73-15.9-5.88-23.16-5.88-23.16S185.38,25.82,182.34,37.05Z"/><path class="cls-1" d="M237.51,11.37a32.65,32.65,0,0,0-16.26,11c-5.63,7-14.67,8.56-20.48,5.35s-9.43-11.62-9.43-11.62S197,22,202.66,22.69c10.35,1.22,12.63-6,18.62-9C228.07,10.33,237.51,11.37,237.51,11.37Z"/><path class="cls-1" d="M33.75,83.52C10.66,77.1-1.79,57.42.21,31.7a30.56,30.56,0,0,0,14.37,3,19.1,19.1,0,0,0-1.52,8.25l-3.27-.23C8.87,62,17.69,75.1,33.75,83.52Z"/><path class="cls-1" d="M1.37,18.1c2.26,6.17,6.8,10.73,13.94,13.45a24.38,24.38,0,0,1,5.37-8.41C13.48,22.89,7.12,21.41,1.37,18.1Z"/><path class="cls-1" d="M13.13,10A32,32,0,0,0,23.24,20.58a26.5,26.5,0,0,1,9.49-7.22C24.32,16.05,18.11,14.27,13.13,10Z"/><path class="cls-1" d="M63.15,66.32a43.33,43.33,0,0,1-13.91,7.24A14.24,14.24,0,0,1,45,68.33C57.11,69.68,63.15,66.32,63.15,66.32Z"/><path class="cls-1" d="M94,40.26c-11.47,3.82-20.83-3-27.59-8.33S49.69,14.79,33.46,27c-11.78,8.83-11.23,25.42-3.6,34.5.39,4.1,1,8.18,3,11.68a22.74,22.74,0,0,1-4-2.16c-18.09-12.24-15.24-40.36,0-51.21s29.47-8.71,39.78,2.45,18.88,14.67,27,13.45,13.21-10.55,13.21-10.55S105.47,36.44,94,40.26Z"/><path class="cls-1" d="M76.72,71.75s-11,18-30.63,10.39C25,73.92,31.72,39.71,45.22,39.5c10-.15,12.87,17.16,34.69,18.34,17,.92,28-15.44,28-15.44s-6.83,20-29.33,20.79C55.66,64,51.17,49.13,44.49,53c-5.05,2.89-5.08,19,5.37,23.39C67.43,83.67,76.72,71.75,76.72,71.75Z"/><path class="cls-1" d="M30.41,57.69s-7-12.25.87-23.24C38.1,25,49.15,25.93,53.2,28.65,58,31.86,61,39.65,66.41,44.7a64.59,64.59,0,0,0,10,7.79,46.59,46.59,0,0,1-17.28-8.71c-5.59-4.76-9.39-11.35-16.4-9.17C29,38.89,30.41,57.69,30.41,57.69Z"/><path class="cls-1" d="M82.64,55.81a32,32,0,0,0-4.25-7.6c-3.92-5.5-11-9.17-11-9.17S82.53,42,89.5,52.64c.22.35.43.7.61,1A13.78,13.78,0,0,1,82.64,55.81Z"/><path class="cls-1" d="M84.92,88.11c-8.82-5-2.32-14.62-1.31-22.86A28.08,28.08,0,0,0,92,62.38c-.38,7.63-4.7,14.55-2,16.86,2.52,2.17,6.11,2.09,10.42-.84a9.62,9.62,0,0,0,4.7,6.54C98.27,90.05,91.18,91.63,84.92,88.11Z"/><path class="cls-1" d="M117.66,37.05c3,11.24,8,23.09-2.46,37.3l-.48.64c-2.8-.19-5.67-.95-7.55-3l.86-1c11.2-14.08,5.36-25.62,5-33.68-.73-15.9,5.88-23.16,5.88-23.16S114.61,25.82,117.66,37.05Z"/><path class="cls-1" d="M62.49,11.38a32.59,32.59,0,0,1,16.26,11c5.63,7,14.67,8.56,20.48,5.35s9.43-11.62,9.43-11.62S103,22,97.34,22.69c-10.35,1.22-12.63-6-18.62-9C71.93,10.33,62.49,11.38,62.49,11.38Z"/><path class="cls-1" d="M150,43.72c9.38,0,17.84-9.53,17-15.36-.91-6.25-17-17.89-17-17.89s-16.08,11.64-17,17.89C132.16,34.19,140.62,43.72,150,43.72Zm0-28.66s8.83,9.2,9.59,13.3c.64,3.5-2.63,8-9.59,8s-10-4.57-9.37-8C141.4,24.3,150,15.06,150,15.06Z"/></svg>