<svg id="Layer_1" data-name="Layer 1" xmlns="http://www.w3.org/2000/svg" viewBox="0 0 300 100"><path d="M0,62.76a76.52,76.52,0,0,0,30.52-7.85c16-7.87,22.43-20,22.43-20s6.71,6.51,9.95,20.43a64.1,64.1,0,0,1,1.15,24.48A101,101,0,0,0,59.89,59.4C56.65,49.74,53,45.7,53,45.7s-5.32,8.76-20.81,13.7A78.44,78.44,0,0,1,0,62.76Z"/><path d="M11.1,74.51s24.63-.82,53.65-18.26C89,41.66,98.2,22.12,98.2,22.12s7.55,7.19,9.41,25.15a54.13,54.13,0,0,1-6.17,31.13s4.14-16.73,2.15-28.14C101.44,37.84,98.2,34.1,98.2,34.1S90,48.39,66.6,61.19C38.22,76.74,11.1,74.51,11.1,74.51Z"/><path d="M72.61,69.72S96.2,62.31,117,45.25s28.45-32.56,28.45-32.56,3.24,9,2.55,22.46-7.17,25.37-7.17,25.37a164.27,164.27,0,0,0,2.77-18.64,63.56,63.56,0,0,0-.46-13s-6,8.92-23.36,21.1A120.74,120.74,0,0,1,72.61,69.72Z"/><path d="M105.68,21.45a71.34,71.34,0,0,0,18.49-3.37c9.49-3.14,14.34-8.08,14.34-8.08s.7,15.27-7.17,35.48-16,31-16,31,8.55-17.74,12.48-32.33,3.71-22.9,3.71-22.9S129,22.57,120.71,22.8A65.65,65.65,0,0,1,105.68,21.45Z"/><path d="M61.28,32.9s9.46-.94,16.65-4a47,47,0,0,0,12.95-8.53s2.08,13.92-3,32.78A87,87,0,0,1,72.15,84.32s8.32-15,11.79-31.44,2.54-22.45,2.54-22.45-3,1.8-11.1,2.92A39.71,39.71,0,0,1,61.28,32.9Z"/><path d="M137.67,42.78a134.89,134.89,0,0,1-8.95,22.15A139,139,0,0,1,117.93,82.3a74.84,74.84,0,0,0,13.73-1.8c7.09-1.72,10.48-4.34,10.48-4.34a72.38,72.38,0,0,0,4.62-12.72,65.14,65.14,0,0,0,1.54-13,81.73,81.73,0,0,1-4,13.47c-2.94,6.74-5.25,9.58-5.25,9.58a40.33,40.33,0,0,1-6.31,2.1,30.66,30.66,0,0,1-5.71.9,72,72,0,0,0,7-15.61A89,89,0,0,0,137.67,42.78Z"/><path d="M93.42,68.6a47.39,47.39,0,0,1-5.9,12.12,56.5,56.5,0,0,1-6.58,7.86s4.62.9,15.1-.44c7.15-.92,10.64-2.47,10.64-2.47a43.05,43.05,0,0,0,4.47-10.33,58.54,58.54,0,0,0,1.54-9.77,72.75,72.75,0,0,1-4,10.1,31.16,31.16,0,0,1-4.31,6.63A41.41,41.41,0,0,1,97,84a59.93,59.93,0,0,1-7.52.56A23.46,23.46,0,0,0,92.27,78,42.29,42.29,0,0,0,93.42,68.6Z"/><path d="M25.9,83.49a99.39,99.39,0,0,0,18.81,5.39c11.1,2.1,17.26.6,17.26.6a30.77,30.77,0,0,0-1.73-7.07,20.72,20.72,0,0,0-3-5.5s-2.71,3-12.6,5.72A44.41,44.41,0,0,1,25.9,83.49Z"/><path d="M300,62.76a76.52,76.52,0,0,1-30.52-7.85c-16-7.87-22.44-20-22.44-20s-6.7,6.51-9.94,20.43A64.1,64.1,0,0,0,236,79.83a101,101,0,0,1,4.16-20.43c3.24-9.66,6.93-13.7,6.93-13.7s5.32,8.76,20.82,13.7A78.44,78.44,0,0,0,300,62.76Z"/><path d="M288.9,74.51s-24.63-.82-53.65-18.26C211,41.66,201.8,22.12,201.8,22.12s-7.56,7.19-9.41,25.15a54.13,54.13,0,0,0,6.17,31.13s-4.14-16.73-2.16-28.14c2.16-12.42,5.4-16.16,5.4-16.16S210,48.39,233.4,61.19C261.78,76.74,288.9,74.51,288.9,74.51Z"/><path d="M227.39,69.72S203.8,62.31,183,45.25s-28.44-32.56-28.44-32.56-3.24,9-2.55,22.46,7.17,25.37,7.17,25.37a166.77,166.77,0,0,1-2.77-18.64,63.56,63.56,0,0,1,.46-13s6,8.92,23.36,21.1A120.74,120.74,0,0,0,227.39,69.72Z"/><path d="M194.32,21.45a71.45,71.45,0,0,1-18.5-3.37C166.34,14.94,161.48,10,161.48,10s-.69,15.27,7.18,35.48,16,31,16,31-8.55-17.74-12.49-32.33-3.7-22.9-3.7-22.9,2.55,1.34,10.87,1.57A65.65,65.65,0,0,0,194.32,21.45Z"/><path d="M238.72,32.9s-9.46-.94-16.65-4a47,47,0,0,1-12.95-8.53s-2.08,13.92,3,32.78a86.78,86.78,0,0,0,15.72,31.21s-8.32-15-11.79-31.44-2.54-22.45-2.54-22.45,3,1.8,11.1,2.92A39.71,39.71,0,0,0,238.72,32.9Z"/><path d="M162.33,42.78a134.34,134.34,0,0,0,8.94,22.15,138.22,138.22,0,0,0,10.8,17.37,74.68,74.68,0,0,1-13.72-1.8c-7.1-1.72-10.49-4.34-10.49-4.34a72.38,72.38,0,0,1-4.62-12.72,65.5,65.5,0,0,1-1.55-13,82.22,82.22,0,0,0,4,13.47c2.93,6.74,5.25,9.58,5.25,9.58a40.25,40.25,0,0,0,6.32,2.1,30.5,30.5,0,0,0,5.7.9,72.31,72.31,0,0,1-7-15.61A89.35,89.35,0,0,1,162.33,42.78Z"/><path d="M206.58,68.6a47.39,47.39,0,0,0,5.9,12.12,56.5,56.5,0,0,0,6.58,7.86s-4.62.9-15.1-.44c-7.16-.92-10.64-2.47-10.64-2.47a43.05,43.05,0,0,1-4.47-10.33,58.54,58.54,0,0,1-1.54-9.77,72.75,72.75,0,0,0,4,10.1,31.16,31.16,0,0,0,4.31,6.63A41.41,41.41,0,0,0,203,84a59.83,59.83,0,0,0,7.51.56A23.46,23.46,0,0,1,207.73,78,42.29,42.29,0,0,1,206.58,68.6Z"/><path d="M274.1,83.49a99.42,99.42,0,0,1-18.8,5.39c-11.11,2.1-17.27.6-17.27.6a30.77,30.77,0,0,1,1.73-7.07,20.72,20.72,0,0,1,3-5.5s2.71,3,12.6,5.72A44.41,44.41,0,0,0,274.1,83.49Z"/></svg>