<svg id="Layer_1" data-name="Layer 1" xmlns="http://www.w3.org/2000/svg" viewBox="0 0 300 100"><path d="M46.56,63.1C48,66.25,52.19,74.57,64.43,79.52a118.89,118.89,0,0,0,37.45,8.08s-22.6-2.24-36.79-12.29c-10.87-7.71-11.41-15.07-7.37-21a28.16,28.16,0,0,1,8.83-8.51A32.81,32.81,0,0,0,82.18,67.36c13.49,7.76,29.47,11.23,43.37,13.8C141.08,84,148.83,89.09,150,89.89l-.11.11.13-.1.13.1-.11-.11c1.15-.8,8.9-5.86,24.43-8.73,13.9-2.57,29.88-6,43.37-13.8A32.81,32.81,0,0,0,233.45,45.8a28.16,28.16,0,0,1,8.83,8.51c4,5.93,3.5,13.29-7.37,21-14.19,10-36.79,12.29-36.79,12.29a118.89,118.89,0,0,0,37.45-8.08c12.24-5,16.45-13.27,17.87-16.42a3.23,3.23,0,0,1,4.22-2S257,58,252,52.05c-6.05-7.22-17.9-17.47-41.73-25-12.35-3.91-32.28-6.8-44.89-8.41C153.93,17.16,150.24,10.48,150,10v0h0v0c-.23.45-3.92,7.13-15.36,8.6C122,20.24,102.09,23.13,89.74,27,65.91,34.58,54.06,44.83,48,52.05c-5,5.93-5.67,9.06-5.67,9.06A3.23,3.23,0,0,1,46.56,63.1ZM79.78,39.54c2.77-3,11.35-6.25,18-6.68,9.18-.59,14.56,5,12.48,10.13-2.9,7.12-14.24,1.94-14.24,1.94a46.36,46.36,0,0,0,17.27,12.51c11.22,4.74,22.12,5,28.11-2.48,2.52-3.13,2.9-8.09,0-11.21-4.35-4.68-12.86-3.35-12.86-3.35s10.85.54,10.59,7.77c-.21,6-8.95,8.41-14,4.31s-5.93-9.38-4.41-14.56,6.93-10.78,16-14.34c8.92-3.49,13.09-7.82,13.23-8,.14.15,4.31,4.48,13.23,8,9.08,3.56,14.5,9.17,16,14.34s.63,10.46-4.41,14.56-13.78,1.73-14-4.31c-.26-7.23,10.59-7.77,10.59-7.77s-8.51-1.33-12.86,3.35c-2.9,3.12-2.53,8.08,0,11.21,6,7.43,16.9,7.22,28.12,2.48A46.36,46.36,0,0,0,204,44.93S192.61,50.11,189.71,43c-2.08-5.09,3.3-10.72,12.48-10.13,6.68.43,15.25,3.66,18,6.68,2.48,2.71,5.42,9.17-2.9,18.76s-27.67,15.4-44.26,20.16C157.55,82.92,151,88.92,150,89.87c-1-1-7.55-7-23.07-11.41C110.35,73.7,91,67.9,82.68,58.3S77.3,42.25,79.78,39.54Z"/><path d="M85.83,60.19a15.07,15.07,0,0,0,1.79-9.8c-1.41-10.37,4-12.83,4-12.83S88.38,40.5,90.52,50a19.78,19.78,0,0,1-1.33,12.83A23,23,0,0,1,85.83,60.19Z"/><path d="M59.73,73.39a42.84,42.84,0,0,0,16.42-4.56,33.84,33.84,0,0,0,3.39-2.07,35.88,35.88,0,0,0,4.63,2.73,28.6,28.6,0,0,1-7.51,4.84,40.93,40.93,0,0,1-11.35,3.23Z"/><path d="M58.81,78c-8,.09-16.7-1.46-26.41-4C14.88,69.37,0,59.67,0,59.67A187.24,187.24,0,0,0,33.41,71a89.79,89.79,0,0,0,19.32,2.64A31.34,31.34,0,0,0,58.81,78Z"/><path d="M214.17,60.19a15.07,15.07,0,0,1-1.79-9.8c1.42-10.37-4-12.83-4-12.83s3.22,2.94,1.07,12.4a19.85,19.85,0,0,0,1.34,12.83A22,22,0,0,0,214.17,60.19Z"/><path d="M240.27,73.39a42.84,42.84,0,0,1-16.42-4.56,33.84,33.84,0,0,1-3.39-2.07,35.88,35.88,0,0,1-4.63,2.73,28.5,28.5,0,0,0,7.52,4.84,40.77,40.77,0,0,0,11.34,3.23Z"/><path d="M241.19,78c8,.09,16.7-1.46,26.41-4C285.12,69.37,300,59.67,300,59.67A187.24,187.24,0,0,1,266.59,71a89.79,89.79,0,0,1-19.32,2.64A31.34,31.34,0,0,1,241.19,78Z"/><path d="M164.66,88A165.44,165.44,0,0,0,194,84.25a126.79,126.79,0,0,0,24.39-8.57s-11.53,4.8-21.93,5.17c-11.25.41-20.24,1.94-25.34,3.56C166.24,85.94,164.66,88,164.66,88Z"/><path d="M135.34,88A165.44,165.44,0,0,1,106,84.25a126.79,126.79,0,0,1-24.39-8.57s11.53,4.8,21.93,5.17c11.25.41,20.24,1.94,25.34,3.56C133.76,85.94,135.34,88,135.34,88Z"/><path d="M57.26,64.68c5.25-.69,8.78-2.52,9.36-5.17,1-4.53-3.37-6.74-3.37-6.74s6.86,1.08,6.93,7c0,3.87-3,7.83-10.53,9.14A15.64,15.64,0,0,1,57.26,64.68Z"/><path d="M48.72,69.05C37,68.21,30.08,66,22.18,62.5c-9.93-4.45-13.62-8.33-13.62-8.33s4.54,3,14.47,6.47A85.86,85.86,0,0,0,46.19,65,27.21,27.21,0,0,0,48.72,69.05Z"/><path d="M242.74,64.68c-5.24-.69-8.78-2.52-9.36-5.17-1-4.53,3.37-6.74,3.37-6.74s-6.86,1.08-6.93,7c0,3.87,3,7.83,10.53,9.14A15.64,15.64,0,0,0,242.74,64.68Z"/><path d="M251.28,69.05c11.7-.84,18.64-3,26.54-6.55,9.93-4.45,13.62-8.33,13.62-8.33s-4.54,3-14.47,6.47A85.86,85.86,0,0,1,253.81,65,27.21,27.21,0,0,1,251.28,69.05Z"/><path d="M251.05,49.64s-2.24-3.48-10.46-9.16a89.14,89.14,0,0,0-16-9.12,143.12,143.12,0,0,0,22-4.9c24.49-7.23,35.3-14.66,35.3-14.66s-6.08,5.25-21.18,13c-10,5.15-11.19,8.22-9.83,11,1.54,3.16,7.72,1.43,10.08-2.91,1.69-3.11-1.1-7-1.1-7L264,23.84a20,20,0,0,1,5,13.29c-.22,9.11-5.17,12.83-5.17,12.83a23.11,23.11,0,0,0,.88-8.84,22.26,22.26,0,0,0-1.13-5.31,67.64,67.64,0,0,1-6.34,8A57.43,57.43,0,0,1,251.05,49.64Z"/><path d="M257.13,22.47S250.45,19.23,238.6,19c-12.2-.24-23.86,4.77-23.86,4.77s8.57-6.57,23.58-7.44,23.22,4.59,23.22,4.59Z"/><path d="M49,49.64s2.24-3.48,10.46-9.16a89.31,89.31,0,0,1,16-9.12,143.17,143.17,0,0,1-22-4.9C28.87,19.23,18.06,11.8,18.06,11.8s6.08,5.25,21.18,13c10,5.15,11.19,8.22,9.84,11C47.53,39,41.35,37.27,39,32.93c-1.69-3.11,1.1-7,1.1-7L36,23.84a20,20,0,0,0-5,13.29C31.14,46.24,36.09,50,36.09,50a23.35,23.35,0,0,1-.88-8.84,22.26,22.26,0,0,1,1.13-5.31,67.64,67.64,0,0,0,6.34,8A57.43,57.43,0,0,0,49,49.64Z"/><path d="M42.87,22.47S49.55,19.23,61.4,19c12.2-.24,23.86,4.77,23.86,4.77s-8.57-6.57-23.58-7.44-23.23,4.59-23.23,4.59Z"/><path d="M134.92,72.69s-4.26-2.27-2.55-6.07c1.31-2.94,8.69-2.83,11,.65,2.57,3.94.18,7.28-4.54,8.09S127.07,75,127.07,75a102.64,102.64,0,0,1,12.39,4.45A105,105,0,0,1,150,84.9a106.27,106.27,0,0,1,10.54-5.5A102.64,102.64,0,0,1,172.93,75s-7,1.21-11.72.41-7.11-4.15-4.54-8.09c2.27-3.48,9.65-3.59,11-.65,1.7,3.8-2.56,6.07-2.56,6.07s5.7-1.83,5.58-6.23c-.09-3.56-4.53-6.08-9.36-6A13.13,13.13,0,0,0,150,66.54a13.13,13.13,0,0,0-11.3-6.06c-4.83-.1-9.27,2.42-9.36,6C129.22,70.86,134.92,72.69,134.92,72.69ZM150,69.33s3.39,3.46,3.39,7.72S150,84.77,150,84.77s-3.39-3.45-3.39-7.72S150,69.33,150,69.33Z"/></svg>