<svg id="Layer_1" data-name="Layer 1" xmlns="http://www.w3.org/2000/svg" viewBox="0 0 300 100"><defs><style>.cls-1{fill:#010101;}</style></defs><path class="cls-1" d="M150,49.55A18.49,18.49,0,0,0,154.89,40c1.26-6.14,4.34-6.3,5.67-4,2.39,4.12-1.42,10.77,3.15,18.57s8.06,9.24,11.18,14.75c3,5.19,2.43,9.21,2.43,9.21a18.09,18.09,0,0,0-1.52-15.14c-4.57-7.79-11-17.42-5.88-30.49S187.45,20.32,193.33,25s3.16,16.62,3.16,16.62,7.08-14.56-2.51-23.38-20.14-3.33-23.95-.12-6.75,8.71-6.75,8.71-2.74-4.29-6.42-1.6c-1.79,1.3-2.65,4.07-3.86,7.54a22.21,22.21,0,0,1-3,5.76,22.21,22.21,0,0,1-3-5.76c-1.21-3.47-2.08-6.24-3.85-7.54-3.68-2.69-6.43,1.6-6.43,1.6s-2.94-5.5-6.75-8.71-14.37-8.71-24,.12-2.5,23.38-2.5,23.38S100.79,29.72,106.67,25s18.29-5.16,23.41,7.91-1.31,22.7-5.88,30.49a18.09,18.09,0,0,0-1.52,15.14s-.52-4,2.43-9.21c3.12-5.51,6.6-7,11.18-14.75s.76-14.45,3.15-18.57c1.33-2.29,4.41-2.13,5.67,4A18.49,18.49,0,0,0,150,49.55Z"/><path class="cls-1" d="M33.75,16.48C10.66,22.9-1.79,42.58.21,68.3a30.56,30.56,0,0,1,14.37-3,19.1,19.1,0,0,1-1.52-8.25l-3.27.23C8.87,38,17.69,24.9,33.75,16.48Z"/><path class="cls-1" d="M1.37,81.9c2.26-6.17,6.8-10.73,13.94-13.45a24.23,24.23,0,0,0,5.37,8.41C13.48,77.11,7.12,78.59,1.37,81.9Z"/><path class="cls-1" d="M13.13,90A31.86,31.86,0,0,1,23.24,79.42a26.5,26.5,0,0,0,9.49,7.22C24.32,84,18.11,85.73,13.13,90Z"/><path class="cls-1" d="M63.15,33.68a43.35,43.35,0,0,0-13.9-7.24A14.17,14.17,0,0,0,45,31.67C57.11,30.32,63.15,33.68,63.15,33.68Z"/><path class="cls-1" d="M94,59.74c-11.47-3.82-20.84,3-27.59,8.33s-16.72,17.14-33,5C21.68,64.2,22.23,47.61,29.86,38.53c.39-4.1,1-8.18,3-11.68a23.09,23.09,0,0,0-4,2.16c-18.1,12.24-15.24,40.36,0,51.21s29.47,8.71,39.78-2.45,18.88-14.67,27-13.45,13.21,10.55,13.21,10.55S105.47,63.56,94,59.74Z"/><path class="cls-1" d="M76.72,28.25s-11-18-30.63-10.39C25,26.08,31.71,60.29,45.22,60.5c10,.15,12.86-17.16,34.7-18.34,17-.92,28,15.44,28,15.44s-6.83-20-29.33-20.79c-23-.78-27.44,14.06-34.12,10.24-5.05-2.89-5.08-19,5.37-23.39C67.43,16.33,76.72,28.25,76.72,28.25Z"/><path class="cls-1" d="M30.41,42.31s-7,12.25.87,23.24C38.1,75,49.15,74.07,53.2,71.35c4.79-3.21,7.84-11,13.21-16a64.59,64.59,0,0,1,10-7.79,46.59,46.59,0,0,0-17.28,8.71c-5.59,4.76-9.39,11.35-16.4,9.17C29,61.11,30.41,42.31,30.41,42.31Z"/><path class="cls-1" d="M82.64,44.19a32,32,0,0,1-4.25,7.6c-3.92,5.5-11,9.17-11,9.17s15.1-2.91,22.07-13.6c.22-.35.43-.7.61-1A13.78,13.78,0,0,0,82.64,44.19Z"/><path class="cls-1" d="M84.92,11.89c-8.82,5-2.32,14.62-1.31,22.86A28.08,28.08,0,0,1,92,37.62c-.38-7.63-4.7-14.55-2-16.86,2.51-2.17,6.11-2.09,10.42.84a9.62,9.62,0,0,1,4.7-6.54C98.27,10,91.18,8.37,84.92,11.89Z"/><path class="cls-1" d="M117.66,63c3-11.24,8-23.09-2.46-37.3l-.48-.64c-2.8.19-5.67.95-7.55,3l.86,1.05c11.19,14.08,5.36,25.62,5,33.68C112.29,78.69,118.9,86,118.9,86S114.61,74.18,117.66,63Z"/><path class="cls-1" d="M62.49,88.63a32.65,32.65,0,0,0,16.26-11c5.63-7,14.67-8.56,20.48-5.35s9.43,11.62,9.43,11.62S103,78,97.34,77.31c-10.35-1.22-12.63,6-18.62,9C71.93,89.67,62.49,88.63,62.49,88.63Z"/><path class="cls-1" d="M266.25,16.48c23.09,6.42,35.54,26.1,33.54,51.82a30.56,30.56,0,0,0-14.37-3,19.1,19.1,0,0,0,1.52-8.25l3.27.23C291.13,38,282.31,24.9,266.25,16.48Z"/><path class="cls-1" d="M298.63,81.9c-2.26-6.17-6.8-10.73-13.94-13.45a24.38,24.38,0,0,1-5.37,8.41C286.52,77.11,292.88,78.59,298.63,81.9Z"/><path class="cls-1" d="M286.87,90a32,32,0,0,0-10.11-10.58,26.5,26.5,0,0,1-9.49,7.22C275.68,84,281.89,85.73,286.87,90Z"/><path class="cls-1" d="M236.85,33.68a43.33,43.33,0,0,1,13.91-7.24A14.24,14.24,0,0,1,255,31.67C242.89,30.32,236.85,33.68,236.85,33.68Z"/><path class="cls-1" d="M206,59.74c11.47-3.82,20.83,3,27.59,8.33s16.72,17.14,33,5c11.78-8.83,11.23-25.42,3.6-34.5-.39-4.1-1-8.18-3-11.68a22.74,22.74,0,0,1,4,2.16c18.09,12.24,15.24,40.36,0,51.21s-29.47,8.71-39.78-2.45-18.88-14.67-27-13.45-13.21,10.55-13.21,10.55S194.53,63.56,206,59.74Z"/><path class="cls-1" d="M223.28,28.25s11-18,30.63-10.39c21.09,8.22,14.37,42.43.87,42.64-10,.15-12.87-17.16-34.69-18.34-17-.92-28,15.44-28,15.44s6.83-20,29.33-20.79c23-.78,27.44,14.06,34.12,10.24,5.05-2.89,5.08-19-5.37-23.39C232.57,16.33,223.28,28.25,223.28,28.25Z"/><path class="cls-1" d="M269.59,42.31s7,12.25-.87,23.24c-6.82,9.47-17.86,8.52-21.92,5.8-4.79-3.21-7.84-11-13.21-16a64.59,64.59,0,0,0-10-7.79,46.59,46.59,0,0,1,17.28,8.71c5.59,4.76,9.39,11.35,16.4,9.17C271.05,61.11,269.59,42.31,269.59,42.31Z"/><path class="cls-1" d="M217.36,44.19a32,32,0,0,0,4.25,7.6c3.92,5.5,11,9.17,11,9.17s-15.1-2.91-22.07-13.6c-.22-.35-.43-.7-.61-1A13.78,13.78,0,0,1,217.36,44.19Z"/><path class="cls-1" d="M215.08,11.89c8.82,5,2.32,14.62,1.31,22.86a28.08,28.08,0,0,0-8.34,2.87c.38-7.63,4.7-14.55,2-16.86-2.52-2.17-6.11-2.09-10.42.84a9.62,9.62,0,0,0-4.7-6.54C201.73,10,208.82,8.37,215.08,11.89Z"/><path class="cls-1" d="M182.34,63c-3.05-11.24-8-23.09,2.46-37.3l.48-.64c2.8.19,5.67.95,7.55,3L192,29.11c-11.2,14.08-5.36,25.62-5,33.68C187.71,78.69,181.1,86,181.1,86S185.39,74.18,182.34,63Z"/><path class="cls-1" d="M237.51,88.62a32.59,32.59,0,0,1-16.26-11c-5.63-7-14.67-8.56-20.48-5.35s-9.43,11.62-9.43,11.62S197,78,202.66,77.31c10.35-1.22,12.63,6,18.62,9C228.07,89.67,237.51,88.62,237.51,88.62Z"/><path class="cls-1" d="M150,56.28c-9.38,0-17.84,9.53-17,15.36.91,6.25,17,17.89,17,17.89s16.08-11.64,17-17.89C167.84,65.81,159.38,56.28,150,56.28Zm0,28.66s-8.83-9.2-9.59-13.3c-.64-3.5,2.62-8,9.59-8s10,4.57,9.37,8C158.6,75.7,150,84.94,150,84.94Z"/></svg>