<svg id="Layer_1" data-name="Layer 1" xmlns="http://www.w3.org/2000/svg" viewBox="0 0 300 100"><defs><style>.cls-1{fill:#010101;}</style></defs><path class="cls-1" d="M0,40.67c7.24,4.22,14.74,6.43,22.57,6C34.7,26.89,51.84,16.7,72.05,12.34c-22.28,8.93-35.34,24.2-41.67,44.09C15.07,54.6,4.86,49.4,0,40.67Z"/><path class="cls-1" d="M4.34,52.38A64.82,64.82,0,0,0,38,66.44c1.35-15,7.16-28.82,22.13-40-13.4,18.74-15.4,37.06-11.5,55.16C29,76.47,13.64,67.28,4.34,52.38Z"/><path class="cls-1" d="M57.73,84.11C52.25,53.82,55.82,27.3,85.07,11.49c-.18,13.42,4.26,23.86,11.71,32.37,5.1-8.63,11.07-14,17.8-16.61-7.63,9.86-10.66,21.48-8.9,34.93-12.13-4.83-22-11.78-27.12-23C63.88,47.85,59.2,64.67,57.73,84.11Z"/><path class="cls-1" d="M76.39,50c4.77,24.91,31.46,47.28,71,37.69C126,69.66,117.31,47.8,123.47,21.5,111,43.75,113,61.43,123.47,76.44,101,75,85.47,65.94,76.39,50Z"/><path class="cls-1" d="M300,40.67c-7.24,4.22-14.74,6.43-22.57,6C265.3,26.89,248.16,16.7,228,12.34c22.27,8.93,35.33,24.2,41.66,44.09C284.93,54.6,295.14,49.4,300,40.67Z"/><path class="cls-1" d="M295.66,52.38A64.75,64.75,0,0,1,262,66.44c-1.35-15-7.17-28.82-22.14-40,13.41,18.74,15.4,37.06,11.5,55.16C271,76.47,286.36,67.28,295.66,52.38Z"/><path class="cls-1" d="M242.28,84.11c5.47-30.29,1.9-56.81-27.34-72.62.17,13.42-4.27,23.86-11.72,32.37-5.09-8.63-11.07-14-17.79-16.61,7.63,9.86,10.66,21.48,8.89,34.93,12.13-4.83,22-11.78,27.13-23C236.12,47.85,240.81,64.67,242.28,84.11Z"/><path class="cls-1" d="M223.62,50c-4.77,24.91-31.47,47.28-71,37.69C174,69.66,182.7,47.8,176.53,21.5c12.51,22.25,10.49,39.93,0,54.94C199,75,214.53,65.94,223.62,50Z"/><path class="cls-1" d="M150,78.15C170.18,64.73,179.13,28.32,165,10c4,15.25,1.42,29.48-7.16,42.81-3.76-5.23-6.77-13.57-7.87-24.49-1.09,10.92-4.1,19.26-7.86,24.49C133.55,39.48,131,25.25,135,10,120.87,28.32,129.82,64.73,150,78.15Z"/></svg>