<svg id="Layer_1" data-name="Layer 1" xmlns="http://www.w3.org/2000/svg" viewBox="0 0 300 100"><path d="M150,54.13a41.91,41.91,0,0,1-2.32-10.61c-11.32,1.87-21.63-3.91-31.18-15.38.52,8.27,2.74,15.92,7.73,22.53a4.64,4.64,0,0,0-2,2.7c-5.8-4.08-14-6.47-23.45-7.9a42.42,42.42,0,0,1,15.72,10.29c-7.19-2.76-14.43-3.93-21.74-2.6a14.22,14.22,0,0,1,.52-8.34C79.19,43.1,64.11,47.9,47.59,62.58,61.16,56.38,73.76,52.1,84.27,52a17.15,17.15,0,0,0-.39,7.47c19.33-.58,32.09,3.44,38.41,11.94,3-5.61,8.8-9.83,16.71-13a25.11,25.11,0,0,1-9.34-1.62A8.13,8.13,0,0,1,134.48,53a20.8,20.8,0,0,1-5.4-5.93,30.14,30.14,0,0,0,10.41,3.09C141.38,58,145,63.73,150,67.89c5-4.16,8.62-9.88,10.51-17.71a30.14,30.14,0,0,0,10.41-3.09,20.8,20.8,0,0,1-5.4,5.93,8.13,8.13,0,0,1,4.82,3.74A25.11,25.11,0,0,1,161,58.38c7.91,3.17,13.71,7.39,16.71,13,6.32-8.5,19.08-12.52,38.41-11.94a17.15,17.15,0,0,0-.39-7.47c10.51.13,23.11,4.41,36.68,10.61-16.52-14.68-31.6-19.48-45.72-17.76a14.22,14.22,0,0,1,.52,8.34c-7.31-1.33-14.55-.16-21.74,2.6a42.33,42.33,0,0,1,15.72-10.29c-9.5,1.43-17.65,3.82-23.45,7.9a4.64,4.64,0,0,0-2-2.7c5-6.61,7.21-14.26,7.73-22.53C174,39.61,163.64,45.39,152.32,43.52A41.91,41.91,0,0,1,150,54.13Z"/><path d="M179.18,50c25.74-13.62,50.12-10.81,73.2,8-6.89-9.43-12-18.61-13.36-27.3a34.78,34.78,0,0,1,13.16,6.5,55.84,55.84,0,0,0,15.33,25.34c14.24.35,25.3-2.55,32.49-9.42a59.15,59.15,0,0,0-14.94-28.81c-13.18-8.93-34-13.15-59.73-14.29,20,3.79,38.36,8.85,52.14,17.33,5.65,6.33,10.8,13.83,13,22.52-4,3.32-10.55,4.61-17.69,4.33a36.52,36.52,0,0,1-9.43-20.35,79.32,79.32,0,0,0-36.68-19.5c-1.89,5.77-1.23,12.31,1.57,19.5a42.6,42.6,0,0,0-14.67-2.6,30.38,30.38,0,0,1,0-21A39.57,39.57,0,0,0,191.79,31c2.38-2.21,5.37-3.49,9.43-4.12a13.46,13.46,0,0,0,1.31,5.85A42.44,42.44,0,0,0,179.18,50Z"/><path d="M154.85,73.79s9.6,9.44,18.34,5.09c8.91-4.44,9.95-10.61,18.6-13.54s12.84-2.6,12.84-2.6l2.68,1.63a59.91,59.91,0,0,1,13.33-.87,23,23,0,0,0-.1-7.72s13.64,2.5,22,6c12.19,5.12,19.06,5.61,28.5,4.74A61.14,61.14,0,0,0,288.6,62s-12.05,10.94-32.1,13.11-26.33-.43-26.33-.43,18.87-2.71,16-3.8-22.86-3.3-39.37,5.47-21.39,14-33,13.65C156.16,89.38,154.85,73.79,154.85,73.79Z"/><path d="M194.51,87.05c19.79,3.39,40,.45,60.55-8.61-17.53,2.9-32,2.81-43.09-.54C207.66,78.88,201.52,82.37,194.51,87.05Z"/><path d="M120.82,50C95.08,36.4,70.7,39.21,47.62,58c6.89-9.43,12-18.61,13.36-27.3a34.78,34.78,0,0,0-13.16,6.5A55.84,55.84,0,0,1,32.49,62.52C18.24,62.87,7.19,60,0,53.1A59.15,59.15,0,0,1,14.94,24.29c13.18-8.93,34-13.15,59.73-14.29-20,3.79-38.36,8.85-52.14,17.33-5.65,6.33-10.8,13.83-13,22.52,4,3.32,10.55,4.61,17.69,4.33a36.52,36.52,0,0,0,9.43-20.35,79.32,79.32,0,0,1,36.68-19.5c1.89,5.77,1.23,12.31-1.57,19.5a42.6,42.6,0,0,1,14.67-2.6,30.38,30.38,0,0,0,0-21c10,4,17.15,11,21.75,20.79-2.38-2.21-5.37-3.49-9.43-4.12a13.46,13.46,0,0,1-1.31,5.85A42.44,42.44,0,0,1,120.82,50Z"/><path d="M145.15,73.79s-9.6,9.44-18.34,5.09c-8.91-4.44-10-10.61-18.6-13.54s-12.84-2.6-12.84-2.6l-2.68,1.63a59.91,59.91,0,0,0-13.33-.87,22.75,22.75,0,0,1,.1-7.72s-13.64,2.5-22,6C45.26,66.91,38.38,67.4,29,66.53A61.14,61.14,0,0,1,11.4,62s12,10.94,32.09,13.11,26.33-.43,26.33-.43S51,72,53.84,70.86s22.86-3.3,39.37,5.47,21.39,14,33,13.65C143.84,89.38,145.15,73.79,145.15,73.79Z"/><path d="M105.49,87.05c-19.79,3.39-40,.45-60.55-8.61,17.53,2.9,32,2.81,43.09-.54C92.34,78.88,98.48,82.37,105.49,87.05Z"/></svg>