<svg id="Layer_1" data-name="Layer 1" xmlns="http://www.w3.org/2000/svg" viewBox="0 0 300 100"><path d="M150,77.28c6.07-20.58,20.1-37.51,43.66-49.46C184.49,22.76,177.13,16.9,172.1,10c-7.88,3.88-13.48,9.06-16.63,15.62a24.91,24.91,0,0,1,13.47-6.41,21.69,21.69,0,0,0,7.92,7.71c-9.66,4.84-17,10.74-22.18,17.62A17.3,17.3,0,0,1,150,35.73a17.3,17.3,0,0,1-4.68,8.81c-5.19-6.88-12.52-12.78-22.18-17.62a21.69,21.69,0,0,0,7.92-7.71,24.87,24.87,0,0,1,13.47,6.41c-3.15-6.56-8.75-11.74-16.64-15.62-5,6.9-12.39,12.76-21.55,17.82C129.9,39.77,143.93,56.7,150,77.28Z"/><path d="M83,22.54c-12.08-4.37-25.27-7-40-8.43,12.55,3.59,24.32,7.53,34.39,12.23C79.24,25.59,82.09,23.82,83,22.54Z"/><path d="M33.49,23.52a64.9,64.9,0,0,1,19.9,14.12,26.94,26.94,0,0,0,6.93-2.59A63.34,63.34,0,0,0,33.49,23.52Z"/><path d="M69,42.83a34.06,34.06,0,0,1-8.88,3c1.23,1.76,2.57,3.93,3.68,5.86a28.25,28.25,0,0,0,2.57-2.56,30,30,0,0,0,3.78-5.09C69.76,43.65,69.38,43.24,69,42.83Z"/><path d="M97.29,29a19,19,0,0,1-3.14,7.23,47.83,47.83,0,0,1,8.73,8.53C97.53,51.24,90.41,56.41,82,60.56c-.88-1.51-1.76-3-2.66-4.36-2,2.86-5.42,5.82-9.47,8.6q1.62,4.38,2.94,9.18c16.76-4.78,32.14-14.58,46-30A95.08,95.08,0,0,0,97.29,29Z"/><path d="M0,19.38c20.26,2.06,34.76,9.49,42.46,23.23,23.43-4.43,42-15,56.41-30.84-7.78,39-33.39,56.4-63.8,68C34.56,67.34,24,57.78,6.34,50.22c17.16,3.57,29.4,10,36.33,19.49,15.88-6.94,26.15-17.81,33.17-31q-17.93,8.32-43.09,9.34C30,33.76,17.8,25,0,19.38Z"/><path d="M55.46,60.4a49.08,49.08,0,0,0-16.27-9.25A66.44,66.44,0,0,1,50.33,63.6,26,26,0,0,0,55.46,60.4Z"/><path d="M124.12,48.15C114.14,62.27,95,73.34,70.24,80.39A67.43,67.43,0,0,0,62.9,68.51a61.61,61.61,0,0,1-7.67,4.73A42.17,42.17,0,0,1,57.68,90c27.26-2.84,53-14,77.53-31.24A64,64,0,0,0,124.12,48.15Z"/><path d="M217,22.54c12.08-4.37,25.27-7,40-8.43-12.55,3.59-24.32,7.53-34.39,12.23C220.76,25.59,217.91,23.82,217,22.54Z"/><path d="M266.51,23.52a64.9,64.9,0,0,0-19.9,14.12,26.94,26.94,0,0,1-6.93-2.59A63.34,63.34,0,0,1,266.51,23.52Z"/><path d="M231,42.83a34.06,34.06,0,0,0,8.88,3c-1.23,1.76-2.57,3.93-3.68,5.86a27,27,0,0,1-2.57-2.56,30.64,30.64,0,0,1-3.79-5.09C230.24,43.65,230.62,43.24,231,42.83Z"/><path d="M202.71,29a19,19,0,0,0,3.14,7.23,48.22,48.22,0,0,0-8.74,8.53c5.36,6.49,12.47,11.66,20.92,15.81.88-1.51,1.77-3,2.66-4.36,2,2.86,5.42,5.82,9.47,8.6q-1.62,4.38-2.94,9.18c-16.76-4.78-32.14-14.58-45.95-30A95.3,95.3,0,0,1,202.71,29Z"/><path d="M300,19.38c-20.26,2.06-34.76,9.49-42.46,23.23-23.42-4.43-42-15-56.41-30.84,7.78,39,33.39,56.4,63.8,68,.51-12.38,11.08-21.94,28.73-29.5-17.17,3.57-29.4,10-36.33,19.49-15.88-6.94-26.15-17.81-33.17-31q17.93,8.32,43.09,9.34C270,33.76,282.2,25,300,19.38Z"/><path d="M244.54,60.4a49.08,49.08,0,0,1,16.27-9.25A66.44,66.44,0,0,0,249.67,63.6,26,26,0,0,1,244.54,60.4Z"/><path d="M175.88,48.15c10,14.12,29.15,25.19,53.87,32.24a68,68,0,0,1,7.35-11.88,61.61,61.61,0,0,0,7.67,4.73A42.17,42.17,0,0,0,242.32,90c-27.26-2.84-53-14-77.53-31.24A64,64,0,0,1,175.88,48.15Z"/></svg>