{
    "asset" : {
        "generator" : "Khronos glTF Blender I/O v1.7.33",
        "version" : "2.0"
    },
    "scene" : 0,
    "scenes" : [
        {
            "name" : "Scene",
            "nodes" : [
                0,
                1
            ]
        }
    ],
    "nodes" : [
        {
            "mesh" : 0,
            "name" : "can-metal",
            "rotation" : [
                0.7071068286895752,
                0,
                0,
                0.7071067094802856
            ],
            "scale" : [
                0.005348506849259138,
                0.005348506849259138,
                0.004023144952952862
            ]
        },
        {
            "mesh" : 1,
            "name" : "can-label",
            "rotation" : [
                0.7071068286895752,
                0,
                0,
                0.7071067094802856
            ],
            "scale" : [
                0.005348506849259138,
                0.005348506849259138,
                0.004023144952952862
            ]
        }
    ],
    "animations" : [
        {
            "channels" : [
                {
                    "sampler" : 0,
                    "target" : {
                        "node" : 0,
                        "path" : "weights"
                    }
                },
                {
                    "sampler" : 1,
                    "target" : {
                        "node" : 1,
                        "path" : "weights"
                    }
                }
            ],
            "name" : "Animation",
            "samplers" : [
                {
                    "input" : 28,
                    "interpolation" : "LINEAR",
                    "output" : 29
                },
                {
                    "input" : 28,
                    "interpolation" : "LINEAR",
                    "output" : 30
                }
            ]
        }
    ],
    "materials" : [
        {
            "doubleSided" : true,
            "name" : "label-mat.001",
            "pbrMetallicRoughness" : {
                "baseColorFactor" : [
                    0.5879999995231628,
                    0.5879999995231628,
                    0.5879999995231628,
                    1
                ],
                "roughnessFactor" : 0.858578622341156
            }
        },
        {
            "doubleSided" : true,
            "name" : "TT_checker_512x512_UV_GRID.001",
            "pbrMetallicRoughness" : {
                "baseColorTexture" : {
                    "index" : 0
                },
                "metallicFactor" : 0,
                "roughnessFactor" : 0.5
            }
        }
    ],
    "meshes" : [
        {
            "extras" : {
                "targetNames" : [
                    "Can04",
                    "Vertical1",
                    "Vertical2",
                    "Vertical3",
                    "Vertical4"
                ]
            },
            "name" : "can-metal-body.001",
            "primitives" : [
                {
                    "attributes" : {
                        "POSITION" : 0,
                        "NORMAL" : 1,
                        "TEXCOORD_0" : 2
                    },
                    "indices" : 3,
                    "material" : 0,
                    "targets" : [
                        {
                            "POSITION" : 4,
                            "NORMAL" : 5
                        },
                        {
                            "POSITION" : 6,
                            "NORMAL" : 7
                        },
                        {
                            "POSITION" : 8,
                            "NORMAL" : 9
                        },
                        {
                            "POSITION" : 10,
                            "NORMAL" : 11
                        },
                        {
                            "POSITION" : 12,
                            "NORMAL" : 13
                        }
                    ]
                }
            ],
            "weights" : [
                0,
                0,
                0,
                0,
                0
            ]
        },
        {
            "extras" : {
                "targetNames" : [
                    "Can04",
                    "Vertical1",
                    "Vertical2",
                    "Vertical3",
                    "Vertical4"
                ]
            },
            "name" : "can-label-body.001",
            "primitives" : [
                {
                    "attributes" : {
                        "POSITION" : 14,
                        "NORMAL" : 15,
                        "TEXCOORD_0" : 16
                    },
                    "indices" : 17,
                    "material" : 1,
                    "targets" : [
                        {
                            "POSITION" : 18,
                            "NORMAL" : 19
                        },
                        {
                            "POSITION" : 20,
                            "NORMAL" : 21
                        },
                        {
                            "POSITION" : 22,
                            "NORMAL" : 23
                        },
                        {
                            "POSITION" : 24,
                            "NORMAL" : 25
                        },
                        {
                            "POSITION" : 26,
                            "NORMAL" : 27
                        }
                    ]
                }
            ],
            "weights" : [
                0,
                0,
                0,
                0,
                0
            ]
        }
    ],
    "textures" : [
        {
            "sampler" : 0,
            "source" : 0
        }
    ],
    "images" : [
        {
            "bufferView" : 18,
            "mimeType" : "image/png",
            "name" : "TT_checker_512x512_UV_GRID"
        }
    ],
    "accessors" : [
        {
            "bufferView" : 0,
            "componentType" : 5126,
            "count" : 3109,
            "max" : [
                6.167000770568848,
                6.167000770568848,
                0.004017158877104521
            ],
            "min" : [
                -6.1670002937316895,
                -6.1670002937316895,
                -30.490036010742188
            ],
            "type" : "VEC3"
        },
        {
            "bufferView" : 1,
            "componentType" : 5126,
            "count" : 3109,
            "type" : "VEC3"
        },
        {
            "bufferView" : 2,
            "componentType" : 5126,
            "count" : 3109,
            "type" : "VEC2"
        },
        {
            "bufferView" : 3,
            "componentType" : 5123,
            "count" : 15648,
            "type" : "SCALAR"
        },
        {
            "bufferView" : 4,
            "componentType" : 5126,
            "count" : 3109,
            "max" : [
                0.0001837015151977539,
                1.8826199769973755,
                2.629995346069336
            ],
            "min" : [
                -5.960464477539063e-08,
                -0.14828765392303467,
                -1.0640792846679688
            ],
            "type" : "VEC3"
        },
        {
            "bufferView" : 5,
            "componentType" : 5126,
            "count" : 3109,
            "type" : "VEC3"
        },
        {
            "bufferView" : 6,
            "componentType" : 5126,
            "count" : 3109,
            "max" : [
                0.5783721208572388,
                2.1033406257629395,
                4.078010559082031
            ],
            "min" : [
                -0.45935651659965515,
                -0.3862851858139038,
                0
            ],
            "type" : "VEC3"
        },
        {
            "bufferView" : 7,
            "componentType" : 5126,
            "count" : 3109,
            "type" : "VEC3"
        },
        {
            "bufferView" : 8,
            "componentType" : 5126,
            "count" : 3109,
            "max" : [
                0.6175878047943115,
                1.564866065979004,
                11.339439392089844
            ],
            "min" : [
                -1.5869817733764648,
                -1.5104379653930664,
                0
            ],
            "type" : "VEC3"
        },
        {
            "bufferView" : 9,
            "componentType" : 5126,
            "count" : 3109,
            "type" : "VEC3"
        },
        {
            "bufferView" : 10,
            "componentType" : 5126,
            "count" : 3109,
            "max" : [
                1.7656290531158447,
                0.4495934844017029,
                26.0473575592041
            ],
            "min" : [
                -1.3899741172790527,
                -2.5784080028533936,
                0.431191086769104
            ],
            "type" : "VEC3"
        },
        {
            "bufferView" : 11,
            "componentType" : 5126,
            "count" : 3109,
            "type" : "VEC3"
        },
        {
            "bufferView" : 12,
            "componentType" : 5126,
            "count" : 3109,
            "max" : [
                1.1743533611297607,
                0.7025007605552673,
                29.44976234436035
            ],
            "min" : [
                -2.2695682048797607,
                -2.3234493732452393,
                0.42198890447616577
            ],
            "type" : "VEC3"
        },
        {
            "bufferView" : 13,
            "componentType" : 5126,
            "count" : 3109,
            "type" : "VEC3"
        },
        {
            "bufferView" : 14,
            "componentType" : 5126,
            "count" : 348,
            "max" : [
                6.1736860275268555,
                6.1736860275268555,
                -2.370620012283325
            ],
            "min" : [
                -6.1736860275268555,
                -6.1736860275268555,
                -26.910778045654297
            ],
            "type" : "VEC3"
        },
        {
            "bufferView" : 15,
            "componentType" : 5126,
            "count" : 348,
            "type" : "VEC3"
        },
        {
            "bufferView" : 16,
            "componentType" : 5126,
            "count" : 348,
            "type" : "VEC2"
        },
        {
            "bufferView" : 17,
            "componentType" : 5123,
            "count" : 1536,
            "type" : "SCALAR"
        },
        {
            "bufferView" : 19,
            "componentType" : 5126,
            "count" : 348,
            "max" : [
                0,
                0,
                0
            ],
            "min" : [
                0,
                0,
                0
            ],
            "type" : "VEC3"
        },
        {
            "bufferView" : 20,
            "componentType" : 5126,
            "count" : 348,
            "type" : "VEC3"
        },
        {
            "bufferView" : 21,
            "componentType" : 5126,
            "count" : 348,
            "max" : [
                3.00217604637146,
                4.121609210968018,
                3.2831058502197266
            ],
            "min" : [
                -0.17515039443969727,
                -1.8465793132781982,
                -1.3243942260742188
            ],
            "type" : "VEC3"
        },
        {
            "bufferView" : 22,
            "componentType" : 5126,
            "count" : 348,
            "type" : "VEC3"
        },
        {
            "bufferView" : 23,
            "componentType" : 5126,
            "count" : 348,
            "max" : [
                5.058134078979492,
                4.839263439178467,
                9.560541152954102
            ],
            "min" : [
                -3.0249695777893066,
                -2.908135414123535,
                -0.48561859130859375
            ],
            "type" : "VEC3"
        },
        {
            "bufferView" : 24,
            "componentType" : 5126,
            "count" : 348,
            "type" : "VEC3"
        },
        {
            "bufferView" : 25,
            "componentType" : 5126,
            "count" : 348,
            "max" : [
                5.266781806945801,
                4.46232271194458,
                23.507282257080078
            ],
            "min" : [
                -3.081160068511963,
                -3.7597246170043945,
                1.014714241027832
            ],
            "type" : "VEC3"
        },
        {
            "bufferView" : 26,
            "componentType" : 5126,
            "count" : 348,
            "type" : "VEC3"
        },
        {
            "bufferView" : 27,
            "componentType" : 5126,
            "count" : 348,
            "max" : [
                4.961548805236816,
                4.784293174743652,
                25.840723037719727
            ],
            "min" : [
                -3.8801488876342773,
                -3.5245447158813477,
                2.1422908306121826
            ],
            "type" : "VEC3"
        },
        {
            "bufferView" : 28,
            "componentType" : 5126,
            "count" : 348,
            "type" : "VEC3"
        },
        {
            "bufferView" : 29,
            "componentType" : 5126,
            "count" : 116,
            "max" : [
                4.825000002980232
            ],
            "min" : [
                0.033333336313565574
            ],
            "type" : "SCALAR"
        },
        {
            "bufferView" : 30,
            "componentType" : 5126,
            "count" : 580,
            "type" : "SCALAR"
        },
        {
            "bufferView" : 31,
            "componentType" : 5126,
            "count" : 580,
            "type" : "SCALAR"
        }
    ],
    "bufferViews" : [
        {
            "buffer" : 0,
            "byteLength" : 37308,
            "byteOffset" : 0
        },
        {
            "buffer" : 0,
            "byteLength" : 37308,
            "byteOffset" : 37308
        },
        {
            "buffer" : 0,
            "byteLength" : 24872,
            "byteOffset" : 74616
        },
        {
            "buffer" : 0,
            "byteLength" : 31296,
            "byteOffset" : 99488
        },
        {
            "buffer" : 0,
            "byteLength" : 37308,
            "byteOffset" : 130784
        },
        {
            "buffer" : 0,
            "byteLength" : 37308,
            "byteOffset" : 168092
        },
        {
            "buffer" : 0,
            "byteLength" : 37308,
            "byteOffset" : 205400
        },
        {
            "buffer" : 0,
            "byteLength" : 37308,
            "byteOffset" : 242708
        },
        {
            "buffer" : 0,
            "byteLength" : 37308,
            "byteOffset" : 280016
        },
        {
            "buffer" : 0,
            "byteLength" : 37308,
            "byteOffset" : 317324
        },
        {
            "buffer" : 0,
            "byteLength" : 37308,
            "byteOffset" : 354632
        },
        {
            "buffer" : 0,
            "byteLength" : 37308,
            "byteOffset" : 391940
        },
        {
            "buffer" : 0,
            "byteLength" : 37308,
            "byteOffset" : 429248
        },
        {
            "buffer" : 0,
            "byteLength" : 37308,
            "byteOffset" : 466556
        },
        {
            "buffer" : 0,
            "byteLength" : 4176,
            "byteOffset" : 503864
        },
        {
            "buffer" : 0,
            "byteLength" : 4176,
            "byteOffset" : 508040
        },
        {
            "buffer" : 0,
            "byteLength" : 2784,
            "byteOffset" : 512216
        },
        {
            "buffer" : 0,
            "byteLength" : 3072,
            "byteOffset" : 515000
        },
        {
            "buffer" : 0,
            "byteLength" : 11249,
            "byteOffset" : 518072
        },
        {
            "buffer" : 0,
            "byteLength" : 4176,
            "byteOffset" : 529324
        },
        {
            "buffer" : 0,
            "byteLength" : 4176,
            "byteOffset" : 533500
        },
        {
            "buffer" : 0,
            "byteLength" : 4176,
            "byteOffset" : 537676
        },
        {
            "buffer" : 0,
            "byteLength" : 4176,
            "byteOffset" : 541852
        },
        {
            "buffer" : 0,
            "byteLength" : 4176,
            "byteOffset" : 546028
        },
        {
            "buffer" : 0,
            "byteLength" : 4176,
            "byteOffset" : 550204
        },
        {
            "buffer" : 0,
            "byteLength" : 4176,
            "byteOffset" : 554380
        },
        {
            "buffer" : 0,
            "byteLength" : 4176,
            "byteOffset" : 558556
        },
        {
            "buffer" : 0,
            "byteLength" : 4176,
            "byteOffset" : 562732
        },
        {
            "buffer" : 0,
            "byteLength" : 4176,
            "byteOffset" : 566908
        },
        {
            "buffer" : 0,
            "byteLength" : 464,
            "byteOffset" : 571084
        },
        {
            "buffer" : 0,
            "byteLength" : 2320,
            "byteOffset" : 571548
        },
        {
            "buffer" : 0,
            "byteLength" : 2320,
            "byteOffset" : 573868
        }
    ],
    "samplers" : [
        {
            "magFilter" : 9729,
            "minFilter" : 9987
        }
    ],
    "buffers" : [
        {
            "byteLength" : 576188,
            "uri" : "data:application/octet-stream;base64,"
        }
    ]
}
