{
    "asset" : {
        "generator" : "Khronos glTF Blender I/O v1.7.33",
        "version" : "2.0"
    },
    "scene" : 0,
    "scenes" : [
        {
            "name" : "Scene",
            "nodes" : [
                0,
                1
            ]
        }
    ],
    "nodes" : [
        {
            "mesh" : 0,
            "name" : "can-metal",
            "rotation" : [
                0.7071068286895752,
                0,
                0,
                0.7071068286895752
            ],
            "scale" : [
                0.005348506849259138,
                0.005348506849259138,
                0.003990074619650841
            ]
        },
        {
            "mesh" : 1,
            "name" : "can-label",
            "rotation" : [
                0.7071068286895752,
                0,
                0,
                0.7071068286895752
            ],
            "scale" : [
                0.005348506849259138,
                0.005348506849259138,
                0.003990074619650841
            ]
        }
    ],
    "animations" : [
        {
            "channels" : [
                {
                    "sampler" : 0,
                    "target" : {
                        "node" : 0,
                        "path" : "weights"
                    }
                },
                {
                    "sampler" : 1,
                    "target" : {
                        "node" : 1,
                        "path" : "weights"
                    }
                }
            ],
            "name" : "Animation",
            "samplers" : [
                {
                    "input" : 24,
                    "interpolation" : "LINEAR",
                    "output" : 25
                },
                {
                    "input" : 24,
                    "interpolation" : "LINEAR",
                    "output" : 26
                }
            ]
        }
    ],
    "materials" : [
        {
            "doubleSided" : true,
            "name" : "can-mat",
            "pbrMetallicRoughness" : {}
        },
        {
            "doubleSided" : true,
            "name" : "label-mat",
            "pbrMetallicRoughness" : {}
        }
    ],
    "meshes" : [
        {
            "extras" : {
                "targetNames" : [
                    "Can04",
                    "Can03",
                    "Can02",
                    "Can01"
                ]
            },
            "name" : "can-metal-body",
            "primitives" : [
                {
                    "attributes" : {
                        "POSITION" : 0,
                        "NORMAL" : 1,
                        "TEXCOORD_0" : 2
                    },
                    "indices" : 3,
                    "material" : 0,
                    "targets" : [
                        {
                            "POSITION" : 4,
                            "NORMAL" : 5
                        },
                        {
                            "POSITION" : 6,
                            "NORMAL" : 7
                        },
                        {
                            "POSITION" : 8,
                            "NORMAL" : 9
                        },
                        {
                            "POSITION" : 10,
                            "NORMAL" : 11
                        }
                    ]
                }
            ],
            "weights" : [
                0,
                0,
                0,
                0
            ]
        },
        {
            "extras" : {
                "targetNames" : [
                    "Can04",
                    "Can03",
                    "Can02",
                    "Can01"
                ]
            },
            "name" : "can-label-body",
            "primitives" : [
                {
                    "attributes" : {
                        "POSITION" : 12,
                        "NORMAL" : 13,
                        "TEXCOORD_0" : 14
                    },
                    "indices" : 15,
                    "material" : 1,
                    "targets" : [
                        {
                            "POSITION" : 16,
                            "NORMAL" : 17
                        },
                        {
                            "POSITION" : 18,
                            "NORMAL" : 19
                        },
                        {
                            "POSITION" : 20,
                            "NORMAL" : 21
                        },
                        {
                            "POSITION" : 22,
                            "NORMAL" : 23
                        }
                    ]
                }
            ],
            "weights" : [
                0,
                0,
                0,
                0
            ]
        }
    ],
    "accessors" : [
        {
            "bufferView" : 0,
            "componentType" : 5126,
            "count" : 3035,
            "max" : [
                6.167000770568848,
                6.167000770568848,
                0.004017158877104521
            ],
            "min" : [
                -6.1670002937316895,
                -6.1670002937316895,
                -30.490036010742188
            ],
            "type" : "VEC3"
        },
        {
            "bufferView" : 1,
            "componentType" : 5126,
            "count" : 3035,
            "type" : "VEC3"
        },
        {
            "bufferView" : 2,
            "componentType" : 5126,
            "count" : 3035,
            "type" : "VEC2"
        },
        {
            "bufferView" : 3,
            "componentType" : 5123,
            "count" : 15648,
            "type" : "SCALAR"
        },
        {
            "bufferView" : 4,
            "componentType" : 5126,
            "count" : 3035,
            "max" : [
                0.0001837015151977539,
                1.8826199769973755,
                2.629995346069336
            ],
            "min" : [
                -5.960464477539063e-08,
                -0.14828765392303467,
                -1.0640792846679688
            ],
            "type" : "VEC3"
        },
        {
            "bufferView" : 5,
            "componentType" : 5126,
            "count" : 3035,
            "type" : "VEC3"
        },
        {
            "bufferView" : 6,
            "componentType" : 5126,
            "count" : 3035,
            "max" : [
                0.8806895017623901,
                2.799872636795044,
                2.7387237548828125
            ],
            "min" : [
                -0.5602988004684448,
                -3.191596508026123,
                -3.5531058311462402
            ],
            "type" : "VEC3"
        },
        {
            "bufferView" : 7,
            "componentType" : 5126,
            "count" : 3035,
            "type" : "VEC3"
        },
        {
            "bufferView" : 8,
            "componentType" : 5126,
            "count" : 3035,
            "max" : [
                1.445589542388916,
                7.6739606857299805,
                3.560100555419922
            ],
            "min" : [
                -1.0181341171264648,
                -5.493345260620117,
                -8.822925567626953
            ],
            "type" : "VEC3"
        },
        {
            "bufferView" : 9,
            "componentType" : 5126,
            "count" : 3035,
            "type" : "VEC3"
        },
        {
            "bufferView" : 10,
            "componentType" : 5126,
            "count" : 3035,
            "max" : [
                1.3857452869415283,
                10.101485252380371,
                8.863916397094727
            ],
            "min" : [
                -1.128230094909668,
                -5.164897441864014,
                -10.232831001281738
            ],
            "type" : "VEC3"
        },
        {
            "bufferView" : 11,
            "componentType" : 5126,
            "count" : 3035,
            "type" : "VEC3"
        },
        {
            "bufferView" : 12,
            "componentType" : 5126,
            "count" : 350,
            "max" : [
                6.1736860275268555,
                6.1736860275268555,
                -2.370620012283325
            ],
            "min" : [
                -6.1736860275268555,
                -6.1736860275268555,
                -26.910778045654297
            ],
            "type" : "VEC3"
        },
        {
            "bufferView" : 13,
            "componentType" : 5126,
            "count" : 350,
            "type" : "VEC3"
        },
        {
            "bufferView" : 14,
            "componentType" : 5126,
            "count" : 350,
            "type" : "VEC2"
        },
        {
            "bufferView" : 15,
            "componentType" : 5123,
            "count" : 1536,
            "type" : "SCALAR"
        },
        {
            "bufferView" : 16,
            "componentType" : 5126,
            "count" : 350,
            "max" : [
                0,
                0,
                0
            ],
            "min" : [
                0,
                0,
                0
            ],
            "type" : "VEC3"
        },
        {
            "bufferView" : 17,
            "componentType" : 5126,
            "count" : 350,
            "type" : "VEC3"
        },
        {
            "bufferView" : 18,
            "componentType" : 5126,
            "count" : 350,
            "max" : [
                3.5666661262512207,
                8.904848098754883,
                0.078033447265625
            ],
            "min" : [
                -0.04231548309326172,
                -2.598891258239746,
                -3.366703987121582
            ],
            "type" : "VEC3"
        },
        {
            "bufferView" : 19,
            "componentType" : 5126,
            "count" : 350,
            "type" : "VEC3"
        },
        {
            "bufferView" : 20,
            "componentType" : 5126,
            "count" : 350,
            "max" : [
                2.964062452316284,
                10.841140747070312,
                2.739583969116211
            ],
            "min" : [
                -0.8150997161865234,
                -4.6867523193359375,
                -6.606075286865234
            ],
            "type" : "VEC3"
        },
        {
            "bufferView" : 21,
            "componentType" : 5126,
            "count" : 350,
            "type" : "VEC3"
        },
        {
            "bufferView" : 22,
            "componentType" : 5126,
            "count" : 350,
            "max" : [
                2.931204319000244,
                10.93893814086914,
                5.003639221191406
            ],
            "min" : [
                -0.6819939613342285,
                -4.351223945617676,
                -7.734777450561523
            ],
            "type" : "VEC3"
        },
        {
            "bufferView" : 23,
            "componentType" : 5126,
            "count" : 350,
            "type" : "VEC3"
        },
        {
            "bufferView" : 24,
            "componentType" : 5126,
            "count" : 125,
            "max" : [
                4.833333333333333
            ],
            "min" : [
                0.7
            ],
            "type" : "SCALAR"
        },
        {
            "bufferView" : 25,
            "componentType" : 5126,
            "count" : 500,
            "type" : "SCALAR"
        },
        {
            "bufferView" : 26,
            "componentType" : 5126,
            "count" : 500,
            "type" : "SCALAR"
        }
    ],
    "bufferViews" : [
        {
            "buffer" : 0,
            "byteLength" : 36420,
            "byteOffset" : 0
        },
        {
            "buffer" : 0,
            "byteLength" : 36420,
            "byteOffset" : 36420
        },
        {
            "buffer" : 0,
            "byteLength" : 24280,
            "byteOffset" : 72840
        },
        {
            "buffer" : 0,
            "byteLength" : 31296,
            "byteOffset" : 97120
        },
        {
            "buffer" : 0,
            "byteLength" : 36420,
            "byteOffset" : 128416
        },
        {
            "buffer" : 0,
            "byteLength" : 36420,
            "byteOffset" : 164836
        },
        {
            "buffer" : 0,
            "byteLength" : 36420,
            "byteOffset" : 201256
        },
        {
            "buffer" : 0,
            "byteLength" : 36420,
            "byteOffset" : 237676
        },
        {
            "buffer" : 0,
            "byteLength" : 36420,
            "byteOffset" : 274096
        },
        {
            "buffer" : 0,
            "byteLength" : 36420,
            "byteOffset" : 310516
        },
        {
            "buffer" : 0,
            "byteLength" : 36420,
            "byteOffset" : 346936
        },
        {
            "buffer" : 0,
            "byteLength" : 36420,
            "byteOffset" : 383356
        },
        {
            "buffer" : 0,
            "byteLength" : 4200,
            "byteOffset" : 419776
        },
        {
            "buffer" : 0,
            "byteLength" : 4200,
            "byteOffset" : 423976
        },
        {
            "buffer" : 0,
            "byteLength" : 2800,
            "byteOffset" : 428176
        },
        {
            "buffer" : 0,
            "byteLength" : 3072,
            "byteOffset" : 430976
        },
        {
            "buffer" : 0,
            "byteLength" : 4200,
            "byteOffset" : 434048
        },
        {
            "buffer" : 0,
            "byteLength" : 4200,
            "byteOffset" : 438248
        },
        {
            "buffer" : 0,
            "byteLength" : 4200,
            "byteOffset" : 442448
        },
        {
            "buffer" : 0,
            "byteLength" : 4200,
            "byteOffset" : 446648
        },
        {
            "buffer" : 0,
            "byteLength" : 4200,
            "byteOffset" : 450848
        },
        {
            "buffer" : 0,
            "byteLength" : 4200,
            "byteOffset" : 455048
        },
        {
            "buffer" : 0,
            "byteLength" : 4200,
            "byteOffset" : 459248
        },
        {
            "buffer" : 0,
            "byteLength" : 4200,
            "byteOffset" : 463448
        },
        {
            "buffer" : 0,
            "byteLength" : 500,
            "byteOffset" : 467648
        },
        {
            "buffer" : 0,
            "byteLength" : 2000,
            "byteOffset" : 468148
        },
        {
            "buffer" : 0,
            "byteLength" : 2000,
            "byteOffset" : 470148
        }
    ],
    "buffers" : [
        {
            "byteLength" : 472148,
            "uri" : "data:application/octet-stream;base64,"
        }
    ]
}
