<svg id="Layer_1" data-name="Layer 1" xmlns="http://www.w3.org/2000/svg" viewBox="0 0 300 100"><path d="M150,41.55C139.81,17.25,112.14,8,83.9,10.34c11.23,1.55,23.56,4.35,33.29,12.79,16.16,5.33,26.39,15,32.81,29.8,6.42-14.8,16.65-24.47,32.81-29.8,9.73-8.44,22.06-11.24,33.29-12.79C187.86,8,160.2,17.25,150,41.55Z"/><path d="M264,39.31c11.28,8.31,16.65,17.75,15.71,28.4-14.87,7-40.82,9.26-61.43,6.33-2-12.51-9.17-23.11-23.56-31.08-7.87,8.9-22.87,15.21-43.2,19.57,18-7.92,31.8-18.32,39.27-32.62,22.56,9.7,36.16,21.34,39,35.3,10.85,2.21,23.4.56,37.31-4.22A26.26,26.26,0,0,0,264,39.31Z"/><path d="M257.52,34.13c-16-6.71-33.86-8.16-50.78.38l-12.35-5.37C215.46,18.06,240.68,19.74,257.52,34.13Z"/><path d="M281.64,21.66c2.34,8.65,1.76,16.64-3.37,23.6C259.47,17.82,221.61,9.38,188,25.88a74.07,74.07,0,0,1,88.92,5A40,40,0,0,0,281.64,21.66Z"/><path d="M285.38,65.85c15.2-15.61,18.74-30.84,9.72-45.66C296.23,33.88,293,44,282.2,53.13A26.88,26.88,0,0,1,285.38,65.85Z"/><path d="M263.31,76.21c-35.33,7-69.4,6.78-102.11-1.15q44.94,18.52,95.19,14.07C260.87,85.14,263,80.81,263.31,76.21Z"/><path d="M212.07,67a14.7,14.7,0,0,1-5.8,7.17A117.81,117.81,0,0,1,156,68.79c16.47,2.24,30.83,2,42.26-1.66,4.39-2.86,6.22-7,7.29-11.51C208.85,59.17,211.23,62.92,212.07,67Z"/><path d="M261.81,54.6c-8.24,3.26-17.89,4.71-29.4,5.35a23,23,0,0,0-5.19-9.61,121.94,121.94,0,0,0,34-5.72C262.45,48.29,262.9,51.71,261.81,54.6Z"/><path d="M258.92,40.27a28.64,28.64,0,0,0-13.47-6.39c-12.28-2.56-25.38-.71-31.7,3.51a39.65,39.65,0,0,1,12,9.79C240.59,45.53,252.84,43.45,258.92,40.27Z"/><path d="M36,39.31c-11.28,8.31-16.65,17.75-15.71,28.4C35.2,74.68,61.16,77,81.76,74c2-12.51,9.17-23.11,23.57-31.08,7.86,8.9,22.86,15.21,43.19,19.57-18-7.92-31.8-18.32-39.27-32.62-22.55,9.7-36.16,21.34-39,35.3C59.41,67.42,46.87,65.77,33,61A26.26,26.26,0,0,1,36,39.31Z"/><path d="M42.49,34.13c16-6.71,33.85-8.16,50.77.38l12.35-5.37C84.55,18.06,59.32,19.74,42.49,34.13Z"/><path d="M18.37,21.66C16,30.31,16.6,38.3,21.73,45.26c18.8-27.44,56.66-35.88,90.32-19.38a74.07,74.07,0,0,0-88.92,5A39.54,39.54,0,0,1,18.37,21.66Z"/><path d="M14.62,65.85C-.58,50.24-4.12,35,4.9,20.19,3.78,33.88,7,44,17.8,53.13A27,27,0,0,0,14.62,65.85Z"/><path d="M36.69,76.21c35.33,7,69.4,6.78,102.11-1.15Q93.86,93.59,43.61,89.13C39.13,85.14,37,80.81,36.69,76.21Z"/><path d="M87.93,67a14.76,14.76,0,0,0,5.8,7.17A117.87,117.87,0,0,0,144,68.79c-16.48,2.24-30.84,2-42.27-1.66-4.39-2.86-6.22-7-7.29-11.51C91.16,59.17,88.77,62.92,87.93,67Z"/><path d="M38.19,54.6c8.24,3.26,17.89,4.71,29.4,5.35a23,23,0,0,1,5.2-9.61,121.94,121.94,0,0,1-34-5.72C37.55,48.29,37.1,51.71,38.19,54.6Z"/><path d="M41.09,40.27a28.57,28.57,0,0,1,13.46-6.39c12.28-2.56,25.39-.71,31.7,3.51a39.77,39.77,0,0,0-12,9.79C59.41,45.53,47.17,43.45,41.09,40.27Z"/></svg>