<svg id="Layer_1" data-name="Layer 1" xmlns="http://www.w3.org/2000/svg" viewBox="0 0 300 100"><path d="M150,61.89a10.91,10.91,0,0,1,4.66-8.68c4.91-3.64,9.83-6.07,14.49-14.4s3.44-14.93,3.44-14.93-6.87,3.13-13,.35C150.45,20.1,150,10.46,150,10.46s-.44,9.64-9.57,13.77c-6.14,2.78-13-.35-13-.35s-1.23,6.6,3.44,14.93,9.58,10.76,14.49,14.4A10.87,10.87,0,0,1,150,61.89Z"/><path d="M75,88.44c-41.59-15-56.34-54.84-3.27-62,17,7.89,32.12,7.51,45.2-1.62,1.8,12.85,9.63,23.49,21.62,32.62-9.71-3.36-19.34-7.35-28.17-18C96.26,43.94,82,43.51,67.48,38.23,42.92,44.94,48.48,71.32,75,88.44Z"/><path d="M37.34,32.91c7.77-10.07,23.43-18.74,47.83-18,8.7,8.42,17.45,10.1,26.2,8.1C100.08,27.68,89,27.75,78.29,20.41,60.11,20.18,45.86,25.73,37.34,32.91Z"/><path d="M8.85,10c-.34,15.53,7.93,28.68,24.93,37.27a15.94,15.94,0,0,1,4-8.54C22.82,31.78,12.07,21.69,8.85,10Z"/><path d="M123.82,58.59a66.38,66.38,0,0,1-17-11.34,130.47,130.47,0,0,1-47.68-1.44,15.84,15.84,0,0,0-3.17,8.95c13.37,2.84,29.59,4,48.72,2.9a36.27,36.27,0,0,0,11.46,6.83c7.5,2.86,15.23,4.77,17.36,11.69A13.29,13.29,0,0,1,130,89.48s9-2.55,10.16-12.15S134,63.22,123.82,58.59Z"/><path d="M0,24.92C-.2,45.6,15.26,62.73,41.82,71a29,29,0,0,1-7.67-13.28C16.23,50.11,4,38.16,0,24.92Z"/><path d="M99.74,64.49a143.36,143.36,0,0,1-42.22-.7,33.4,33.4,0,0,0,7.95,11.85A179.09,179.09,0,0,0,100,75.08c.54,5.72-4.34,10.57-12.28,14.92,13.69-2.83,24.46-7.47,25.3-18.22C106.88,69.47,102.25,67.05,99.74,64.49Z"/><path d="M225,88.44c41.6-15,56.34-54.84,3.27-62-17,7.89-32.12,7.51-45.2-1.62-1.79,12.85-9.63,23.49-21.62,32.62,9.71-3.36,19.35-7.35,28.17-18,14.14,4.56,28.44,4.13,42.91-1.15C257.09,44.94,251.52,71.32,225,88.44Z"/><path d="M262.66,32.91c-7.77-10.07-23.42-18.74-47.83-18-8.7,8.42-17.44,10.1-26.2,8.1,11.29,4.72,22.37,4.79,33.08-2.55C239.89,20.18,254.14,25.73,262.66,32.91Z"/><path d="M291.16,10c.33,15.53-7.94,28.68-24.94,37.27a15.94,15.94,0,0,0-4-8.54C277.18,31.78,287.93,21.69,291.16,10Z"/><path d="M176.18,58.59a66.15,66.15,0,0,0,17-11.34,130.53,130.53,0,0,0,47.69-1.44,15.82,15.82,0,0,1,3.16,8.95c-13.36,2.84-29.59,4-48.71,2.9a36.4,36.4,0,0,1-11.47,6.83c-7.5,2.86-15.23,4.77-17.36,11.69A13.29,13.29,0,0,0,170,89.48s-9-2.55-10.16-12.15S166,63.22,176.18,58.59Z"/><path d="M300,24.92c.2,20.68-15.26,37.81-41.82,46a29,29,0,0,0,7.68-13.28C283.77,50.11,296,38.16,300,24.92Z"/><path d="M200.26,64.49a143.36,143.36,0,0,0,42.22-.7,33.27,33.27,0,0,1-7.95,11.85A179.09,179.09,0,0,1,200,75.08c-.54,5.72,4.34,10.57,12.28,14.92-13.69-2.83-24.45-7.47-25.3-18.22C193.12,69.47,197.75,67.05,200.26,64.49Z"/></svg>