<svg id="Layer_1" data-name="Layer 1" xmlns="http://www.w3.org/2000/svg" viewBox="0 0 300 100"><path d="M150,31.79c2,22.53,5.87,43,14.74,57.55-7.08-4.24-12.3-11.82-14.74-24.43-2.44,12.61-7.66,20.19-14.74,24.43C144.13,74.75,148,54.32,150,31.79Z"/><path d="M14.57,70.81C24.75,78.3,37.34,82.63,50.43,84.3a27,27,0,0,1-5.75-7A96.65,96.65,0,0,1,14.57,70.81Z"/><path d="M112.77,60.68C93.09,70.62,75.11,75.81,58.54,77.1c.73,2.9,2.68,5.45,4.35,8.12,14.41-.2,30.31-3.35,47.63-9.34,9,3.37,14.22,8.27,17.24,14.12C128.23,78.66,124.22,68.6,112.77,60.68Z"/><path d="M1.08,56.15c10.17,7.58,24.44,11.78,39.67,12.08a22.21,22.21,0,0,1-2-7.25A92.37,92.37,0,0,1,1.08,56.15Z"/><path d="M57.93,57.19a17.82,17.82,0,0,0-.69,9.88c12.46-2,24.59-6.8,34.47-14.54-4.17-2.36-9.07-3.88-14-5.51A66.09,66.09,0,0,1,57.93,57.19Z"/><path d="M122,25.2a79.25,79.25,0,0,0-30,5.07c-.79,1.48-1.65,2.9-2.57,4.28a61.36,61.36,0,0,1,11.34,9.19,58.35,58.35,0,0,0,4-5.32A27.32,27.32,0,0,1,116,37.33c13.72,12.42,17.66,26,15.49,40.36C139.89,62.09,138.5,39.68,122,25.2Z"/><path d="M110.77,58.33C95.53,43,79.3,30.94,61.3,25.2,37.06,41.31,37.2,64.87,57.05,86.92,49,69.78,50.3,52.53,63.3,39.5,80.73,41.89,96.61,49.56,110.77,58.33Z"/><path d="M68.29,70.09a87.21,87.21,0,0,0,37.92-11c-2.41-1.3-4.87-2.69-7.51-3.83C89.36,62.76,78.55,66.93,68.29,70.09Z"/><path d="M140.25,10c-.42,8.33-2.84,15.61-7.6,21.65a29.81,29.81,0,0,1,3.74,6.82C142.62,30.76,143.87,21.41,140.25,10Z"/><path d="M107.52,46.92c-.34.41-.68.82-1,1.22a60.17,60.17,0,0,1,5.85,6.94,36,36,0,0,0,3.17-2.55c2-.84,4.46-1.93,6.25-2.83A27.59,27.59,0,0,0,117,43.44,67.22,67.22,0,0,1,107.52,46.92Z"/><path d="M0,33.89c9.2,8.42,25,13.24,39.93,13.39a18.62,18.62,0,0,0-1.24,8.24C21.68,51.73,6.8,44.59,0,33.89Z"/><path d="M285.42,70.81c-10.17,7.49-22.76,11.82-35.85,13.49a27,27,0,0,0,5.75-7A96.53,96.53,0,0,0,285.42,70.81Z"/><path d="M187.23,60.68c19.68,9.94,37.66,15.13,54.23,16.42-.73,2.9-2.68,5.45-4.35,8.12-14.42-.2-30.31-3.35-47.63-9.34-9,3.37-14.22,8.27-17.24,14.12C171.77,78.66,175.78,68.6,187.23,60.68Z"/><path d="M298.92,56.15c-10.17,7.58-24.45,11.78-39.67,12.08a22,22,0,0,0,2-7.25A92.42,92.42,0,0,0,298.92,56.15Z"/><path d="M242.07,57.19a17.91,17.91,0,0,1,.69,9.88c-12.47-2-24.59-6.8-34.47-14.54,4.17-2.36,9.07-3.88,14-5.51A66.09,66.09,0,0,0,242.07,57.19Z"/><path d="M178,25.2a79.25,79.25,0,0,1,30,5.07c.79,1.48,1.65,2.9,2.57,4.28a61.79,61.79,0,0,0-11.35,9.19,58.26,58.26,0,0,1-4-5.32A27.34,27.34,0,0,0,184,37.33c-13.72,12.42-17.66,26-15.49,40.36C160.11,62.09,161.5,39.68,178,25.2Z"/><path d="M189.23,58.33C204.47,43,220.7,30.94,238.7,25.2c24.24,16.11,24.1,39.67,4.25,61.72,8-17.14,6.75-34.39-6.25-47.42C219.26,41.89,203.39,49.56,189.23,58.33Z"/><path d="M231.71,70.09a87.21,87.21,0,0,1-37.92-11c2.41-1.3,4.86-2.69,7.51-3.83C210.64,62.76,221.45,66.93,231.71,70.09Z"/><path d="M159.75,10c.42,8.33,2.84,15.61,7.6,21.65a29.81,29.81,0,0,0-3.74,6.82C157.37,30.76,156.13,21.41,159.75,10Z"/><path d="M192.48,46.92c.34.41.68.82,1,1.22a61.31,61.31,0,0,0-5.86,6.94,37.27,37.27,0,0,1-3.16-2.55c-2-.84-4.46-1.93-6.25-2.83A27.59,27.59,0,0,1,183,43.44,67.22,67.22,0,0,0,192.48,46.92Z"/><path d="M300,33.89c-9.2,8.42-25,13.24-39.94,13.39a18.64,18.64,0,0,1,1.25,8.24C278.32,51.73,293.2,44.59,300,33.89Z"/></svg>