<svg id="Layer_1" data-name="Layer 1" xmlns="http://www.w3.org/2000/svg" viewBox="0 0 300 100"><path d="M300,37.24a76.52,76.52,0,0,0-30.52,7.85c-16,7.87-22.43,20-22.43,20s-6.71-6.51-10-20.43A64.1,64.1,0,0,1,236,20.17a101,101,0,0,0,4.16,20.43c3.24,9.66,6.94,13.7,6.94,13.7s5.32-8.76,20.81-13.7A78.44,78.44,0,0,1,300,37.24Z"/><path d="M288.9,25.49s-24.63.82-53.65,18.26C211,58.34,201.8,77.88,201.8,77.88s-7.55-7.19-9.41-25.15a54.17,54.17,0,0,1,6.17-31.14s-4.14,16.74-2.15,28.15c2.15,12.42,5.39,16.16,5.39,16.16s8.25-14.29,31.6-27.09C261.78,23.26,288.9,25.49,288.9,25.49Z"/><path d="M227.39,30.28S203.8,37.69,183,54.75s-28.45,32.56-28.45,32.56-3.24-9-2.55-22.46,7.17-25.37,7.17-25.37a164.27,164.27,0,0,0-2.77,18.64,63.56,63.56,0,0,0,.46,13s6-8.92,23.36-21.1A120.74,120.74,0,0,1,227.39,30.28Z"/><path d="M194.32,78.55a71.34,71.34,0,0,0-18.49,3.37C166.34,85.06,161.49,90,161.49,90s-.7-15.27,7.17-35.48,16-31,16-31-8.55,17.74-12.48,32.33-3.71,22.9-3.71,22.9,2.55-1.34,10.87-1.57A65.65,65.65,0,0,1,194.32,78.55Z"/><path d="M238.72,67.1s-9.46.94-16.65,4a47,47,0,0,0-12.95,8.53s-2.08-13.92,3-32.78a87,87,0,0,1,15.72-31.21s-8.32,15.05-11.79,31.44-2.54,22.45-2.54,22.45,3-1.8,11.1-2.92A39.71,39.71,0,0,1,238.72,67.1Z"/><path d="M162.33,57.22a134.89,134.89,0,0,1,8.95-22.15A139,139,0,0,1,182.07,17.7a74.84,74.84,0,0,0-13.73,1.8c-7.09,1.72-10.48,4.34-10.48,4.34a72.38,72.38,0,0,0-4.62,12.72,65.14,65.14,0,0,0-1.54,13,81.73,81.73,0,0,1,4-13.47c2.94-6.74,5.25-9.58,5.25-9.58a40.33,40.33,0,0,1,6.31-2.1,30.66,30.66,0,0,1,5.71-.9,71.74,71.74,0,0,0-7,15.61A89,89,0,0,0,162.33,57.22Z"/><path d="M206.58,31.4a47.39,47.39,0,0,1,5.9-12.12,56.5,56.5,0,0,1,6.58-7.86s-4.62-.9-15.1.44c-7.15.92-10.64,2.47-10.64,2.47a43.05,43.05,0,0,0-4.47,10.33,58.54,58.54,0,0,0-1.54,9.77,72.75,72.75,0,0,1,4-10.1,31.16,31.16,0,0,1,4.31-6.63A41.41,41.41,0,0,1,203,16a59.93,59.93,0,0,1,7.52-.56A23.46,23.46,0,0,0,207.73,22,42.29,42.29,0,0,0,206.58,31.4Z"/><path d="M274.1,16.51a99.39,99.39,0,0,0-18.81-5.39c-11.1-2.1-17.26-.6-17.26-.6a30.77,30.77,0,0,0,1.73,7.07,20.72,20.72,0,0,0,3,5.5s2.71-3,12.6-5.72A44.41,44.41,0,0,1,274.1,16.51Z"/><path d="M0,37.24a76.52,76.52,0,0,1,30.52,7.85c16,7.87,22.44,20,22.44,20s6.7-6.51,9.94-20.43a64.1,64.1,0,0,0,1.15-24.48A101,101,0,0,1,59.89,40.6C56.65,50.26,53,54.3,53,54.3s-5.32-8.76-20.82-13.7A78.44,78.44,0,0,0,0,37.24Z"/><path d="M11.1,25.49s24.63.82,53.65,18.26C89,58.34,98.2,77.88,98.2,77.88s7.56-7.19,9.41-25.15a54.17,54.17,0,0,0-6.17-31.14s4.14,16.74,2.16,28.15c-2.16,12.42-5.4,16.16-5.4,16.16S90,51.61,66.6,38.81C38.22,23.26,11.1,25.49,11.1,25.49Z"/><path d="M72.61,30.28S96.2,37.69,117,54.75s28.44,32.56,28.44,32.56,3.24-9,2.55-22.46-7.17-25.37-7.17-25.37a166.77,166.77,0,0,1,2.77,18.64,63.56,63.56,0,0,1-.46,13s-6-8.92-23.36-21.1A120.74,120.74,0,0,0,72.61,30.28Z"/><path d="M105.68,78.55a71.45,71.45,0,0,1,18.5,3.37c9.48,3.14,14.34,8.08,14.34,8.08s.69-15.27-7.18-35.48-16-31-16-31,8.55,17.74,12.49,32.33,3.7,22.9,3.7,22.9S129,77.43,120.71,77.2A65.65,65.65,0,0,0,105.68,78.55Z"/><path d="M61.28,67.1s9.46.94,16.65,4a47,47,0,0,1,12.95,8.53s2.08-13.92-3-32.78A86.78,86.78,0,0,0,72.15,15.68s8.32,15.05,11.79,31.44,2.54,22.45,2.54,22.45-3-1.8-11.1-2.92A39.71,39.71,0,0,0,61.28,67.1Z"/><path d="M137.67,57.22a134.34,134.34,0,0,0-8.94-22.15,138.22,138.22,0,0,0-10.8-17.37,74.68,74.68,0,0,1,13.72,1.8c7.1,1.72,10.49,4.34,10.49,4.34a72.38,72.38,0,0,1,4.62,12.72,65.5,65.5,0,0,1,1.55,13,82.22,82.22,0,0,0-4-13.47c-2.93-6.74-5.25-9.58-5.25-9.58a40.25,40.25,0,0,0-6.32-2.1,30.5,30.5,0,0,0-5.7-.9,72,72,0,0,1,7,15.61A89.35,89.35,0,0,1,137.67,57.22Z"/><path d="M93.42,31.4a47.39,47.39,0,0,0-5.9-12.12,56.5,56.5,0,0,0-6.58-7.86s4.62-.9,15.1.44c7.16.92,10.64,2.47,10.64,2.47a43.05,43.05,0,0,1,4.47,10.33,58.54,58.54,0,0,1,1.54,9.77,72.75,72.75,0,0,0-4-10.1,31.16,31.16,0,0,0-4.31-6.63A41.41,41.41,0,0,0,97,16a59.83,59.83,0,0,0-7.51-.56A23.46,23.46,0,0,1,92.27,22,42.29,42.29,0,0,1,93.42,31.4Z"/><path d="M25.9,16.51a99.42,99.42,0,0,1,18.8-5.39C55.81,9,62,10.52,62,10.52a30.77,30.77,0,0,1-1.73,7.07,20.72,20.72,0,0,1-3,5.5s-2.71-3-12.6-5.72A44.41,44.41,0,0,0,25.9,16.51Z"/></svg>