<svg id="Layer_1" data-name="Layer 1" xmlns="http://www.w3.org/2000/svg" viewBox="0 0 300 100"><path d="M108.72,66.15C90.54,74.26,74.74,78.4,51,76.52,28.48,74.73,9.16,64.27,9.16,64.27S23.9,76.33,48.93,79.91s45.3.19,62.15-7.54c2.52-1.15,5.07-2.17,7.57-3.07a20.73,20.73,0,0,1-4.16-5.6C112.59,64.47,110.65,65.29,108.72,66.15ZM174.37,40a115.13,115.13,0,0,0-17.45-4.46A89.91,89.91,0,0,0,150,10a90.3,90.3,0,0,0-6.92,25.5A115.43,115.43,0,0,0,125.63,40a77.47,77.47,0,0,0-15.27,7s0,9,8.69,20.17c7.8,10,22.13,16,22.13,16a52,52,0,0,1-15.81-16.58,41.41,41.41,0,0,1-5.53-16.39A48.2,48.2,0,0,1,130.38,46a101.2,101.2,0,0,1,12.14-2.67c0,.57,0,1.15,0,1.73a79.14,79.14,0,0,0,.55,9.28c-2.49.61-9.59,2.47-18.54,5.59a24.61,24.61,0,0,0,3.06,6.58,128.35,128.35,0,0,1,16.94-3.4,85.64,85.64,0,0,0,5.49,17,86.07,86.07,0,0,0,5.48-17,127.72,127.72,0,0,1,16.94,3.4,24.7,24.7,0,0,0,3.08-6.58c-9-3.12-16.06-5-18.55-5.59a79.14,79.14,0,0,0,.55-9.28c0-.58,0-1.16,0-1.73A101.55,101.55,0,0,1,169.62,46a47.91,47.91,0,0,1,10.54,4.15,41.41,41.41,0,0,1-5.53,16.39,52,52,0,0,1-15.81,16.58s14.33-6,22.13-16c8.69-11.17,8.69-20.17,8.69-20.17A77.47,77.47,0,0,0,174.37,40ZM249,76.52c-23.7,1.88-39.5-2.26-57.67-10.37q-2.92-1.29-5.78-2.45a20.73,20.73,0,0,1-4.16,5.6c2.5.9,5.05,1.92,7.57,3.07,16.85,7.73,37.13,11.12,62.15,7.54s39.77-15.64,39.77-15.64S271.52,74.73,249,76.52Z"/><path d="M141.7,13s-2.89,8.1-17.91,14.32C110.24,33,97.72,35.44,86.92,39c-9.08,3-13.7,6.41-13.7,6.41s2.11,17.9-9,27.51A42.7,42.7,0,0,1,34,83.3c-9.48-.37-17.38-6.22-17.38-6.22a29.43,29.43,0,0,0,17.64,8.48C44.33,86.74,61.63,85,72.7,72.94s9.21-24.88,9.21-24.88,5.27-4,17.92-7.91c11.67-3.65,21.09-6.37,30.55-12.63C140.92,20.55,141.7,13,141.7,13Z"/><path d="M71.11,46.08,71,51.55s-16.2,6.31-39.38.66S0,32.24,0,32.24,11.59,44.3,32.4,48.82A72.4,72.4,0,0,0,71.11,46.08Z"/><path d="M2.9,48.72S20.68,64.27,58.21,62c32-1.93,48.2-13.85,48.2-13.85l1.38,6.92A123.76,123.76,0,0,1,60.84,66.15C18.31,67.66,2.9,48.72,2.9,48.72Z"/><path d="M66.37,85.75s12.12.65,29.51-2.82c16.26-3.26,22.91-7.54,22.91-7.54a51.36,51.36,0,0,0,10.53,7.25,60.08,60.08,0,0,0,14.23,5.18s-13.24,2.74-38.19,2.08A240.76,240.76,0,0,1,66.37,85.75Z"/><path d="M158.3,13s2.89,8.1,17.91,14.32C189.76,33,202.28,35.44,213.08,39c9.09,3,13.7,6.41,13.7,6.41s-2.11,17.9,8.95,27.51A42.7,42.7,0,0,0,266,83.3c9.48-.37,17.38-6.22,17.38-6.22a29.43,29.43,0,0,1-17.64,8.48c-10.1,1.18-27.39-.56-38.46-12.62s-9.22-24.88-9.22-24.88-5.26-4-17.91-7.91c-11.67-3.65-21.09-6.37-30.55-12.63C159.09,20.55,158.3,13,158.3,13Z"/><path d="M228.88,46.08l.14,5.47s16.19,6.31,39.37.66,31.61-20,31.61-20S288.41,44.3,267.6,48.82A72.44,72.44,0,0,1,228.88,46.08Z"/><path d="M297.1,48.72S279.32,64.27,241.79,62c-32-1.93-48.2-13.85-48.2-13.85l-1.38,6.92a123.74,123.74,0,0,0,46.94,11.07C281.69,67.66,297.1,48.72,297.1,48.72Z"/><path d="M233.62,85.75s-12.11.65-29.49-2.82c-16.27-3.26-22.92-7.54-22.92-7.54a51.28,51.28,0,0,1-10.54,7.25,59.93,59.93,0,0,1-14.22,5.18s13.24,2.74,38.19,2.08A240.34,240.34,0,0,0,233.62,85.75Z"/></svg>