<svg id="Layer_1" data-name="Layer 1" xmlns="http://www.w3.org/2000/svg" viewBox="0 0 300 100"><path d="M154.75,45.74A55.77,55.77,0,0,1,150,29.41a55.77,55.77,0,0,1-4.75,16.33c-4.48,9.75-10.91,14-10.91,14h0s6.42,4.22,10.91,14A55.77,55.77,0,0,1,150,90a55.77,55.77,0,0,1,4.75-16.33c4.48-9.75,10.91-14,10.91-14h0S159.23,55.49,154.75,45.74Zm3.23,14a17.8,17.8,0,0,0-5.56,7.12A28.42,28.42,0,0,0,150,75.15a28.42,28.42,0,0,0-2.42-8.33A17.77,17.77,0,0,0,142,59.7h0a17.68,17.68,0,0,0,5.57-7.11A28.42,28.42,0,0,0,150,44.26a28.42,28.42,0,0,0,2.42,8.33A17.71,17.71,0,0,0,158,59.7Z"/><path d="M17.5,59.93s31.65-3.07,54.91-9.2c22.2-5.86,33.06-10.6,33.06-10.6a58,58,0,0,1,19.62,12.18A54.9,54.9,0,0,1,137.28,70s-9.34-9.8-17.41-15.54-14.4-7.33-14.4-7.33-10.14,4.12-33.85,8.32C40.29,61,17.5,59.93,17.5,59.93Z"/><path d="M282.5,59.93s-31.65-3.07-54.91-9.2c-22.2-5.86-33.07-10.6-33.07-10.6A58,58,0,0,0,174.9,52.31,55,55,0,0,0,162.72,70s9.34-9.8,17.41-15.54,14.39-7.33,14.39-7.33,10.15,4.12,33.86,8.32C259.71,61,282.5,59.93,282.5,59.93Z"/><path d="M107,39.61s6.86-2.55,16.77-7.4A72.44,72.44,0,0,0,137.18,24S135.76,28.85,127,35.68a70.43,70.43,0,0,1-13,7.39A69.92,69.92,0,0,0,107,39.61Z"/><path d="M193,39.61s-6.86-2.55-16.77-7.4A72.44,72.44,0,0,1,162.82,24s1.42,4.85,10.23,11.68a70.43,70.43,0,0,0,13,7.39A69.92,69.92,0,0,1,193,39.61Z"/><path d="M33.07,68.25s23.45-2.15,44.31-8.12c22.15-6.34,27.84-10.69,27.84-10.69s10.6,4.34,23.42,15.64c13.92,12.28,16.45,23.77,16.45,23.77s-5.06-9.31-20.56-20.4c-12.12-8.66-19.31-9.9-19.31-9.9S95.71,61.68,78,64.88C51.74,69.64,33.07,68.25,33.07,68.25Z"/><path d="M266.93,68.25s-23.45-2.15-44.31-8.12c-22.15-6.34-27.84-10.69-27.84-10.69s-10.6,4.34-23.42,15.64c-13.92,12.28-16.45,23.77-16.45,23.77s5.06-9.31,20.56-20.4c12.12-8.66,19.31-9.9,19.31-9.9s9.51,3.13,27.21,6.33C248.26,69.64,266.93,68.25,266.93,68.25Z"/><path d="M53.13,77.83S91.34,70.71,116,55.26s31.33-29.7,31.33-29.7a57.52,57.52,0,0,1-24.68,33.26C95.37,75.9,53.13,77.83,53.13,77.83Z"/><path d="M246.87,77.83S208.66,70.71,184,55.26s-31.33-29.7-31.33-29.7a57.51,57.51,0,0,0,24.69,33.26C204.63,75.9,246.87,77.83,246.87,77.83Z"/><path d="M0,35.43s15.94,6,39,6c19.94,0,31.33-2.77,31.33-2.77s8.54,3.66,24.89,18.08C114,73.33,117.05,85.9,117.05,85.9A196.23,196.23,0,0,0,90.52,60.24C76,49,67.78,44.8,67.78,44.8s-10.15,2-27.83,1.14C8.39,44.45,0,35.43,0,35.43Z"/><path d="M72,38.45s20.35-4.17,38.23-11.22C132,18.61,144.61,10,144.61,10s-7.83,9.36-31.8,20.49A148.9,148.9,0,0,1,77.59,41.57Z"/><path d="M300,35.43s-15.94,6-39,6c-19.94,0-31.33-2.77-31.33-2.77s-8.54,3.66-24.89,18.08C186,73.33,183,85.9,183,85.9a196.23,196.23,0,0,1,26.53-25.66C224,49,232.22,44.8,232.22,44.8s10.15,2,27.83,1.14C291.61,44.45,300,35.43,300,35.43Z"/><path d="M228,38.45s-20.35-4.17-38.23-11.22C168,18.61,155.39,10,155.39,10s7.83,9.36,31.8,20.49a148.9,148.9,0,0,0,35.22,11.08Z"/><path d="M75.48,82.61A164.65,164.65,0,0,0,100.63,75C113,70,115,66.87,115,66.87A101,101,0,0,1,128,76c7.43,6.54,7.91,11.69,7.91,11.69s-2.8-4.33-10.81-9.54A53,53,0,0,0,115,73.2s-3.29,2.22-14.24,5A144.27,144.27,0,0,1,75.48,82.61Z"/><path d="M224.52,82.61A164.65,164.65,0,0,1,199.37,75C187,70,185,66.87,185,66.87A101,101,0,0,0,172,76c-7.43,6.54-7.91,11.69-7.91,11.69s2.8-4.33,10.81-9.54A53,53,0,0,1,185,73.2s3.29,2.22,14.24,5A144.27,144.27,0,0,0,224.52,82.61Z"/></svg>