<svg id="Layer_1" data-name="Layer 1" xmlns="http://www.w3.org/2000/svg" viewBox="0 0 300 100"><path d="M85.1,53a22.38,22.38,0,0,1-6.83,6.24C96.35,56,99.84,43.62,99.84,43.62S95.8,49.83,85.1,53Z"/><path d="M59.62,53.83A10.56,10.56,0,0,0,59.43,56a24.55,24.55,0,0,0,4.33-1.53C62.31,54.32,60.93,54.09,59.62,53.83Z"/><path d="M63.17,15.73c-19.41-3-37,10.23-32.66,24.41,2.15,7.07,8.18,12.47,15.41,15.75a16.47,16.47,0,0,1,1.65-7,17.5,17.5,0,0,1-7.2-10.57c-1.87-8.49,10.07-17.28,23-14.72,8.15,1.61,12.79,5.4,14.34,10.24a44.53,44.53,0,0,0,9.34-2.34C83.88,24,75.62,17.67,63.17,15.73Z"/><path d="M41.19,60.52C10.38,61.68,0,50.37,0,50.37s8.53,15.72,36.36,17A85,85,0,0,0,49,67l.13,0a12.89,12.89,0,0,1-2.85-6.76C44.64,60.33,43,60.45,41.19,60.52Z"/><path d="M77.58,42.69c0,.05,0,.08,0,.12-1.5,4.43-5.16,8.93-10.84,12a40.38,40.38,0,0,1-7.37,3A16.68,16.68,0,0,0,63,64.19a57.14,57.14,0,0,0,10.58-4.3A36.59,36.59,0,0,0,82,53.83,19.94,19.94,0,0,0,87.52,45a28.16,28.16,0,0,0,1-5.23A80.24,80.24,0,0,1,77.58,42.69Z"/><path d="M18.59,74.15c13.25,2.94,25.79,3.84,36.78.31C59.53,78,65.13,80.7,71.8,82.67,52.34,84,34.57,81.19,18.59,74.15Z"/><path d="M76.35,15a25.79,25.79,0,0,1,9.86,1.22c6.93,2.21,9.32,2.26,14.35-.78,3.92-2.36,3.91-5.42,3.91-5.42.37,7.37-3.91,13.32-14,17.51C89.08,22.57,83.75,17.94,76.35,15Z"/><path d="M10.32,49.79s5.36,1.6,9.71.23c3.7-1.17,2.23-4.37,2.31-6.63A8.27,8.27,0,0,1,24,38.63a22.52,22.52,0,0,0,16.79,17.9A47.06,47.06,0,0,1,10.32,49.79Z"/><path d="M9.66,65c12,5.22,25.48,7.06,40.78,4.8a14.83,14.83,0,0,0,2.67,2.64C35.11,75,20.44,72.81,9.66,65Z"/><path d="M214.89,53a22.42,22.42,0,0,0,6.84,6.24c-18.08-3.3-21.58-15.66-21.58-15.66S204.2,49.83,214.89,53Z"/><path d="M240.38,53.83a10.56,10.56,0,0,1,.19,2.19,24.55,24.55,0,0,1-4.33-1.53C237.69,54.32,239.07,54.09,240.38,53.83Z"/><path d="M236.83,15.73c19.41-3,37,10.23,32.66,24.41-2.15,7.07-8.19,12.47-15.41,15.75a16.47,16.47,0,0,0-1.65-7,17.5,17.5,0,0,0,7.2-10.57c1.87-8.49-10.07-17.28-23-14.72-8.15,1.61-12.79,5.4-14.34,10.24a44.68,44.68,0,0,1-9.34-2.34C216.12,24,224.38,17.67,236.83,15.73Z"/><path d="M258.81,60.52C289.62,61.68,300,50.37,300,50.37s-8.53,15.72-36.37,17A84.92,84.92,0,0,1,251,67l-.13,0a12.89,12.89,0,0,0,2.85-6.76C255.36,60.33,257,60.45,258.81,60.52Z"/><path d="M222.42,42.69a.42.42,0,0,0,0,.12c1.5,4.43,5.16,8.93,10.84,12a40.38,40.38,0,0,0,7.37,3A16.68,16.68,0,0,1,237,64.19a57.53,57.53,0,0,1-10.59-4.3A36.74,36.74,0,0,1,218,53.83a19.94,19.94,0,0,1-5.5-8.81,28.16,28.16,0,0,1-1-5.23A80.24,80.24,0,0,0,222.42,42.69Z"/><path d="M281.41,74.15c-13.25,2.94-25.79,3.84-36.78.31-4.16,3.58-9.76,6.24-16.43,8.21C247.66,84,265.43,81.19,281.41,74.15Z"/><path d="M223.65,15a25.79,25.79,0,0,0-9.86,1.22c-6.93,2.21-9.32,2.26-14.35-.78-3.92-2.36-3.91-5.42-3.91-5.42-.38,7.37,3.91,13.32,14,17.51C210.92,22.57,216.26,17.94,223.65,15Z"/><path d="M289.68,49.79s-5.36,1.6-9.71.23c-3.7-1.17-2.23-4.37-2.31-6.63a8.35,8.35,0,0,0-1.7-4.76c-1.61,9.24-8.45,15.67-16.79,17.9A47.06,47.06,0,0,0,289.68,49.79Z"/><path d="M290.34,65c-12,5.22-25.48,7.06-40.78,4.8a14.83,14.83,0,0,1-2.67,2.64C264.89,75,279.56,72.81,290.34,65Z"/><path d="M150.08,85.46s-10.28,0-16-3.95-8.63-9.45-7-11.93A41.12,41.12,0,0,0,133.54,56c2-7.2,0-11.47,0-11.47s-2.11,11.63-13.77,9.69c-8.67-1.44-7.29-12-1.74-17,5.07-4.61,11-6.59,13.15-10.54a14.29,14.29,0,0,0,1.23-8.6s-.51,4.88-7,9.06c-5.35,3.46-14,5.74-19.21,11.62s-5.75,11.94-2.56,17.75,7.29,7.24,6.26,11.85c-.74,3.36-7.91,4.22-10.68,1-2.42-2.84-.31-7.17-.31-7.17a36.27,36.27,0,0,0-6,4.42c-2.67,2.75-6.83,5-15.2,4.72-6.36-.17-16-1.86-20-9.76-3.63-7.15.77-15.11,9.71-18.13s19-3.83,27.89-8.83,14.17-11.27,16-15.22A29.84,29.84,0,0,0,113.71,11a26.87,26.87,0,0,1-5.24,9.53c-3.85,4.42-8.63,8.6-17.87,12s-17.87,3.14-26.81,6.27S49,47.34,48.69,55.94,55.63,74.65,71.5,79.53s29,3.38,35.13,1.75,8.47-4.07,11.09-4,5.69,4.81,13.56,8.48A45.64,45.64,0,0,0,150.23,90ZM79.92,76c6.53-.47,11.61-2.21,14.89-5.5,4.14,4.2,9.9,5.39,16.54,5C100.72,79.12,90.24,79.43,79.92,76Zm37.18-6.12s1.13-4.64-6.78-12.24A9.08,9.08,0,0,1,108,48.58c.51,7.29,12,14,21.78,7.29C127.21,62.79,123,67.4,117.1,69.89ZM149.77,90a45.64,45.64,0,0,0,18.95-4.18c7.87-3.67,10.94-8.37,13.56-8.48s4.93,2.32,11.09,4,19.26,3.13,35.14-1.75,23.11-15,22.8-23.59-6.16-14.06-15.1-17.2-17.57-2.9-26.81-6.27-14-7.55-17.87-12A26.87,26.87,0,0,1,186.29,11a29.84,29.84,0,0,0,2.31,8.37c1.85,3.95,7.09,10.22,16,15.22s18.95,5.81,27.89,8.83,13.34,11,9.71,18.13c-4,7.9-13.62,9.59-20,9.76-8.37.24-12.54-2-15.2-4.72a36.27,36.27,0,0,0-6-4.42s2.11,4.33-.31,7.17c-2.77,3.25-9.94,2.39-10.68-1-1-4.61,3.08-6,6.26-11.85s2.67-11.86-2.56-17.75-13.86-8.16-19.21-11.62c-6.48-4.18-7-9.06-7-9.06a14.29,14.29,0,0,0,1.23,8.6C171,30.61,176.9,32.59,182,37.2c5.55,5,6.93,15.6-1.74,17-11.66,1.94-13.77-9.69-13.77-9.69s-2,4.27,0,11.47a41.12,41.12,0,0,0,6.47,13.56c1.65,2.48-1.23,8-7,11.93s-16,3.95-16,3.95Zm38.88-14.52c6.64.43,12.4-.76,16.54-5,3.28,3.29,8.36,5,14.89,5.5C209.76,79.43,199.28,79.12,188.65,75.47Zm-18.39-19.6c9.76,6.66,21.27,0,21.78-7.29a9.08,9.08,0,0,1-2.36,9.07c-7.91,7.6-6.78,12.24-6.78,12.24C177,67.4,172.79,62.79,170.26,55.87Z"/><path d="M162.6,78c0,4.5-5.65,8.14-12.6,8.14S137.4,82.52,137.4,78,143,69.89,150,69.89,162.6,73.53,162.6,78Z"/><path d="M150,64.93c8.74,0,15.82,5.34,15.82,11.93,0,.29,0,.57,0,.85a10.52,10.52,0,0,0,1.68-5.65c0-7.28-7.82-13.17-17.46-13.17s-17.46,5.89-17.46,13.17a10.52,10.52,0,0,0,1.68,5.65c0-.28,0-.56,0-.85C134.18,70.27,141.26,64.93,150,64.93Z"/><path d="M150,51.63c5.86,0,10.61,3.58,10.61,8a5.44,5.44,0,0,1,0,.57,7.09,7.09,0,0,0,1.13-3.79c0-4.88-5.24-8.83-11.71-8.83s-11.71,4-11.71,8.83a7.09,7.09,0,0,0,1.13,3.79,5.44,5.44,0,0,1,0-.57C139.39,55.21,144.14,51.63,150,51.63Z"/><path d="M150,40.09c5.86,0,10.61,3.58,10.61,8a5.44,5.44,0,0,1,0,.57,7.12,7.12,0,0,0,1.13-3.79C161.71,40,156.47,36,150,36s-11.71,4-11.71,8.84a7.12,7.12,0,0,0,1.13,3.79,5.44,5.44,0,0,1,0-.57C139.39,43.67,144.14,40.09,150,40.09Z"/><path d="M150,30.14c9.15,0,16.56,5.59,16.56,12.49,0,.3,0,.6,0,.89a11,11,0,0,0,1.77-5.92c0-7.61-8.19-13.79-18.29-13.79S131.72,30,131.72,37.6a11,11,0,0,0,1.76,5.92,8.7,8.7,0,0,1,0-.89C133.44,35.73,140.85,30.14,150,30.14Z"/></svg>