<svg id="Layer_1" data-name="Layer 1" xmlns="http://www.w3.org/2000/svg" viewBox="0 0 300 100"><path d="M179.57,43.52C158.71,29.49,163.64,10,163.64,10s-5.31,9.23-5,19.56a32.1,32.1,0,0,0-17.26-.07c.28-10.31-5-19.49-5-19.49s4.93,19.49-15.93,33.52c-19.38,13-56.52,7.79-56.52,7.79s28.9,10.73,54.2,3.27a141.38,141.38,0,0,1,17.7-3.22c1.71-.11,6.43,0,9,4,2.8,4.34,5,13.77,5.09,14,.06-.24,2.29-9.67,5.1-14,3.23-5,9.8-4.06,9.8-4.06h-.06a122.13,122.13,0,0,1,17,3.23c25.31,7.52,54.3-3.24,54.3-3.24S199,56.55,179.57,43.52Zm-44.82,2a22.46,22.46,0,0,0,5.67-9.64,89.67,89.67,0,0,1,19.17,0A22.21,22.21,0,0,0,164.73,45,65.47,65.47,0,0,0,134.75,45.5Zm15.19,23.91h0Z"/><path d="M125,54.67a45.1,45.1,0,0,0,4.4,17.54A40.48,40.48,0,0,0,145,90s-7.63-5.31-7.63-20.21A50.07,50.07,0,0,0,134.84,53,50.68,50.68,0,0,0,125,54.67Z"/><path d="M175,54.67a45.1,45.1,0,0,1-4.4,17.54A40.48,40.48,0,0,1,155.05,90s7.63-5.31,7.63-20.21A50.07,50.07,0,0,1,165.16,53,50.68,50.68,0,0,1,175,54.67Z"/><path d="M185.87,25.18s13.32-5.77,34-4.85c18.21.81,24.7,3.52,24.7,3.52l12.73,7.8a130.22,130.22,0,0,1,21.58.69C293.93,34,300,38.23,300,38.23a88.92,88.92,0,0,0-24.4-2A73.08,73.08,0,0,0,254.74,41s-6.2-11-27.19-15.12S185.87,25.18,185.87,25.18Z"/><path d="M114.13,25.18s-13.31-5.77-34-4.85c-18.21.81-24.7,3.52-24.7,3.52l-12.73,7.8a130.22,130.22,0,0,0-21.58.69C6.07,34,0,38.23,0,38.23a88.92,88.92,0,0,1,24.4-2A73.21,73.21,0,0,1,45.27,41s6.19-11,27.18-15.12S114.13,25.18,114.13,25.18Z"/><path d="M117.55,55.54a77.72,77.72,0,0,0,6.66,9.2,59.54,59.54,0,0,1-10-8.36A22,22,0,0,0,117.55,55.54Z"/><path d="M108.4,47.7c-3.76-8-3.91-11.6-3.91-11.6a81.31,81.31,0,0,0-18.72-.7C58.42,37.39,54,59.05,54,59.05s-6.82-8.29-22.33-13A103,103,0,0,0,1.81,41.75a99.81,99.81,0,0,1,29.34-.92c15.51,2,20.15,5.31,20.15,5.31s6.32-16.4,36.83-17.55c17.42-.66,25.63,1.5,25.63,1.5a48.42,48.42,0,0,0,0,15.85A27.13,27.13,0,0,1,108.4,47.7Z"/><path d="M182.45,55.54a77.72,77.72,0,0,1-6.66,9.2,59.1,59.1,0,0,0,10-8.36A22,22,0,0,1,182.45,55.54Z"/><path d="M191.6,47.7c3.76-8,3.92-11.6,3.92-11.6a81.19,81.19,0,0,1,18.71-.7c27.35,2,31.78,23.65,31.78,23.65s6.82-8.29,22.34-13a102.91,102.91,0,0,1,29.83-4.28,99.73,99.73,0,0,0-29.33-.92c-15.51,2-20.14,5.31-20.14,5.31s-6.32-16.4-36.84-17.55c-17.42-.66-25.63,1.5-25.63,1.5a48.42,48.42,0,0,1,0,15.85A27.13,27.13,0,0,0,191.6,47.7Z"/><path d="M134.64,18.12S124,13.36,104.42,12s-30,3.21-30,3.21a97.6,97.6,0,0,1,29.33.69C122.12,19.08,133,25.92,133,25.92A21,21,0,0,0,134.64,18.12Z"/><path d="M165.36,18.12S176,13.36,195.58,12s30,3.21,30,3.21a97.6,97.6,0,0,0-29.33.69C177.88,19.08,167,25.92,167,25.92A21,21,0,0,1,165.36,18.12Z"/></svg>